<?xml version="1.0" encoding="utf-8"?>
<!-- Generator: Adobe Illustrator 25.4.1, SVG Export Plug-In . SVG Version: 6.00 Build 0)  -->
<svg version="1.0"
	 id="svg2" inkscape:version="0.47 r22583" sodipodi:docname="IPL_-_Chennai_Super_Kings.ai" xmlns:cc="http://creativecommons.org/ns#" xmlns:dc="http://purl.org/dc/elements/1.1/" xmlns:inkscape="http://www.inkscape.org/namespaces/inkscape" xmlns:rdf="http://www.w3.org/1999/02/22-rdf-syntax-ns#" xmlns:sodipodi="http://sodipodi.sourceforge.net/DTD/sodipodi-0.dtd" xmlns:svg="http://www.w3.org/2000/svg"
	 xmlns="http://www.w3.org/2000/svg" xmlns:xlink="http://www.w3.org/1999/xlink" x="0px" y="0px" viewBox="0 0 426.7 328.1"
	 style="enable-background:new 0 0 426.7 328.1;" xml:space="preserve">
<style type="text/css">
	.st0{fill:url(#path32_00000156570020914721049870000003647331561264505277_);}
	.st1{fill:url(#path52_00000165205309004515001790000008067771010509022882_);}
	.st2{fill:url(#path72_00000153672982916564321020000007227098410288056204_);}
	.st3{fill:url(#path92_00000152240451953137156470000011074649873959688872_);}
	.st4{fill:url(#path112_00000097490201725693969050000010163269074901513902_);}
	.st5{fill:url(#path132_00000049206325637799271280000011380957674438854297_);}
	.st6{fill:url(#path152_00000107555303834894323150000008691546528179960480_);}
	.st7{fill:url(#path172_00000132802465854595653780000017256754258504099716_);}
	.st8{fill:url(#path192_00000089537399823977400950000000364573949173919126_);}
	.st9{fill:url(#path212_00000173870771756778815040000004375376208346996361_);}
	.st10{fill:url(#path232_00000129915143763605778440000005773872527550963897_);}
	.st11{fill:url(#path252_00000034806060657810792410000018155233096993019778_);}
	.st12{fill:url(#path272_00000007420232063775485380000001177753567161369749_);}
	.st13{fill:url(#path292_00000156565422061433716450000016542704668891839665_);}
	.st14{fill:url(#path312_00000111176943772699024060000008764555120477234575_);}
	.st15{fill:url(#path332_00000151518744310063097690000002282654071263927683_);}
	.st16{fill:url(#path352_00000181782660705329809360000006346315282828459392_);}
	.st17{fill:url(#path372_00000031198737654271801830000003320402043709975444_);}
	.st18{fill:url(#path392_00000121255487882975529030000018124374734002259872_);}
	.st19{clip-path:url(#SVGID_00000034065833349893136260000008331614165666471356_);}
	.st20{fill:#1D418C;}
	.st21{fill:url(#path424_00000113353874325757034580000002952624980991927689_);}
	.st22{clip-path:url(#SVGID_00000053513425684193650230000008019726735576513927_);}
	.st23{fill:url(#path456_00000085230314931123340660000004929672373895323802_);}
	.st24{clip-path:url(#SVGID_00000055678724656083564230000012493529385452917916_);}
	.st25{fill:url(#path488_00000115478194570069072550000009092202664851624342_);}
	.st26{clip-path:url(#SVGID_00000106110018487513861070000014879766077183602580_);}
	.st27{fill:url(#path520_00000097476557979017649140000006368418348315469466_);}
	.st28{clip-path:url(#SVGID_00000095296912802006206960000006031202367096006799_);}
	.st29{fill:url(#path552_00000164501305531581432470000001946478711527076497_);}
	.st30{clip-path:url(#SVGID_00000152966582996976521170000016063991852770514609_);}
	.st31{fill:url(#path588_00000114790296619219486810000017036841108515635369_);}
	.st32{clip-path:url(#SVGID_00000140706401484540386970000015672702683168368770_);}
	.st33{fill:url(#path620_00000041991888234198267660000001601041131031003274_);}
	.st34{clip-path:url(#SVGID_00000098925580548646377260000003007033077543296415_);}
	.st35{fill:url(#path652_00000079445478885997360850000003888065118804144522_);}
	.st36{clip-path:url(#SVGID_00000008130155340825072950000014410512986508781699_);}
	.st37{fill:url(#path684_00000033349282390697058860000004023307380898984097_);}
	.st38{fill:url(#path704_00000157271863348199359030000012733373056682089638_);}
	.st39{clip-path:url(#SVGID_00000018936062247575072230000010142648960633459598_);}
	.st40{fill:#1C63B7;}
</style>
<g id="g12" transform="matrix(1.25,0,0,-1.25,-115.53269,275.69546)" inkscape:groupmode="layer" inkscape:label="IPL_-_Chennai_Super_Kings">
	<g id="g3548" transform="matrix(0.37338186,0,0,0.37338186,59.253585,15.663213)">
		<g id="g14">
			<g id="g16">
				<g id="g22">
					<g id="g24">
						
							<radialGradient id="path32_00000124137685032682389580000006807555589128874883_" cx="-534.0111" cy="-616.9564" r="1" gradientTransform="matrix(51.2558 0 0 -51.2558 27666.3887 -31482.3535)" gradientUnits="userSpaceOnUse">
							<stop  offset="0" style="stop-color:#FFF200"/>
							<stop  offset="1" style="stop-color:#F25C19"/>
						</radialGradient>
						<path id="path32" style="fill:url(#path32_00000124137685032682389580000006807555589128874883_);" d="M483,295
							c-10.9-5.6-24.2-6.7-35.7-9.4l0,0c1.1-2.3,5.4-2.2,9.1-2.1l0,0c1.6,0.1,3.2,0.1,4.3,0l0,0c-12.2-6.4-20.9-14.1-28-25.2l0,0
							c-4.3-3-6.5-8.3-9-12.8l0,0c-1.5-2.7-4.3-5.8-2.9-8.7l0,0c2.7,0.9,15.2,22.2,36.3,26.7l0,0c-1-1-7-8.8-8.7-11.5l0,0
							c-4.1-7-6.9-13.9-9.4-22l0,0c-2.6-8.7-3.4-17.9-4.8-24.5l0,0c-0.5-2.4-2.5-4.8-1.4-7.3l0,0c2,0.8,2.9,3.6,4,5.5l0,0
							c3.5,6.9,6.5,14.4,12.1,19l0,0c0-0.4-0.3-0.5-0.3-0.8l0,0c-9.5-19.5-4.8-52.4,0.4-73.4l0,0c1,0.4,0.8-1.9,1.8-2.7l0,0
							c-0.9,17.3-6.2,34.7-4.6,51l0,0c1.4,14.6,7,27.1,13.3,37.6l0,0c-4,0.3-8-3.2-10.7-6.1l0,0c-4.2-4.4-6.8-11.1-10.5-14.1l0,0
							c4.3,21.2,16.4,39.8,31,51.9l0,0c2,1.7,17.3,6.9,15.4,12.5l0,0c-0.8-1.5-1.6-1.9-2.6-2.2l0,0c-6.3-2.2-13.8-2.8-20.5-4.9l0,0
							c-8.2-2.5-14.5-6.7-20.5-9.3l0,0c5.2,8.8,15.9,14.9,21.9,21.9l0,0c11.9,1.7,20.1,6.4,25.8,13.4l0,0c-0.4,0.1-0.7,0.2-1.1,0.2
							l0,0C485.8,297.6,484.6,295.8,483,295"/>
					</g>
				</g>
			</g>
		</g>
		<g id="g34">
			<g id="g36">
				<g id="g42">
					<g id="g44">
						
							<radialGradient id="path52_00000042728535980743134110000004107632420638309541_" cx="-534.011" cy="-616.9562" r="1" gradientTransform="matrix(51.2553 0 0 -51.2553 27666.1172 -31482.041)" gradientUnits="userSpaceOnUse">
							<stop  offset="0" style="stop-color:#FFF200"/>
							<stop  offset="1" style="stop-color:#F25C19"/>
						</radialGradient>
						<path id="path52" style="fill:url(#path52_00000042728535980743134110000004107632420638309541_);" d="M369.7,277.6
							c-0.7-0.1-7.6-2.1-10.6-2.9l0,0c-1.7-0.4-4.3-1.7-5.1-1.6l0,0c-0.2,0,0,0.9-0.5,0.8l0,0c-2.1-0.5-4-1.9-6.2-2.5l0,0
							c-6.3-1.7-13.7-2.8-18.2-7.5l0,0c-1.5-0.2-3.6,0.1-3.5-1.5l0,0c1.6-1.7,5.1-0.9,7.3-0.6l0,0c6.4,0.8,13.4,4.2,19.5,6.4l0,0
							c2.9,1.1,6.6,2.7,10.1,3.6l0,0c5.5,1.5,11.5,3.1,16.5,4.2l0,0c20.8,4.5,41.8,6.8,64,6.5l0,0c-6.8,0.8-13.4,1.1-20,1.1l0,0
							C404.9,283.6,387.3,281,369.7,277.6"/>
					</g>
				</g>
			</g>
		</g>
		<g id="g54">
			<g id="g56">
				<g id="g62">
					<g id="g64">
						
							<radialGradient id="path72_00000113336774378431807100000014878760372532509061_" cx="-534.0084" cy="-616.9543" r="1" gradientTransform="matrix(51.2464 0 0 -51.2464 27661.2051 -31476.4121)" gradientUnits="userSpaceOnUse">
							<stop  offset="0" style="stop-color:#FFF200"/>
							<stop  offset="1" style="stop-color:#F25C19"/>
						</radialGradient>
						<path id="path72" style="fill:url(#path72_00000113336774378431807100000014878760372532509061_);" d="M276.5,255.5
							c0.1-0.6,0.7-0.6,0.9-1.1l0,0c1.7,1.1,4.2,1.7,4.9,3.6l0,0c-0.5,0-1.1,0.1-1.6,0.1l0,0C278.8,258.1,277.1,257.6,276.5,255.5"
							/>
					</g>
				</g>
			</g>
		</g>
		<g id="g74">
			<g id="g76">
				<g id="g82">
					<g id="g84">
						
							<radialGradient id="path92_00000169548359022590544740000014372743325871261593_" cx="-534.009" cy="-616.9548" r="1" gradientTransform="matrix(51.2486 0 0 -51.2486 27662.416 -31477.7988)" gradientUnits="userSpaceOnUse">
							<stop  offset="0" style="stop-color:#FFF200"/>
							<stop  offset="1" style="stop-color:#F25C19"/>
						</radialGradient>
						<path id="path92" style="fill:url(#path92_00000169548359022590544740000014372743325871261593_);" d="M312,257.6
							c0.5,0,0.5-0.6,0.5-1.2l0,0c2-0.2,4.9-0.5,6-0.3l0,0c0.5,1.8,3,1.9,3.3,3.9l0,0c-0.9,0.6-2,0.8-3.2,0.8l0,0
							C316,260.9,313.2,259.7,312,257.6"/>
					</g>
				</g>
			</g>
		</g>
		<g id="g94">
			<g id="g96">
				<g id="g102">
					<g id="g104">
						
							<radialGradient id="path112_00000048464881765001914800000004498981892828868783_" cx="-534.0126" cy="-616.9574" r="1" gradientTransform="matrix(51.2608 0 0 -51.2608 27669.125 -31485.4941)" gradientUnits="userSpaceOnUse">
							<stop  offset="0" style="stop-color:#FFF200"/>
							<stop  offset="1" style="stop-color:#F25C19"/>
						</radialGradient>
						<path id="path112" style="fill:url(#path112_00000048464881765001914800000004498981892828868783_);" d="M300.7,253.9
							c1-3.7,5.5-2.4,9-2.1l0,0c0.4,1.3-0.7,0.9-0.9,1.5l0,0c0.6,0.8,2.2,0.8,1.8,2.6l0,0c-0.9,0.7-1.9,1-2.9,1l0,0
							C305,256.9,302.3,255.1,300.7,253.9"/>
					</g>
				</g>
			</g>
		</g>
		<g id="g114">
			<g id="g116">
				<g id="g122">
					<g id="g124">
						
							<radialGradient id="path132_00000003820335041880609610000017230052354465276579_" cx="-534.014" cy="-616.9584" r="1" gradientTransform="matrix(51.2654 0 0 -51.2654 27671.668 -31488.4141)" gradientUnits="userSpaceOnUse">
							<stop  offset="0" style="stop-color:#FFF200"/>
							<stop  offset="1" style="stop-color:#F25C19"/>
						</radialGradient>
						<path id="path132" style="fill:url(#path132_00000003820335041880609610000017230052354465276579_);" d="M291.1,248.3
							c0-1.2,1-1.1,1-2.3l0,0c1.5,1.6,3.5,0.5,4.2,2.8l0,0c-0.4,0.5-1,0.7-1.7,0.7l0,0C293.3,249.4,291.8,248.8,291.1,248.3"/>
					</g>
				</g>
			</g>
		</g>
		<g id="g134">
			<g id="g136">
				<g id="g142">
					<g id="g144">
						
							<radialGradient id="path152_00000048475182966173819200000017060058839280318142_" cx="-534.0109" cy="-616.9562" r="1" gradientTransform="matrix(51.2551 0 0 -51.2551 27666.002 -31481.9062)" gradientUnits="userSpaceOnUse">
							<stop  offset="0" style="stop-color:#FFF200"/>
							<stop  offset="1" style="stop-color:#F25C19"/>
						</radialGradient>
						<path id="path152" style="fill:url(#path152_00000048475182966173819200000017060058839280318142_);" d="M334.6,246.2
							c-0.5,0-1.3,0-2.2,0l0,0c-1.8,0-4.1,0.1-6.2-0.3l0,0c0.4-2.3,2.3-2.9,3.9-3.7l0,0c3,1.6,5.3,3.7,9.7,4l0,0
							c-0.9,1.4-2.9,1.6-4.9,1.6l0,0C333.9,247.3,335.4,246.4,334.6,246.2"/>
					</g>
				</g>
			</g>
		</g>
		<g id="g154">
			<g id="g156">
				<g id="g162">
					<g id="g164">
						
							<radialGradient id="path172_00000026844382533908597020000001644967503564453812_" cx="-534.0109" cy="-616.9562" r="1" gradientTransform="matrix(51.255 0 0 -51.255 27665.9375 -31481.8418)" gradientUnits="userSpaceOnUse">
							<stop  offset="0" style="stop-color:#FFF200"/>
							<stop  offset="1" style="stop-color:#F25C19"/>
						</radialGradient>
						<path id="path172" style="fill:url(#path172_00000026844382533908597020000001644967503564453812_);" d="M314.5,242.2
							c1-3.4,4.1-2.9,6.7-3.5l0,0c1,1.8,3.1,2.8,4,4.7l0,0c-0.5,0-1,0.1-1.5,0.1l0,0C320.3,243.5,318.1,242.6,314.5,242.2"/>
					</g>
				</g>
			</g>
		</g>
		<g id="g174">
			<g id="g176">
				<g id="g182">
					<g id="g184">
						
							<radialGradient id="path192_00000095332902683990733180000010906170955284121531_" cx="-534.0113" cy="-616.9565" r="1" gradientTransform="matrix(51.2564 0 0 -51.2564 27666.7129 -31482.7266)" gradientUnits="userSpaceOnUse">
							<stop  offset="0" style="stop-color:#FFF200"/>
							<stop  offset="1" style="stop-color:#F25C19"/>
						</radialGradient>
						<path id="path192" style="fill:url(#path192_00000095332902683990733180000010906170955284121531_);" d="M339,242.2
							c-0.4,0-0.4-0.4-0.8-0.5l0,0c0.1-1.1,0.2-2.1,0.3-3.2l0,0c2.9-3.2,6.5-1,9.3-0.8l0,0c7.4,0.3,14.8-1.7,21.9-2.6l0,0
							c14.1-1.8,26.2-4.4,38.8-8.4l0,0c6.3-2,12.6-4.2,18.9-5.3l0,0c-25.3,11.1-53.8,20.8-86.7,20.8l0,0
							C340,242.2,339.5,242.2,339,242.2"/>
					</g>
				</g>
			</g>
		</g>
		<g id="g194">
			<g id="g196">
				<g id="g202">
					<g id="g204">
						
							<radialGradient id="path212_00000147900510000065549230000002551128361109596857_" cx="-534.0099" cy="-616.9554" r="1" gradientTransform="matrix(51.2515 0 0 -51.2515 27664.043 -31479.6602)" gradientUnits="userSpaceOnUse">
							<stop  offset="0" style="stop-color:#FFF200"/>
							<stop  offset="1" style="stop-color:#F25C19"/>
						</radialGradient>
						<path id="path212" style="fill:url(#path212_00000147900510000065549230000002551128361109596857_);" d="M421.9,203.7
							c0-0.5-0.5-0.6-0.3-1.2l0,0c11.5-18.8,11.9-50.8,14.9-73.8l0,0c2.5,15.8,1,41.2-3.7,59.5l0,0c-1.3,5-5.9,15.6-10.2,15.6l0,0
							C422.4,203.8,422.2,203.8,421.9,203.7"/>
					</g>
				</g>
			</g>
		</g>
		<g id="g214">
			<g id="g216">
				<g id="g222">
					<g id="g224">
						
							<radialGradient id="path232_00000053520306939559401180000001827286848062072990_" cx="-534.011" cy="-616.9563" r="1" gradientTransform="matrix(51.2555 0 0 -51.2555 27666.2188 -31481.9727)" gradientUnits="userSpaceOnUse">
							<stop  offset="0" style="stop-color:#FFF200"/>
							<stop  offset="1" style="stop-color:#F25C19"/>
						</radialGradient>
						<path id="path232" style="fill:url(#path232_00000053520306939559401180000001827286848062072990_);" d="M527.5,424
							c-37.3-9.8-71.2-25.8-79.2-63.3l0,0c3.7,3.3,5.2,8.6,7.7,13.1l0,0c1.4,2.4,2.8,4.2,4.3,6.4l0,0c1.5,2.1,3.3,4.6,3.5,6.3l0,0
							c1.5,3.1,9.1,9.5,13.5,11.9l0,0c37.7,21.6,79.3,24.6,91.9,38.1l0,0c-2.2-4.7-7.6-8.3-11.9-11.8l0,0
							c-58.5-11.5-81-57.8-84.2-63.1l0,0c9.7,6.4,40,62.8,123.1,63.1l0,0c10.4,0,23.8,0.3,33.6,6l0,0c-6.2-8.9-22.9-7-32.2-13.5l0,0
							c15.7,3.6,39.8,4.5,55.8,8.6l0,0c-5.9-5.4-16.4-9.1-25.4-13.3l0,0c-8.4-3.9-20.3-4.5-30.8-6.1l0,0
							c-65.6-10.4-82.7-46.4-81.8-48.9l0,0c6.1,4.6,17.7,26,67,38.4l0,0c17.5,4.4,36.1,3.8,54.2,3.7l0,0c33.2-0.2,65.5-15,98.8-6.3
							l0,0c-13.4-8.9-25.2-12.1-42.7-17.2l0,0c-68.3,17.4-108.3-10.6-110.7-13.9l0,0c2-0.5,18.9,6.7,24.9,8l0,0
							c55.9,11.9,98.8-2.1,139.4-16.1l0,0c0,0,18.1-7.4,42.3-7.3l0,0c-16.3-12.2-40.9-20.2-65.3-20.2l0,0
							c-14.1,6.7-30.4,12.5-48.2,16.1l0,0c-10.8,2.2-21,4.2-33.6,4l0,0c-2.5,0-5.3,0-8.1,0.1l0,0c-9.1,0.2-19.1,0.4-26.6-2.6l0,0
							c1.9-1.6,6.9-1,9.3-0.8l0,0c25.2,1.2,53.4-3.5,73.9-10.8l0,0c27.2-9.7,49.8-22.4,71.8-39l0,0c16.3-12.2,30.2-31.3,52-37.4l0,0
							c-3.5-0.6-6.7-1.1-10.3-1.3l0,0c-9-0.4-19.2,0.1-25.9,3.1l0,0c-5.4,2.4-43.2,29.2-45.4,30.3l0,0c2.3-4.7,52.9-41.5,75.2-56
							l0,0c-2.2-1.1-34.7,11.6-50.1,19.5l0,0c0.1-1.8,11.2-11.2,15.3-15.6l0,0c10.5-11.2,19-26,26.2-40l0,0
							c10.9-21.2,20.5-48.2,34.2-64.6l0,0c-3.8,0.3-13.3,7.1-15.6,8.7l0,0c-2.1,1.6-4.5,4.4-6.7,3.5l0,0c-0.5-1.8,1.8-3.1,2.8-4.6
							l0,0c3.1-4.8,5.4-13,7.3-20.7l0,0c4-15.6,6.5-30.2,11.2-43.6l0,0c-4.6,4.9-8.1,10.7-12.9,15.4l0,0c-2.8,2.7-12.4,13.3-14.3,8
							l0,0c-0.2-3.2,2.4-11.8,2.6-12.6l0,0c2.4-9.5,7.2-20.1,11.6-29.1l0,0c3.2-6.6,7.9-14.2,11.7-20.7l0,0
							c4.8-8,17.8-24.1,18.7-22.9l0,0c-4.9,6-8.9,14.3-13.2,18.6l0,0c-7.3,14.1-18.4,35.3-21.8,54.8l0,0c12.7-9.4,18.1-22.5,29-34.4
							l0,0c2-1.3,4.9-7,5.6-9l0,0c0.7,3.5-3.7,10.4-5.3,13.8l0,0c-1.4,3.1-2.6,5.8-2.7,9l0,0c-7.7,20.2-9.3,40.8-16.1,64l0,0
							c7.8-3.8,18-7.2,28-8.5l0,0c3.3-0.4,6.8-1.7,9.3-0.4l0,0c-3.2,1-5,2.4-5,2.4l0,0c-31.8,27.5-46.6,73.7-70.7,108.1l0,0
							c13.1-5.5,37.7-10.5,50.8-4.6l0,0c-10.1,0.5-17.4,3.1-21.9,5.2l0,0c-4.9,2.2-10.4,6.8-14.9,9.8l0,0c-4.9,3.2-10,6-14,9.7l0,0
							c8.3-3.2,42.3-10.4,62.4,7.1l0,0c1.1,1,3,1.7,3.8,3.1l0,0c-32.4-9.1-81.4,33.4-87.6,38.3l0,0c-3.8,3-7.2,5.6-8.3,6.3l0,0
							c-2.8,1.8-5.3,3.9-8.1,5.8l0,0c-6,3.9-13.1,6.3-18.5,10.9l0,0c6.2-0.7,12.2,0.3,17.9,1.9l0,0c0.8-0.3,11.8,1.5,17.4,3.4l0,0
							c23,7.8,38.9,26.7,58.8,36.5l0,0c-8,1.4-18.7-6.9-42.2-8.3l0,0c-24.7-1.5-37.2,4.9-44.3,7.2l0,0c-4.2,1.3-28.1,8.6-34.5,9.6
							l0,0c43.6,8.3,58.6,40.8,58.6,40.8l0,0c-6.1-5.8-9.6-7.5-9.6-7.5l0,0c-8.7-4.5-20.5-6.2-30.3-7.3l0,0c-7.3-0.8-23,1.6-41,4
							l0,0c-16.6,2.2-35.1,4.4-50.7,4.1l0,0c9.3,3.9,17.5,6.9,25.5,11.7l0,0c9.5,5.8,18.8,14.3,22.5,24.3l0,0
							c-11.5-11.6-36.5-16-48.2-18l0,0c7.4,6,14.3,10.1,17.5,20.7l0,0c-21.4-17-52.8-14.5-81.8-19.2l0,0c0,0,13.7,12.2,24,30.1l0,0
							C589.6,457,561.6,432.3,527.5,424"/>
					</g>
				</g>
			</g>
		</g>
		<g id="g234">
			<g id="g236">
				<g id="g242">
					<g id="g244">
						
							<radialGradient id="path252_00000183957799784996886200000001655231555559204008_" cx="-534.0112" cy="-616.9564" r="1" gradientTransform="matrix(51.256 0 0 -51.256 27666.4902 -31482.4727)" gradientUnits="userSpaceOnUse">
							<stop  offset="0" style="stop-color:#FFF200"/>
							<stop  offset="1" style="stop-color:#F25C19"/>
						</radialGradient>
						<path id="path252" style="fill:url(#path252_00000183957799784996886200000001655231555559204008_);" d="M470.9,417.5
							c4.3,5.6,12,10.3,13.4,17.1l0,0c-7.3-7.1-17.2-12.2-25.3-19.3l0,0c-8.1-7.2-14.1-16.2-20.4-24.5l0,0
							c1.4,10.9,10.5,17.2,14.8,24.5l0,0c-14.8-7.9-22.6-21.1-24.2-23.2l0,0c-6.4-8.7-7.1-20.8-13.2-30l0,0
							c-4.9,6.5-1.1,13.5,1.6,19.4l0,0c-15.1-6.3-10.6-28.2-35.2-36.6l0,0c-4-1.4-8.6-3.8-12.6-5.7l0,0c-4.8-2.3-10.2-4.2-13.6-7.3
							l0,0c-1.9-1.8-8.3-10.5-9.7-12.4l0,0c-1.5-1.9-2.6-4.4-3.9-5.9l0,0c-2-2.3-4.7-1.9-7.7-1.6l0,0c-1.5,0.2-3.1,0.3-4.7,0.2l0,0
							c-10.9-1.2-20.6-10.8-35.4-12.9l0,0c-1.3-0.2-2.6-0.2-3.9-0.1l0,0c-1.2,0-2.5,0.1-3.7-0.1l0,0c-5.5-0.6-11-2.8-15.7-4.1l0,0
							c-10.7-3-17.4-6.8-26.7-11.4l0,0c-5.3-2.6-12.2-6.6-14-10l0,0c-3.4-6.5,4.3-12.6,7.8-16.6l0,0c1.3-9.2,6-7.3,7.8-7l0,0
							c2.9-3,1.9-6.1,2.4-10.2l0,0c2-15.2,7.5-22.4,18.3-27.4l0,0c2.8-6,1.9-16.3,4.3-22.9l0,0c2.8-7.7,7.2-15.8,11.3-20.7l0,0
							c-2.5,8.2-4.9,20.2-3.1,27.8l0,0c1.4,1.7,3,4.6,3.1,6.3l0,0c0.3-0.7,0.6-0.3,1,0.1l0,0c0.2,0.2,0.4,0.5,0.6,0.5l0,0
							c-0.5-10.6,2.7-19.9,6.2-26.4l0,0c3.3-6.1,6.1-10.9,9.7-15.6l0,0c2-2.6,4.2-5.4,6.5-6.3l0,0c0.2,3.3-3.1,4.5-3.2,9.4l0,0
							c-6.6,15.1-7.9,44.5,7.8,51.2l0,0c2.4-2.9,5.2-7.9,9.3-6l0,0c3.8-7.5,8.3-14.1,9.6-24.5l0,0c2.5-0.5,2.3,1.2,3.5,1.9l0,0
							c4.5-8.1,8.9-16.3,11.1-27.2l0,0c0.6-0.2,1.1-0.1,1.5,0l0,0c0.5,0.1,0.8,0.3,1.4-0.2l0,0c3.3-14.8,4.1-24.3,3.5-37l0,0
							c-3.6-1.1-11.8-8.9-12.8-9.9l0,0c-1.5-0.7-12.1-13.6-18.8-20l0,0c-4.2,7.2-4.7,20.5-3.9,27.8l0,0c-1.7-1.2-3.3-3.8-4.3-6l0,0
							c-5.7-12.4-5.7-32.5-2.4-44.3l0,0c-8.6,4.6-14.1,27.4-11.5,37.2l0,0c-5.7-3.5-8.3-14.5-8.2-22.7l0,0
							c0.2-10.3,7.1-15.2,8.2-21.8l0,0c-1.3-13.7-9-24.1-2.5-37.9l0,0c2.6-5.5,12.7-12.8,12.8-18.6l0,0c0.6,1.2,0.4-0.1,0.3-1.3l0,0
							c0-1,0-2,0.7-1.8l0,0c2.4,2.9,3.3,8.2,1.7,13.4l0,0c4-4.4,9-9.2,10.1-16l0,0c0.9-5.7-2.6-10.4-1.9-15.8l0,0
							c5.9,5.3,6.6,14.9,8.9,23.2l0,0c6.4-7.9,14.8-14.7,12.5-29.5l0,0c3.4,5.4,4.6,11.5,1.9,20.2l0,0c-1.7,5.5-6.5,10.1-5.4,16.4
							l0,0c1.3-4,5.3-4.8,8.9-6.1l0,0c0.8-1.6,1.5-3.2,3.5-3.3l0,0c-1.7,4.8-4.9,7.9-5.9,13.5l0,0c4.9-2.6,10.7-5.8,17.3-5l0,0
							c2.7-2.9,5.4-5.8,9.8-6.8l0,0c0.4,2.1-2,1.6-3,2.6l0,0c-5.2,4.7-7.4,15.8-5.6,24l0,0c0.5-2.9,2.1-5.6,3.5-8.1l0,0
							c1.2-2.3,2.1-6.2,5.3-6.4l0,0c-2,9-1.6,21.3,0.8,28.9l0,0c0.7-2.7,2.4-5.3,4.2-7.3l0,0c1.7-1.9,3.8-4.6,6-4.7l0,0
							c-1.1,9.7,2.4,18.7,8.5,23.6l0,0c7.3-3.8,10.4-12.5,14.5-20.1l0,0c-3.2-8-6.4-15.5-6.4-24.6l0,0c0-19.5,10.1-41.6,7.7-59.1
							l0,0c-0.7-5.3-2.8-14.3-4.3-20.4l0,0c2.4,3.5,5.5,12.8,5.7,13.3l0,0c6.3,14.1,0.6,41.5-1.6,58.8l0,0c0.4,0.4-0.4,17,2.2,21.4
							l0,0c4.4-9,8.2-18.7,11.1-32.4l0,0c-0.2,23.9-7.1,44.5-15.1,66.1l0,0c-9.7,26.3-5.1,55.8,2.9,81.7l0,0
							c-4.6-4.5-7.2-12.5-9.2-19.6l0,0c-2.3-8.2-4.3-20.5-4.5-28l0,0c-0.3-10,0.7-19.6,2.1-29.9l0,0c-1.6,6.7-8.3,0.9-10.3-2l0,0
							c-3.9-5.8-5.9-17-7.8-22.3l0,0c-3.3,5.2-2.3,11.8-1.5,17.9l0,0c-3.5,1.1-4.2-3.6-5.1-6l0,0c-2.5-6.6-3.6-15.2-4.1-23.2l0,0
							c-0.9,4.6-3.7,9.8-4.8,14.4l0,0c-0.9,3.8-0.9,9.3-5.8,7.5l0,0c2.1-14.6-1.1-24.7,2.2-36.7l0,0c-6.1-0.5-10.1,5.2-12.4,9l0,0
							c-1.5,2.6-2.3,6.1-4.1,6.5l0,0c-3.2-4.3-0.3-13.3-0.1-18.1l0,0c-2.1,2.6-3.1,6.6-4.8,9.6l0,0c-1.6,0.1-2.3-0.5-3.1-1.1l0,0
							c1.3-9,1.1-15,5-21.2l0,0c-7.1,5.8-10.8,17.6-12.8,29l0,0c-0.8,4.6-0.7,7.4-3.2,10.2l0,0c-2,0.5-3.2-0.7-4.3-2l0,0
							c0.4-2.9,1.1-8.4,1.6-9.1l0,0c1.9-8.7,6.9-17.4,4.2-26.5l0,0c-0.8,2.6-0.6,5.1-1.4,7.1l0,0c-2.8,7.6-9.2,9.3-13.6,14.1l0,0
							c-1.6,1.7-1.3,4.1-3.6,5.3l0,0c-1.7-4.7,2.5-11.3,3-16.6l0,0c-7.3,7.4-13.5,27.2-6.8,38.3l0,0c1.5-0.8,4.2-1.3,5.7-0.7l0,0
							c8.1-3.7,17.2-3.7,27-1.8l0,0c4,2.7,7.2,6.6,10.9,8.5l0,0c6.1,9.8,9,19.4,16.2,27l0,0c0.3-0.9,1.6-0.8,2.5-1l0,0
							c7.2,7.8,14.2,15.6,19.2,25.2l0,0c0.4-0.6,0.4-1.5,1.7-1.1l0,0c1.1,3.5,4.3,5.3,5.3,8.9l0,0c-3.6,11.2-7.8,21.7-10.1,34.5l0,0
							c0.3,1.5,1.5,3.2,0.1,4l0,0c-1,0.6-1.5-0.1-1.8-0.9l0,0c-0.4-0.8-0.7-1.5-1.6-1l0,0c1,3.5-1.3,7.8-0.5,11.2l0,0
							c-0.8,0-1.3-0.5-1.8-1l0,0c-0.6-0.7-1.1-1.3-1.7-0.9l0,0c-0.6,4.7,1.5,8.3,1,12.1l0,0c-0.9,0.6-1.1-0.1-1.4-0.8l0,0
							c-0.2-0.5-0.5-1.1-1.3-1l0,0c-4.5,7.1-2.4,20.1-8.2,26.2l0,0c-2.5-1.9-1.1-4.9-3.5-6.7l0,0c-0.6,8.3-4.1,17.3-8.9,24.9l0,0
							c-4.8,7.8-9.4,15.3-17.4,11.8l0,0c-1.5,0.9-3.4,1.2-4.2,2.9l0,0c2.5,0.7,5.3-0.1,6.7,1.4l0,0c-6.9,1.8-20.1,0.8-26.9-0.2l0,0
							c3.4-4.3,12.8-1.5,16.9-5l0,0c-5.2-5.1-12.1-2.8-17.8-2.7l0,0c0.4-0.8,2.2-2.1,1.8-2.3l0,0c-5.1-0.2-9.8,0-13,2.1l0,0
							c-0.4,1.4-2,3.8-3.4,2.5l0,0c-0.7-1.7,2.3-3.1,2.5-6.2l0,0c-8,0.6-11.8,5.1-16.9,9.8l0,0c-0.5-2.2,1.6-2.7,0.7-4l0,0
							c-5-1.8-10.6-0.7-13.8,1.7l0,0c-6,4.6-6.7,15.3-10.6,21.6l0,0c-1-8.9,3.8-18.2,6.9-25.9l0,0c-8.5,3.1-7.9,16.9-11.4,25.9l0,0
							c0.7,0.7,1.3,1.4,1.8,2.2l0,0c-5.9,4.2-13.9,6-16.1,14.7l0,0c11.4,11.6,31.6,24.2,51.4,27.9l0,0c4.9,0.9,8.8,0.7,12.6,0.5l0,0
							c3-0.2,5.9-0.3,9,0.1l0,0c9.4,6.5,21.6,12.4,33.4,13.2l0,0c4.4,0.3,8.6-0.3,11.5,1.8l0,0c4.4,3.1,6.1,13.6,10.6,17.3l0,0
							c20.4,16.8,50.4,18.2,55.8,24.2l0,0c9.3,10.4,13.4,34.2,14.7,36.1l0,0c-1-6.4-2.2-16.9,1.7-21.1l0,0
							c2.3,20.7,14.8,37.8,28.5,48.9l0,0c-4-6.2-10.5-16.5-9.6-24.5l0,0c9,11,18,22,33,28l0,0c0.9,0.6,0.2,0.8,0.7,1.3l0,0
							c10.3,3.8,21.9,9,33.4,12.8l0,0c-10.6-11.2-24.8-14-35.2-20.9l0,0c3.5,0.8,9.9,2.3,15.3,4.5l0,0c9.8,3.9,19.1,9.6,25.1,16.5
							l0,0c2.4,2.7,3.8,6.2,6.1,8.9l0,0c2.5,3,6.1,5.4,6.8,9.8l0,0C524.6,435.3,491.4,431.7,470.9,417.5 M410,368.4
							c2.7-5,3.2-12.9-1.5-16.2l0,0C410.3,356.5,409.9,362.6,410,368.4 M299.5,220.1c3.8-0.6,6.8-2.2,11.7-1.4l0,0
							c-1.6-2.8-6.7-0.7-9-3.1l0,0C303,217.7,300.1,218.2,299.5,220.1 M320.8,219.4c8.3,0.8,16.4-0.5,19.4-7.2l0,0
							c-0.3-0.7-1.7-0.6-2.3-1l0,0c0.2,0.9,1,2.1,0.2,2.8l0,0c-2.5-0.2-3.7-1.6-5.4-2.5l0,0c-3.8,4-8.9,9-14.3,3.2l0,0
							c-1.5,2.3-5.2,2.9-6.7,3.9l0,0c3.4,0.9,6.7,1.3,8.8-0.1l0,0C321.1,218.8,320,219.3,320.8,219.4 M275.2,212.9
							c3.8,2.9,9.6,1.1,12.4,5.4l0,0c5.6-1.4,7-0.9,13.5-3.3l0,0c-7-8.4-9.3-25.9-4.7-40.5l0,0c-3.2,3.8-6.9,12.6-8.1,21l0,0
							c-1.2,7.8,0.3,14.2,0.4,19.7l0,0c-2.7-0.8-2.4-4.2-3.1-6.7l0,0c-1.7,0.5-2.4-0.3-5.2-0.4l0,0c-0.3,2.2-0.3,4.9-2.8,4.6l0,0
							c-0.7-2-1.2-6.6,0.6-7.6l0,0c-0.9-5.8-2.8-12.3-3-17.5l0,0C272.5,194.5,269.8,208.7,275.2,212.9 M369.5,124.4
							c1-0.3,3.4-0.2,2.5-1.4l0,0c0.8-0.2,1.1,0.2,1.3,0.5l0,0c0.2,0.3,0.4,0.6,1,0.5l0,0c-0.6-3.8-6.2-6.6-7.9-10.7l0,0
							c-16.3-11.4-23.1-29.3-23.9-31.2l0,0c-1.4-3.5-5-9.3-7.6-15.1l0,0c-6.1,3.7-9.2,11-12.7,17.8l0,0c8.1,13.1,17,27.3,31.7,33.5
							l0,0c-3.3-4.1-9-7.1-10.5-13.7l0,0C350.7,111,358.6,119.9,369.5,124.4 M316.4,63.1c-6.1,9.6-8.6,28.8-5,41.3l0,0
							c1.8-17.5,9.8-30.1,16.9-39.9l0,0c-2.4-1.3-5.2-2.3-7.9-2.3l0,0C319.1,62.2,317.7,62.4,316.4,63.1 M294,96.1
							c2.9-11,5.8-22,12-29.1l0,0C294.2,67.4,291.6,85.1,294,96.1 M305.8,60.2c2.2,1.1,4.5-1.4,6.9-1.4l0,0
							c-0.8-0.3-1.6-0.4-2.3-0.4l0,0C308.5,58.4,306.7,59.1,305.8,60.2"/>
					</g>
				</g>
			</g>
		</g>
		<g id="g254">
			<g id="g256">
				<g id="g262">
					<g id="g264">
						
							<radialGradient id="path272_00000040559623668732284300000008204503374050891679_" cx="-534.0112" cy="-616.9564" r="1" gradientTransform="matrix(51.2561 0 0 -51.2561 27666.541 -31482.5293)" gradientUnits="userSpaceOnUse">
							<stop  offset="0" style="stop-color:#FFF200"/>
							<stop  offset="1" style="stop-color:#F25C19"/>
						</radialGradient>
						<path id="path272" style="fill:url(#path272_00000040559623668732284300000008204503374050891679_);" d="M418.1,332.5
							c0,0-1.1,0.1-2-0.1l0,0c-10.3-2.4-56-24.4-74.7-37.1l0,0c-13.4,1.4-26.3-3.1-36.3-7.8l0,0c-2.4-1.1-5.1-1.8-6.5-3.7l0,0
							c0.4-1.4,1.9-1.3,3.5-1.3l0,0c1,0,1.9,0.1,2.6-0.2l0,0c9.2,5.6,21.2,12,34.4,10.9l0,0c-1.1-0.4-20.7-12.3-11.5-16.2l0,0
							c1.2,0.4,1.3,1.6,3.1,1.5l0,0c4.7,6.4,10.7,11.6,18.4,15.6l0,0c8.6,9.5,21.2,15.6,33,22.4l0,0c-1.8-3-4.5-5.1-6.1-8.1l0,0
							c0.7-2.8,3-3.7,4.1-6.1l0,0c-0.9-1.9-1-4.4-1.5-6.5l0,0c-2.9,0.9-8.8,2.7-11,1.5l0,0c0.1-2,3.3-2,4.1-1.7l0,0
							c5.9-1.9,10-3.5,16.5-5.9l0,0c2,3.7,6.5,5.7,11.4,7.4l0,0c6.5,2.2,13.5,1.5,20.4,0.9l0,0c-0.7,2.6-3.7,2.3-6.2,2.7l0,0
							c-5.5,2.2-15.7,4.2-24.9,4.8l0,0c-1.2,1.6-4.1,1.3-5.4,2.8l0,0c-2.4,5.2,4.4,9.4,5.8,12.5l0,0c8.5,4.6,16.8,7.2,25.6,10.5l0,0
							c2.4,0.9,5.4,1.2,7.3,3.4l0,0C420.5,334.2,418.9,333.8,418.1,332.5 M385.7,302.2c-0.3-0.5-0.4-1.1-0.2-2l0,0
							c-0.5,0-1.1-0.1-1.6-0.1l0,0C383.7,301.5,384.3,302.2,385.7,302.2L385.7,302.2L385.7,302.2 M391.5,301.1
							c2.5-1.1,6.9-0.1,8.6-2.1l0,0c-5.2-0.6-10.2-2.9-14.3-6l0,0c-1.9,0.1-2.8,1.3-4.5,1.6l0,0c-0.2,1.8,0.4,2.8,0.9,4.1l0,0
							c0.9-1.3,2.7-1.9,4.4-1.9l0,0C389,296.8,391.5,298.2,391.5,301.1"/>
					</g>
				</g>
			</g>
		</g>
		<g id="g274">
			<g id="g276">
				<g id="g282">
					<g id="g284">
						
							<radialGradient id="path292_00000182494677906907386970000008852845429671442839_" cx="-534.011" cy="-616.9563" r="1" gradientTransform="matrix(51.2554 0 0 -51.2554 27666.1543 -31482.0918)" gradientUnits="userSpaceOnUse">
							<stop  offset="0" style="stop-color:#FFF200"/>
							<stop  offset="1" style="stop-color:#F25C19"/>
						</radialGradient>
						<path id="path292" style="fill:url(#path292_00000182494677906907386970000008852845429671442839_);" d="M311.8,274.4
							c-3.7,0.9-9.2,0.3-11.3-3.7l0,0c3.9-5.1,9.6,1.1,12.1,3.8l0,0c3-2.3,7.9,2.1,10.1,4l0,0c-0.5,0.1-1.1,0.1-1.6,0.1l0,0
							C317.1,278.7,312.3,276.6,311.8,274.4"/>
					</g>
				</g>
			</g>
		</g>
		<g id="g294">
			<g id="g296">
				<g id="g302">
					<g id="g304">
						
							<radialGradient id="path312_00000059990870840422455850000005422626516415594136_" cx="-533.2717" cy="-616.4253" r="1" gradientTransform="matrix(48.8681 0 0 -48.8681 26362.3301 -29983.25)" gradientUnits="userSpaceOnUse">
							<stop  offset="0" style="stop-color:#FFF200"/>
							<stop  offset="1" style="stop-color:#F25C19"/>
						</radialGradient>
						<path id="path312" style="fill:url(#path312_00000059990870840422455850000005422626516415594136_);" d="M428.1,148.5
							c0.6-14.4-1-28.8-4.7-40.5l0,0c0.5-5.7-3.1-8.5-3.6-14.3l0,0c0-0.7-0.8-1.3-0.3-1.2l0,0c7,10.2,10.4,24.9,11.7,38.3l0,0
							c1,10.7,0.9,22.5-1.5,33.2l0,0c-0.8,3.4-1,8.1-4.4,10.1l0,0C425.7,165.8,427.7,157.5,428.1,148.5"/>
					</g>
				</g>
			</g>
		</g>
		<g id="g314">
			<g id="g316">
				<g id="g322">
					<g id="g324">
						
							<radialGradient id="path332_00000155832635499466219850000012351406867951660941_" cx="-534.0124" cy="-616.9573" r="1" gradientTransform="matrix(51.2602 0 0 -51.2602 27668.7402 -31485.0762)" gradientUnits="userSpaceOnUse">
							<stop  offset="0" style="stop-color:#FFF200"/>
							<stop  offset="1" style="stop-color:#F25C19"/>
						</radialGradient>
						<path id="path332" style="fill:url(#path332_00000155832635499466219850000012351406867951660941_);" d="M488.1,334.7
							c-1.9-0.9-7.9-4-12.5-6.9l0,0c-2.1-1.4-10.2-7.1-13.8-11l0,0c-7.5-8.1-10.6-6.5-10.1-8.4l0,0c1.1-1.2,2.3-1.6,3.8-1.7l0,0
							c6.3-0.6,10.4,2.2,13.2,5.5l0,0c7,8.3,19.6,18.4,30.3,22.1l0,0c9.9,3.5,18.9,1.7,28.1,0l0,0c5.4-1,10.9-2,16.6-2l0,0
							c-8.2,3.9-20.5,6.5-32.5,6.5l0,0C502.9,339,494.7,337.7,488.1,334.7"/>
					</g>
				</g>
			</g>
		</g>
		<g id="g334">
			<g id="g336">
				<g id="g342">
					<g id="g344">
						
							<radialGradient id="path352_00000086666295878942254160000018085314958319688863_" cx="-534.0114" cy="-616.9565" r="1" gradientTransform="matrix(51.2566 0 0 -51.2566 27666.832 -31482.8672)" gradientUnits="userSpaceOnUse">
							<stop  offset="0" style="stop-color:#FFF200"/>
							<stop  offset="1" style="stop-color:#F25C19"/>
						</radialGradient>
						<path id="path352" style="fill:url(#path352_00000086666295878942254160000018085314958319688863_);" d="M275.1,277.4
							c-7.8-1.3-32.4-6.3-29.9-16.9l0,0c0.6-2.6,6.8-5.8,10.5-5.6l0,0c4.8,8.3,7,18.8,21.3,19l0,0c1.1,4.8,4.7,7.4,7.5,10.6l0,0
							c-0.5,0-0.4,0.7-0.9,0.7l0,0C281.5,282.3,275.9,280.5,275.1,277.4"/>
					</g>
				</g>
			</g>
		</g>
		<g id="g354">
			<g id="g356">
				<g id="g362">
					<g id="g364">
						
							<radialGradient id="path372_00000160156137742559959470000006583293765842615947_" cx="-534.0097" cy="-616.9553" r="1" gradientTransform="matrix(51.2509 0 0 -51.2509 27663.7109 -31479.2852)" gradientUnits="userSpaceOnUse">
							<stop  offset="0" style="stop-color:#FFF200"/>
							<stop  offset="1" style="stop-color:#F25C19"/>
						</radialGradient>
						<path id="path372" style="fill:url(#path372_00000160156137742559959470000006583293765842615947_);" d="M285.1,263.4
							c4.8-3.7,12.4,0.1,12.4,5l0,0c-0.3,0.2-0.8,0.2-1.3,0.2l0,0C293.1,268.7,287.6,265.9,285.1,263.4"/>
					</g>
				</g>
			</g>
		</g>
		<g id="g374">
			<g id="g376">
				<g id="g382">
					<g id="g384">
						
							<radialGradient id="path392_00000129184523488034252480000005844427605959068844_" cx="-534.011" cy="-616.9563" r="1" gradientTransform="matrix(51.2556 0 0 -51.2555 27666.2383 -31482.1797)" gradientUnits="userSpaceOnUse">
							<stop  offset="0" style="stop-color:#FFF200"/>
							<stop  offset="1" style="stop-color:#F25C19"/>
						</radialGradient>
						<path id="path392" style="fill:url(#path392_00000129184523488034252480000005844427605959068844_);" d="M351.1,226.3
							c2-1.4,5.9-1.7,5.2-4.8l0,0c4.3-1.3,4.3-4.5,4.7-8.4l0,0c12.2-11.3,18-30.2,26.9-43.9l0,0c-0.4,0-0.5,0.3-0.8,0.3l0,0
							c2-1.9,2.9-4.8,4.9-5.6l0,0c-6.5,18.9-13.6,36.6-24,52.2l0,0c-0.1,0.8-0.1,1.6-0.2,2.4l0,0c-3.8,4.2-8.9,7-14,9.7l0,0
							C352.5,227.9,351.2,227.6,351.1,226.3"/>
					</g>
				</g>
			</g>
		</g>
		<g id="g394">
			<g>
				<defs>
					<rect id="SVGID_1_" x="362.1" y="70.6" width="392.9" height="277.8"/>
				</defs>
				<clipPath id="SVGID_00000129199409359241007210000001428660295281118877_">
					<use xlink:href="#SVGID_1_"  style="overflow:visible;"/>
				</clipPath>
				<g id="g396" style="clip-path:url(#SVGID_00000129199409359241007210000001428660295281118877_);">
					<g id="g402" transform="translate(348.4629,220.5371)">
						<path id="path404" class="st20" d="M137.6-88.1h16.8l-23.1,66.9v8.6c0,1.4,0.9,2.8,2.7,4.2l-0.1-0.1c0.9,0.7,1.8,1.3,2.6,1.6
							c0.8,0.4,1.6,0.5,2.6,0.5h33.8V-24l-6.2,4.6h-17.8l23.6-67.7v-8.2c0-0.6-0.1-1.2-0.4-1.9c-0.3-0.7-0.7-1.3-1.2-1.9
							c-0.6-0.6-1.3-1.1-2.1-1.4c-0.9-0.4-1.9-0.5-3.1-0.5h-34.5v17.4l5.9-4.5H137.6z"/>
					</g>
				</g>
			</g>
		</g>
		<g id="g406">
			<g id="g408">
				<g id="g414">
					<g id="g416">
						
							<linearGradient id="path424_00000057111084588723922080000002425189096408481419_" gradientUnits="userSpaceOnUse" x1="-526.7531" y1="-658.9988" x2="-525.7531" y2="-658.9988" gradientTransform="matrix(0 -24.8801 -24.8801 0 -15895.457 -12894.3652)">
							<stop  offset="0" style="stop-color:#00ADEF"/>
							<stop  offset="1" style="stop-color:#1D418C"/>
						</linearGradient>
						<path id="path424" style="fill:url(#path424_00000057111084588723922080000002425189096408481419_);" d="M487.5,212.3
							c-0.6,0-1.2-0.1-1.6-0.3l0,0c-0.6-0.3-1.3-0.7-2.1-1.4l0,0c-0.9-0.7-1.9-1.7-1.9-2.7l0,0v-8.3c0.2-0.5,23.8-69.1,23.8-69.1
							l0,0h-20.8c0,0-1.9,1.4-3.1,2.4l0,0v-11.5h32.4c0.9,0,1.6,0.1,2.2,0.4l0,0c0.6,0.3,1.1,0.6,1.4,1l0,0c0.4,0.4,0.7,0.9,0.9,1.3
							l0,0c0.2,0.5,0.3,0.9,0.3,1.3l0,0v7.9c-0.2,0.6-24.4,69.8-24.4,69.8l0,0h21.4c0,0,2-1.5,3.4-2.5l0,0v11.8H487.5z M483.7,210.6
							l0.1,0.1L483.7,210.6z"/>
					</g>
				</g>
			</g>
		</g>
		<g id="g426">
			<g>
				<defs>
					<rect id="SVGID_00000019667470828791057600000011059042585898427819_" x="362.1" y="70.6" width="392.9" height="277.8"/>
				</defs>
				<clipPath id="SVGID_00000032631493164620140380000015302049905424256698_">
					<use xlink:href="#SVGID_00000019667470828791057600000011059042585898427819_"  style="overflow:visible;"/>
				</clipPath>
				<g id="g428" style="clip-path:url(#SVGID_00000032631493164620140380000015302049905424256698_);">
					<g id="g434" transform="translate(384.7544,302.3423)">
						<path id="path436" class="st20" d="M137.6-88.1h29.2l-5.3-6v-76h11.6V-94l-5.5,5.9h29.3l-5.5-5.9v-82.8l7.2-6h-38
							c-11.8,0-17.7,1.9-17.7,5.6v83.1L137.6-88.1z"/>
					</g>
				</g>
			</g>
		</g>
		<g id="g438">
			<g id="g440">
				<g id="g446">
					<g id="g448">
						
							<linearGradient id="path456_00000105419950305252702060000018056401050516613300_" gradientUnits="userSpaceOnUse" x1="-526.7531" y1="-658.9989" x2="-525.7531" y2="-658.9989" gradientTransform="matrix(0 -24.8801 -24.8801 0 -15843.5928 -12894.3652)">
							<stop  offset="0" style="stop-color:#00ADEF"/>
							<stop  offset="1" style="stop-color:#1D418C"/>
						</linearGradient>
						<path id="path456" style="fill:url(#path456_00000105419950305252702060000018056401050516613300_);" d="M556.8,212.3
							c1.3-1.4,3.1-3.3,3.1-3.3l0,0v-78.7h-15.7v78.5c0,0,1.8,2,3,3.4l0,0h-20.6c1.3-1.5,3-3.4,3-3.4l0,0v-83.8
							c0-2.3,5.8-3.7,15.6-3.7l0,0H578c-1.6,1.4-4,3.3-4,3.3l0,0V209c0,0,1.8,1.9,3.1,3.3l0,0L556.8,212.3L556.8,212.3z"/>
					</g>
				</g>
			</g>
		</g>
		<g id="g458">
			<g>
				<defs>
					<rect id="SVGID_00000172441526999239997870000010990391285918493848_" x="362.1" y="70.6" width="392.9" height="277.8"/>
				</defs>
				<clipPath id="SVGID_00000004519351603200055800000014757341259399036560_">
					<use xlink:href="#SVGID_00000172441526999239997870000010990391285918493848_"  style="overflow:visible;"/>
				</clipPath>
				<g id="g460" style="clip-path:url(#SVGID_00000004519351603200055800000014757341259399036560_);">
					<g id="g466" transform="translate(468.8008,288.7373)">
						<path id="path468" class="st20" d="M137.6-88.1v-25.1h3.6c2.2,0,4.1,0.4,5.7,1.2c1.6,0.8,2.9,1.9,3.8,3.1
							c1,1.3,1.7,2.6,2.2,4.1c0.5,1.5,0.7,2.9,0.7,4.3c0,1.5-0.2,2.9-0.7,4.4c-0.5,1.5-1.2,2.8-2.2,3.9c-1,1.2-2.4,2.1-4,2.8
							c-1.6,0.7-3.6,1-6,1H137.6z M137.2-120.2v-43.2l5.3-5.9h-29.2l5.3,5.9v82.8l-5.3,6h27.9c23.9,0.2,27.8-14.7,28.3-16.5
							c0.5-1.8,1.7-10.7-0.7-15.9c-1.3-2.8-7.9-15.3-25.5-18.8C143.4-125.6,137.2-120.2,137.2-120.2z"/>
					</g>
				</g>
			</g>
		</g>
		<g id="g470">
			<g id="g472">
				<g id="g478">
					<g id="g480">
						
							<linearGradient id="path488_00000049933340881960720680000006141390936919502259_" gradientUnits="userSpaceOnUse" x1="-526.4199" y1="-659.4628" x2="-525.4199" y2="-659.4628" gradientTransform="matrix(0 -24.5153 -24.5153 0 -15555.1611 -12695.3545)">
							<stop  offset="0" style="stop-color:#00ADEF"/>
							<stop  offset="1" style="stop-color:#1D418C"/>
						</linearGradient>
						<path id="path488" style="fill:url(#path488_00000049933340881960720680000006141390936919502259_);" d="M610.8,212.3h-24.4
							c1.3-1.5,3-3.4,3-3.4l0,0v-84.2c0,0-1.7-1.9-3-3.3l0,0H607c-1.3,1.4-3,3.3-3,3.3l0,0V173c0,0,7.3-6.5,8.7-7.7l0,0
							c17.3,5,21.9,14.8,23.2,17.3l0,0c1.2,2.5,3.7,16.8-6.2,24.4l0,0c-6.5,5-16.1,5.3-18.3,5.3l0,0
							C611,212.3,610.8,212.3,610.8,212.3 M604.4,202.5h5.1c2.7,0,5-0.4,6.9-1.2l0,0c1.9-0.8,3.5-1.9,4.7-3.3l0,0
							c1.2-1.3,2.1-2.9,2.6-4.6l0,0c0.5-1.6,0.8-3.3,0.8-4.9l0,0c0-1.6-0.3-3.2-0.8-4.9l0,0c-0.5-1.7-1.4-3.3-2.5-4.7l0,0
							c-1.1-1.5-2.7-2.7-4.5-3.7l0,0c-1.9-1-4.2-1.5-6.7-1.5l0,0h-5.6V202.5z"/>
					</g>
				</g>
			</g>
		</g>
		<g id="g490">
			<g>
				<defs>
					<rect id="SVGID_00000125597395905593569930000015772443156763646138_" x="362.1" y="70.6" width="392.9" height="277.8"/>
				</defs>
				<clipPath id="SVGID_00000099661170982638874930000015482218068555257244_">
					<use xlink:href="#SVGID_00000125597395905593569930000015772443156763646138_"  style="overflow:visible;"/>
				</clipPath>
				<g id="g492" style="clip-path:url(#SVGID_00000099661170982638874930000015482218068555257244_);">
					<g id="g498" transform="translate(526.5684,255.374)">
						<path id="path500" class="st20" d="M137.6-88.1V-123H150l6.3,4.7v-17.6h-42.4l5.3,6v41.6h-6.1l6.1,12.7v28.4l-5.3,6.1h42.4
							v-17.3l-6.3,4.3h-12.4V-75H158l-7.4-13.2H137.6z"/>
					</g>
				</g>
			</g>
		</g>
		<g id="g502">
			<g id="g504">
				<g id="g510">
					<g id="g512">
						
							<linearGradient id="path520_00000060027435299028060940000016676635873081648570_" gradientUnits="userSpaceOnUse" x1="-526.7531" y1="-658.9989" x2="-525.7531" y2="-658.9989" gradientTransform="matrix(0 -24.8801 -24.8801 0 -15733.8936 -12894.3652)">
							<stop  offset="0" style="stop-color:#00ADEF"/>
							<stop  offset="1" style="stop-color:#1D418C"/>
						</linearGradient>
						<path id="path520" style="fill:url(#path520_00000060027435299028060940000016676635873081648570_);" d="M644.8,212.3
							c1.3-1.5,3.1-3.5,3.1-3.5l0,0v-29.5c0,0-3.4-7.1-5-10.4l0,0h5v-44.1c0,0-1.8-2-3-3.5l0,0h36.1v11.8c-1.5-1.1-3.5-2.6-3.5-2.6
							l0,0h-15.2v38.6H676c0.8,1.4,3.5,6.3,5.3,9.4l0,0h-19.1v24.6h15.1c0,0,2.1-1.4,3.6-2.4l0,0v11.7H644.8z"/>
					</g>
				</g>
			</g>
		</g>
		<g id="g522">
			<g>
				<defs>
					<rect id="SVGID_00000042000193909059420200000018208081692495581314_" x="362.1" y="70.6" width="392.9" height="277.8"/>
				</defs>
				<clipPath id="SVGID_00000049924844540862820520000015854197900787617189_">
					<use xlink:href="#SVGID_00000042000193909059420200000018208081692495581314_"  style="overflow:visible;"/>
				</clipPath>
				<g id="g524" style="clip-path:url(#SVGID_00000049924844540862820520000015854197900787617189_);">
					<g id="g530" transform="translate(575.5244,263.6826)">
						<path id="path532" class="st20" d="M137.6-88.1c2.3,0,4.2,0.4,5.8,1.2c1.6,0.8,2.9,1.9,3.9,3.1c1,1.3,1.8,2.6,2.3,4.1
							c0.5,1.5,0.7,2.9,0.7,4.3c0,1.5-0.2,2.9-0.7,4.4c-0.5,1.5-1.2,2.8-2.3,3.9c-1,1.2-2.4,2.1-4.1,2.8c-1.7,0.7-3.7,1-6.2,1H134
							v-25.1H137.6z M153.3-94.8l17.9-42.2h-0.1l0.6-1.2l7.1-6h-24.3v5l-20.9,42.1v-41.2l5.3-5.9h-29.3l5.4,5.9v82.8l-5.4,6h28.2
							c0.6,0,1.1,0,1.4-0.1c1.5-0.1,3-0.2,4.7-0.4c0,0,20.9-1.6,23-20.7C168.7-86.8,153.3-94.8,153.3-94.8"/>
					</g>
				</g>
			</g>
		</g>
		<g id="g534">
			<g id="g536">
				<g id="g542">
					<g id="g544">
						
							<linearGradient id="path552_00000116195570106641419550000016093018668654331292_" gradientUnits="userSpaceOnUse" x1="-526.7587" y1="-658.991" x2="-525.7587" y2="-658.991" gradientTransform="matrix(0 -24.8863 -24.8863 0 -15680.5938 -12897.7881)">
							<stop  offset="0" style="stop-color:#00ADEF"/>
							<stop  offset="1" style="stop-color:#1D418C"/>
						</linearGradient>
						<path id="path552" style="fill:url(#path552_00000116195570106641419550000016093018668654331292_);" d="M713.3,212.3h-23.8
							c1.3-1.5,3.1-3.4,3.1-3.4l0,0v-84.2c0,0-1.8-1.9-3.1-3.3l0,0h20.6c-1.3,1.4-3,3.3-3,3.3l0,0v41.9l3.9,0.8l21.1-42.5v-3.5h17
							c-1.6,1.4-3.5,3-3.5,3l0,0l-0.9,1.6l0.1,0.1l-18.5,43.6c17.9,10,13.9,25.9,13.9,25.9l0,0c-4.4,15.8-21.5,16.8-25.9,16.8l0,0
							C713.7,212.3,713.3,212.3,713.3,212.3 M707.5,202.5h5.2c2.7,0,5.1-0.4,7-1.2l0,0c2-0.8,3.6-1.9,4.8-3.3l0,0
							c1.2-1.3,2.1-2.9,2.6-4.6l0,0c0.5-1.6,0.8-3.3,0.8-4.9l0,0c0-1.6-0.3-3.2-0.8-4.9l0,0c-0.5-1.7-1.4-3.3-2.6-4.8l0,0
							c-1.2-1.5-2.7-2.7-4.6-3.6l0,0c-1.9-1-4.2-1.5-6.8-1.5l0,0h-5.7L707.5,202.5L707.5,202.5z"/>
					</g>
				</g>
			</g>
		</g>
		<g id="g554">
			<g>
				<defs>
					<rect id="SVGID_00000109010535593123927180000015942535670500492419_" x="362.1" y="70.6" width="392.9" height="277.8"/>
				</defs>
				<clipPath id="SVGID_00000062892364969174982940000012910002552461199245_">
					<use xlink:href="#SVGID_00000109010535593123927180000015942535670500492419_"  style="overflow:visible;"/>
				</clipPath>
				<g id="g556" style="clip-path:url(#SVGID_00000062892364969174982940000012910002552461199245_);">
					<g id="g562" transform="translate(581.2549,199.8564)">
						<path id="path564" class="st20" d="M137.6-88.1c-0.4,0-39.5-0.9-43.8-35.7c0-0.4-4.1-37.1,47.6-46.9l21.6-3.8
							c0,0-0.8,29-0.9,30.8c0.8,0.7,5.8,4.8,5.8,4.8l-28.2,2.7c0,0,0.4-16.3,0.5-20.1c-6.2,1.5-22.6,7.6-22.6,30.1
							c0,0.4,0,0.8,0,1.2c2.1,23.6,18.8,23.6,19.6,23.6c0,0,17-0.2,18-0.2c0.7-0.4,7.4-4.2,7.4-4.2l-0.5,17.6H137.6z"/>
					</g>
					<g id="g566" transform="translate(302.5059,191.0342)">
						<path id="path568" class="st20" d="M137.6-88.1c-3.5,2.8-7.1,5.7-10.7,8.6c20,0,39.3,0,58,0c-3.4-2.5-6.9-5-10.3-7.6
							c-0.3-11.2-0.5-22.3-0.8-33.5c7.7,12.4,15.5,23.8,23.2,34.6c0.1,2.2,0.1,4.3,0.2,6.5c14.7,0,29,0,42.9,0
							c-3.2-2.1-10-6.5-10.1-6.6c0.1,0.1-18.7-26.7-28.5-42c8.7-18.4,17.2-35.3,25.6-50.9c3.1-1.1,6.3-2.1,9.4-3.2
							c-14-4.5-28.3-9.7-42.7-15.5c0.1,2.2,0.1,4.4,0.2,6.7c-6.8,12.8-13.8,26.6-20.9,41.4c-0.4-16.6-0.8-33.2-1.2-49.8
							c3.2-1.2,6.4-2.3,9.6-3.3c-18.2-7.8-36.5-16.7-54.9-26.8c3.3,4.8,6.7,9.5,10,14C136.9-194.2,137.5-102.8,137.6-88.1"/>
					</g>
				</g>
			</g>
		</g>
		<g id="g570">
			<g id="g572">
				<g id="g578">
					<g id="g580">
						
							<linearGradient id="path588_00000077287465019082447690000013992790188269703080_" gradientUnits="userSpaceOnUse" x1="-523.4266" y1="-663.6304" x2="-522.4266" y2="-663.6304" gradientTransform="matrix(0 -21.6618 -21.6618 0 -13889.9648 -11228.6572)">
							<stop  offset="0" style="stop-color:#00ADEF"/>
							<stop  offset="1" style="stop-color:#1D418C"/>
						</linearGradient>
						<path id="path588" style="fill:url(#path588_00000077287465019082447690000013992790188269703080_);" d="M501.5,109.7
							c-0.1-1.9-0.2-5.3-0.2-5.3l0,0L501,104c-8-11.2-15.8-22.8-23.1-34.5l0,0l-3.6-5.8l1,41.3c0,0,3.6,2.7,6.5,4.8l0,0
							c-0.3,0-38.4,0-47,0l0,0c3.1-2.5,7.3-5.9,7.3-5.9l0,0l0-0.9l-0.9-128c0,0-3-4.3-5.7-8l0,0c14.4,7.6,29,14.7,43.6,21.1l0,0
							c-2.6,0.9-6.5,2.2-6.5,2.2l0,0l0.1,1.4l1.2,49.8l3.6,0.8c7-14.6,14-28.5,20.8-41.3l0,0l0.2-0.4c0,0-0.1-2.5-0.1-4.3l0,0
							c11.6,4.6,23.3,8.9,34.9,12.7l0,0c-2.1,0.7-4.9,1.7-4.9,1.7l0,0l-0.3,0.6c-8.7,16.1-17.1,32.8-25.7,51l0,0l-0.4,0.9l0.6,0.9
							c9.2,14.4,29,42.5,29,42.5l0,0c0,0,2.4,1.6,4.9,3.2l0,0C528.9,109.7,504.4,109.7,501.5,109.7"/>
					</g>
				</g>
			</g>
		</g>
		<g id="g590">
			<g>
				<defs>
					<rect id="SVGID_00000042699633434917828880000016549055133039957942_" x="362.1" y="70.6" width="392.9" height="277.8"/>
				</defs>
				<clipPath id="SVGID_00000120526722981709372710000017335999638056433329_">
					<use xlink:href="#SVGID_00000042699633434917828880000016549055133039957942_"  style="overflow:visible;"/>
				</clipPath>
				<g id="g592" style="clip-path:url(#SVGID_00000120526722981709372710000017335999638056433329_);">
					<g id="g598" transform="translate(403.394,97.6748)">
						<path id="path600" class="st20" d="M137.6-88.1c3,3,6,5.8,8.9,8.6c1,29.2,2,58.4,3,87.5c-2.8,1.9-5.6,3.9-8.3,5.9
							c15.7,0,30.9,0,45.6,0c-2.7-1.8-5.4-3.6-8.1-5.5c-0.8-26.8-1.5-53.6-2.3-80.5c2.7-1.2,5.4-2.4,8.1-3.6
							C169.2-78.9,153.5-83.1,137.6-88.1"/>
					</g>
				</g>
			</g>
		</g>
		<g id="g602">
			<g id="g604">
				<g id="g610">
					<g id="g612">
						
							<linearGradient id="path620_00000159460281706791396380000008566621683807427987_" gradientUnits="userSpaceOnUse" x1="-523.4266" y1="-663.6304" x2="-522.4266" y2="-663.6304" gradientTransform="matrix(0 -21.6618 -21.6618 0 -13809.457 -11228.6406)">
							<stop  offset="0" style="stop-color:#00ADEF"/>
							<stop  offset="1" style="stop-color:#1D418C"/>
						</linearGradient>
						<path id="path620" style="fill:url(#path620_00000159460281706791396380000008566621683807427987_);" d="M550.5,109.7
							c1.7-1.2,4.4-3.1,4.4-3.1l0,0l0-1l-3-88.2c0,0-2.3-2.3-3.9-3.8l0,0c11.4,3.4,22.8,6.5,34.1,9.1l0,0c-1.4,0.6-4.1,1.8-4.1,1.8
							l0,0l0.6,20.9l1.8,61.8c0,0,2.4,1.6,3.8,2.6l0,0C575.8,109.7,554.9,109.7,550.5,109.7"/>
					</g>
				</g>
			</g>
		</g>
		<g id="g622">
			<g>
				<defs>
					<rect id="SVGID_00000053544312151041531300000003459541954784546998_" x="362.1" y="70.6" width="392.9" height="277.8"/>
				</defs>
				<clipPath id="SVGID_00000061464096356133553940000015822568875474523800_">
					<use xlink:href="#SVGID_00000053544312151041531300000003459541954784546998_"  style="overflow:visible;"/>
				</clipPath>
				<g id="g624" style="clip-path:url(#SVGID_00000061464096356133553940000015822568875474523800_);">
					<g id="g630" transform="translate(480.4951,199.8457)">
						<path id="path632" class="st20" d="M137.6-88.1c8.3-9.8,16.5-19.3,24.7-28.6c0,3.8,0,7.6,0,11.4c0.1,4.1,0.2,8.3,0.3,12.4
							c-2.4,1.6-4.8,3.2-7.2,4.8h40.3c-2.3-1.7-4.5-3.3-6.8-5c0.3-27.3,0.7-54.5,1-81.7c-0.7-0.1-1.4-0.2-2.2-0.3
							c-13.7,16.2-27.4,31.6-41.2,47.6c-0.1-12.8-0.2-25.7-0.4-38.5c2.6-1.3,5.2-2.6,7.8-4c-14.5-1.6-29.5-4.1-44.7-7.4
							c2.8,2.4,5.6,4.7,8.4,6.9c0.6,25.7,1.1,51.4,1.7,77c-2.6,1.7-5.2,3.5-7.8,5.2H137.6z"/>
					</g>
				</g>
			</g>
		</g>
		<g id="g634">
			<g id="g636">
				<g id="g642">
					<g id="g644">
						
							<linearGradient id="path652_00000157267298572518915920000000198491002268466049_" gradientUnits="userSpaceOnUse" x1="-523.4266" y1="-663.6303" x2="-522.4266" y2="-663.6303" gradientTransform="matrix(0 -21.6618 -21.6618 0 -13741.8467 -11228.543)">
							<stop  offset="0" style="stop-color:#00ADEF"/>
							<stop  offset="1" style="stop-color:#1D418C"/>
						</linearGradient>
						<path id="path652" style="fill:url(#path652_00000157267298572518915920000000198491002268466049_);" d="M642.1,109.8
							c0.9-0.6,3-2,3-2l0,0l0-1c0,0-0.3-12.4-0.3-12.4l0,0c0-0.4,0-16.3,0-16.3l0,0l-3.3,3.7c-7.1,8.1-15.5,17.7-24.2,28l0,0h-19
							c1.2-0.8,3.5-2.4,3.5-2.4l0,0l0-1L600,28.5c0,0-2.2-1.8-3.3-2.7l0,0c10.6,2.1,21.2,3.8,31.5,5.2l0,0c-1,0.5-3.4,1.7-3.4,1.7
							l0,0l0,1.2l0.4,43.4l18.5-21.2c8.1-9.3,16.6-19,24.8-28.7l0,0c-0.1,4.2-1,80.3-1,80.3l0,0c0,0,2,1.5,2.9,2.1l0,0H642.1z"/>
					</g>
				</g>
			</g>
		</g>
		<g id="g654">
			<g>
				<defs>
					<rect id="SVGID_00000031193051179342680660000015404450123098450605_" x="362.1" y="70.6" width="392.9" height="277.8"/>
				</defs>
				<clipPath id="SVGID_00000114057574387903700260000010012073243303018901_">
					<use xlink:href="#SVGID_00000031193051179342680660000015404450123098450605_"  style="overflow:visible;"/>
				</clipPath>
				<g id="g656" style="clip-path:url(#SVGID_00000114057574387903700260000010012073243303018901_);">
					<g id="g662" transform="translate(621.2285,122.1182)">
						<path id="path664" class="st20" d="M137.6-88.1c6-1.5,11.8-3.1,17.5-5c-8.1,25.3-16.7,48-25.7,68.9c-0.1,2.6-0.1,5.3-0.2,7.9
							c0,1.3,0.9,2.5,2.7,3.7c1.7,1.3,3.6,2,5.5,2c12,0,23.7,0,35,0v-18.6c-1.9,1.7-3.9,3.4-5.9,5.1c-6.1,0.3-8.8,0.6-15.1,0.9
							c8.6-22.4,16.8-47,24.2-74.7c0-3,0.2-10.5-0.1-11.1c-0.2-0.6-0.6-1.1-1.1-1.5c-0.5-0.4-1.1-0.6-1.9-0.6
							c-0.8,0-1.7,0.2-2.8,0.7c-10.9,4.8-26.3,9-38.6,12.1c-0.1,5.3-0.3,10.5-0.4,15.8c2.2-1.8,4.3-3.6,6.4-5.5
							C137.2-88,137.4-88.1,137.6-88.1"/>
					</g>
				</g>
			</g>
		</g>
		<g id="g666">
			<g id="g668">
				<g id="g674">
					<g id="g676">
						
							<linearGradient id="path684_00000178169789631609286760000011552586305257168310_" gradientUnits="userSpaceOnUse" x1="-523.4266" y1="-663.6303" x2="-522.4266" y2="-663.6303" gradientTransform="matrix(0 -21.6618 -21.6618 0 -13601.7939 -11228.5625)">
							<stop  offset="0" style="stop-color:#00ADEF"/>
							<stop  offset="1" style="stop-color:#1D418C"/>
						</linearGradient>
						<path id="path684" style="fill:url(#path684_00000178169789631609286760000011552586305257168310_);" d="M754.3,108L754.3,108
							l-0.1-0.1c-1.1-0.8-1.8-1.5-1.8-2l0,0c0,0,0.2-6.9,0.2-7.5l0,0c9.8-22.9,18.2-45.4,25.6-68.7l0,0l1.2-3.7l-3.7,1.2
							c-5.6,1.8-11.4,3.4-17.3,4.9l0,0c0,0-1,0.3-1,0.3l0,0l-0.4,0.3c0,0-1.5,1.3-3,2.6l0,0c0.1-4,0.2-8.1,0.2-9.8l0,0
							c11.2-2.9,26.5-7.1,37.5-11.9l0,0c1-0.4,1.6-0.5,1.9-0.5l0,0c0.3,0,0.6,0.1,0.8,0.2l0,0c0.2,0.1,0.3,0.3,0.4,0.5l0,0
							c0,0.5,0.1,1.5,0.1,2.8l0,0c0,1.5,0,3.2,0,4.5l0,0c0,0,0,2.4,0,2.9l0,0c-6.9,25.7-14.7,50.1-24,74.3l0,0l-1.1,2.9l11.8-0.7
							l7.1-0.5l0.5-0.4c0,0,1.3-1.2,2.7-2.3l0,0v12.3c-3.3,0-33,0-33,0l0,0C757.2,109.6,755.8,109.1,754.3,108"/>
					</g>
				</g>
			</g>
		</g>
		<g id="g686">
			<g id="g688">
				<g id="g694">
					<g id="g696">
						
							<linearGradient id="path704_00000165921029576401967310000012562553024988140944_" gradientUnits="userSpaceOnUse" x1="-522.1188" y1="-665.4513" x2="-521.1188" y2="-665.4513" gradientTransform="matrix(0 -20.6135 -20.6135 0 -13006.6455 -10655.0537)">
							<stop  offset="0" style="stop-color:#00ADEF"/>
							<stop  offset="1" style="stop-color:#1D418C"/>
						</linearGradient>
						<path id="path704" style="fill:url(#path704_00000165921029576401967310000012562553024988140944_);" d="M718.9,109.7
							c0,0-37.7-0.5-41.8-33.9l0,0c0,0-4.5-35.2,46-44.7l0,0l19.2-3.3l-0.8,29.3l2.8,2.3l-21.2,2l0.5-20.3c0,0-27.4,3.4-26.6,33.9
							l0,0c2.3,26,21.6,25.4,21.6,25.4l0,0l18.5-0.2l4.7-2.7l-0.3,12.1L718.9,109.7L718.9,109.7z"/>
					</g>
				</g>
			</g>
		</g>
		<g id="g706">
			<g>
				<defs>
					<rect id="SVGID_00000000911832467813379530000004240390507892854713_" x="362.1" y="70.6" width="392.9" height="277.8"/>
				</defs>
				<clipPath id="SVGID_00000088815571325704925570000006251726335829483669_">
					<use xlink:href="#SVGID_00000000911832467813379530000004240390507892854713_"  style="overflow:visible;"/>
				</clipPath>
				<g id="g708" style="clip-path:url(#SVGID_00000088815571325704925570000006251726335829483669_);">
					<g id="g714" transform="translate(476,418.626)">
						<path id="path716" class="st40" d="M137.6-88.1l-5.1,5.3l-5.5-4.9l5.1-5.2L137.6-88.1z M131.2-124.9l-4.5,4.6l4.8,4.2l4.5-4.6
							C136-120.7,131.2-124.9,131.2-124.9z M168.4-135.7c-14.7,5.6-8.3,19.4-8.3,19.4s-2.4-5.1-10.4-4.3
							c-16.1,1.6-17.1,24.3-17.1,24.3c-3-14.6-9.4-21.2-18.1-22.6c-9.5-1.5-11.6,5.4-11.6,5.4s3.6-11.6-7.1-17.3
							C85.9-135.9,79-126,79-126l14.6-25.2c8.5,9.1,20.2,17.8,36.2,17.8c16.1,0,30.5-7.7,38.2-17.8l0.1,0l13.2,19.5
							C174.3-138.2,168.4-135.7,168.4-135.7 M167.8-112.1l-1.6,5.3l-5.6-1.5l1.6-5.3C162.2-113.6,167.8-112.1,167.8-112.1z
							 M187.6-122.4l-6-1.1l1.2-5.9l6,1.1L187.6-122.4z M103.6-105.3l-5.4,2.1l-2.2-5.1l5.4-2.1
							C101.3-110.4,103.6-105.3,103.6-105.3z M74.6-117.5l-1.6-5.3l5.6-1.5l1.6,5.3C80.1-119.1,74.6-117.5,74.6-117.5z"/>
					</g>
					<g id="g718" transform="translate(394.3628,335.3379)">
						<path id="path720" class="st40" d="M137.6-88.1V-76l-3.1,2.6h17l-3.1-2.6v-11.9h6.7V-76l-3.1,2.6H169l-3.2-2.5v-35.5l3.2-2.5
							h-17l3.2,2.5v17.8h-6.7v-17.7l3.1-2.5h-17l3.1,2.5v17.7l-3.5,0L137.6-88.1z"/>
					</g>
					<g id="g722" transform="translate(439.8887,330.0176)">
						<path id="path724" class="st40" d="M137.6-88.1V-103h7.2l3.7,2v-7.5h-24.7l3.1,2.6v17.8h-3.5l3.5,5.4v12.1l-3.1,2.6h24.7v-7.4
							l-3.7,1.8h-7.2v-8.9h11.9l-4.3-5.6H137.6z"/>
					</g>
					<g id="g726" transform="translate(462.2344,350.1211)">
						<path id="path728" class="st40" d="M137.6-88.1l9.8-14.1v5.5l0.1,6.1l-3.1,2.6h17.4l-3.1-2.6v-41.6l-1.1-0.1l-16.4,24.8v-18.4
							l3.1-2.5h-17l3.1,2.5v35.4l-3.1,2.6H137.6z"/>
					</g>
					<g id="g730" transform="translate(496.9248,350.1211)">
						<path id="path732" class="st40" d="M137.6-88.1l9.8-14.1v5.5l0.1,6.1l-3.1,2.6h17.4l-3.1-2.6v-41.6l-1.1-0.1l-16.4,24.8v-18.4
							l3.1-2.5h-17l3.1,2.5v35.4l-3.1,2.6H137.6z"/>
					</g>
					<path id="path734" class="st40" d="M672.9,247.5h6.7v9h-6.7V247.5z M676.5,221.5l3.2,2.5v17.8h-6.7V224l3.1-2.5h-17l3.1,2.5
						v17.7h-3.5l3.6,5.5v11.3c0.1,0.9,1.2,1.8,3.5,2.5c2.1,0.6,4.3,0.9,6.7,0.9h7.8c1.1,0,2.2-0.1,3.2-0.3c1-0.2,2.1-0.4,3.2-0.7
						c2.1-0.6,3.4-1.4,3.7-2.4v-34.6l3.2-2.4L676.5,221.5L676.5,221.5z"/>
					<g id="g736" transform="translate(556.1895,309.6309)">
						<path id="path738" class="st40" d="M137.6-88.1l3,2.5v35.4l-3,2.6h16.3l-2.9-2.6v-35.4l2.9-2.5H137.6z"/>
					</g>
					<g id="g740" transform="translate(390.1899,341.3247)">
						<path id="path742" class="st40" d="M137.6-88.1v8.8c0,0-22.7,2.5-24.2-19.9c0,0-0.3-18.2,18.9-20.5l5.3-0.2v9l-3.8-2.2
							c0,0-9.7-0.8-10.3,13.6c0,0,0.4,13.9,10.4,13.6L137.6-88.1z"/>
					</g>
				</g>
			</g>
		</g>
	</g>
</g>
</svg>
