<?xml version="1.0" encoding="utf-8"?>
<!-- Generator: Adobe Illustrator 25.4.1, SVG Export Plug-In . SVG Version: 6.00 Build 0)  -->
<svg version="1.0" id="Layer_1" xmlns="http://www.w3.org/2000/svg" xmlns:xlink="http://www.w3.org/1999/xlink" x="0px" y="0px"
	 viewBox="0 0 537.8 365.9" style="enable-background:new 0 0 537.8 365.9;" xml:space="preserve">
<style type="text/css">
	.st0{fill:#FAAD1B;}
	.st1{fill:url(#SVGID_1_);}
	.st2{fill:#FFFFFF;}
	.st3{fill:#D71921;}
</style>
<g>
	<path class="st0" d="M358.7,252.4c-7.4,12.2-16,23.6-25.7,34c-9.7,10.4-20.3,19.9-31.9,28.2c-5.8,4.1-29.7,17.7-35.8,20.7
		c-6.1-3-58.1-38.4-67.8-48.7c-9.7-10.4-18.4-21.8-25.7-34c-7.5-12.2-13.5-25.2-18.1-38.7c1,3.4,2,6.9,3.2,10.3
		c1.2,3.4,2.5,6.7,3.9,10c2.8,6.6,5.9,13.1,9.4,19.4c7.1,12.5,15.6,24.3,25.2,35c9.6,10.8,20.4,20.4,32,29c5.8,4.3,11.9,8.2,18,11.9
		c6.2,3.7,12.6,7.1,19.1,10.2l0.8,0.4l0.8-0.4c6.5-3.2,12.8-6.6,19-10.3c6.2-3.7,12.2-7.7,18-12c5.8-4.3,11.4-8.9,16.7-13.7
		c5.3-4.8,10.4-10,15.2-15.3c9.6-10.8,18-22.5,25.2-35c3.5-6.3,6.7-12.7,9.5-19.3c1.4-3.3,2.7-6.6,4-10c1.2-3.4,2.3-6.8,3.3-10.2
		C372.3,227.3,366.2,240.3,358.7,252.4z"/>
	
		<linearGradient id="SVGID_1_" gradientUnits="userSpaceOnUse" x1="238.6575" y1="337.9028" x2="238.6575" y2="75.2916" gradientTransform="matrix(1.0541 0 0 -1.0541 13.1027 398.3678)">
		<stop  offset="0.1263" style="stop-color:#2561AE"/>
		<stop  offset="0.2144" style="stop-color:#255CA7"/>
		<stop  offset="0.3427" style="stop-color:#264C93"/>
		<stop  offset="0.495" style="stop-color:#283374"/>
		<stop  offset="0.5437" style="stop-color:#282968"/>
	</linearGradient>
	<path class="st1" d="M386,175l5.5,0.6l0-13.8l15.6-15.6h-24v-31.7c-20.1-11.1-46.2-23.5-75.7-30.1c0,0.2,0.1,0.4,0.1,0.6l2.2,2.5
		l7,4.6l1.7,10.9l0.3,0.5c26.3,5.4,43.1,18,53.9,29.6v0.5c-10.9-11.7-31.8-20.9-56.9-25.9l-1.9-3.1l-1.5-9.8l-5.8-3.8l-3.6-4
		c-2.3-17-14.5-27.8-30.2-31.1l-0.2-2.1l-1.7-1.5v-2.7c3-0.7,4.9-1.9,4.9-3.3c0-1.4-2-2.6-4.9-3.3v-2.9l-4.2-2.4l-0.2-1.5h1.5
		l0.6-2.2H267l-2.4-8.3l-2.4,8.3h-1.7l0.6,2.2h1.5l-0.2,1.5l-4.2,2.4v2.9c-3,0.7-4.9,1.9-4.9,3.3s2,2.6,4.9,3.3v2.7l-1.6,1.5
		l-0.2,2.5c-15,3.8-26.5,14.3-28.7,30.8l-3.6,4l-5.8,3.8l-1.5,9.8l-2.2,3.4c-22.5,4.7-42.6,13.2-56.5,25.3v-0.3
		c13.3-11.5,29.7-24,53.6-29.2l0.6-0.9l1.7-10.8l7-4.6l2.2-2.5c0-0.2,0.1-0.5,0.1-0.7c-29.5,6.5-55.6,18.6-75.7,29.6v32.4h-25.3
		l17.1,15.7v44.7l14.2,6.7c10.3,35.2,37.9,86.5,111.7,122c74-35.6,101.5-87.1,111.7-122.3l14.7-6.4v-24.4l-1.2-1.6
		C388.7,178.4,387.3,176.7,386,175z"/>
	<path class="st2" d="M350.8,250.2c-6.7,11.2-14.6,21.6-23.5,31.1c-8.9,9.5-18.6,18.2-29.2,25.8c-5.3,3.8-10.7,7.4-16.3,10.7
		c-5.4,3.2-10.9,6.1-16.5,8.8c-5.6-2.7-11.1-5.6-16.5-8.8c-5.6-3.3-11-6.9-16.3-10.7c-10.6-7.6-20.4-16.2-29.3-25.7
		c-8.9-9.5-16.8-19.9-23.5-31.1c-6.8-11.1-12.4-23.1-16.6-35.5c0.9,3.2,1.9,6.3,2.9,9.4c1.1,3.1,2.3,6.2,3.6,9.2
		c2.5,6.1,5.4,12,8.6,17.7c6.5,11.5,14.3,22.2,23.1,32c8.8,9.9,18.7,18.7,29.3,26.5c5.3,3.9,10.9,7.5,16.5,10.9
		c5.7,3.4,11.5,6.5,17.4,9.4l0.7,0.4l0.7-0.4c5.9-2.9,11.7-6,17.4-9.4c5.6-3.4,11.2-7.1,16.5-11c5.3-3.9,10.4-8.1,15.3-12.6
		c4.9-4.4,9.5-9.1,13.9-14.1c8.8-9.8,16.5-20.6,23-32c3.2-5.7,6.1-11.6,8.7-17.7c1.3-3,2.5-6.1,3.6-9.1c1.1-3.1,2.1-6.2,3-9.4
		C363.2,227.2,357.6,239.1,350.8,250.2z"/>
	<g>
		<g>
			<path class="st2" d="M221.5,102.9l0.7-5.8l5.5-3.1l3.8-4.1c0,0,1.4-23.4,27-30.1c0,0-15.6,4-20.7,22.2
				c-1.4,5.1,0.6,10.8,0.6,10.8l-0.6,11.1c0,0-12,1.1-18.6,3.8L221.5,102.9z"/>
		</g>
		<g>
			<path class="st2" d="M273.1,60.2c0,0,15.9,1.2,21.3,14.2C294.4,74.4,285.9,64.6,273.1,60.2z"/>
		</g>
		<g>
			<path class="st2" d="M261.1,59.8c0,0-10.5,7.5-9.1,43l4.2-0.2C256.2,102.6,252.5,70.6,261.1,59.8z"/>
		</g>
	</g>
	<g>
		<g>
			<g>
				<g>
					<path class="st2" d="M213.1,120.4c6.4-1.4,9.7-2.1,16.2-3.1c2.6,1.6,3.9,2.3,6.5,3.8c0,8.4,0.1,10.1,0.1,18.4
						c-2.4,1.7-3.7,2.7-6.1,4.6c-6.7,0-10,0-16.7,0C213.1,131.8,213.1,132.7,213.1,120.4z M226.2,123.4c-1.5,0.2-2.3,0.3-3.9,0.5
						c0,6.6,0,8.1,0.1,14.7c1.6-0.1,2.3-0.1,3.9-0.1C226.3,131.8,226.3,130.2,226.2,123.4z"/>
					<path class="st2" d="M239.8,115.9c7-0.8,10.5-1,17.5-1.2c0,2.7,0,4,0,6.2c-3.2,0.1-4.8,0.1-8,0.3c0,2.2,0,3.2,0,5.2
						c2.6-0.1,4-0.2,6.6-0.2c0,2,0,2.9,0,4.9c-2.6,0-4,0.1-6.6,0.2c0,2.6,0,3.8,0,6.7c3.3,0,4.9-0.1,8.2-0.1c0,2.3,0,3.5,0,6.2
						c-7.1,0-10.6,0-17.7,0C239.8,130.1,239.8,130,239.8,115.9z"/>
					<path class="st2" d="M260.4,114.6c3.8-0.1,5.7-0.1,9.6,0c0,11.9,0,13.5,0,23.3c3.4,0,5.1,0,8.5,0.1c0,2.2,0,3.4,0,6.2
						c-7.2,0-10.8,0-18,0C260.4,129.5,260.4,129.2,260.4,114.6z"/>
					<path class="st2" d="M294,127.9c0-4,0-6,0.1-11.6c3.8,0.5,5.6,0.7,9.4,1.3c-0.1,13.4-0.1,13.1-0.1,26.5c-3.8,0-5.6,0-9.4,0
						c0-5.7,0-7.6,0.1-11.6c-1.6-0.1-2.3-0.1-3.9-0.2c0,4.1,0,6.1-0.1,11.8c-3.8,0-5.7,0-9.5,0c0-14.4,0.1-14.7,0.1-29.1
						c3.8,0.2,5.7,0.4,9.5,0.8c0,5.7,0,7.7-0.1,11.8C291.7,127.8,292.5,127.8,294,127.9z"/>
					<path class="st2" d="M308.2,118.5c3.8,0.7,5.7,1.1,9.4,1.9c0,12.3,0,11.5,0,23.8c-3.8,0-5.7,0-9.5,0
						C308.1,131.1,308.1,131.5,308.2,118.5z"/>
				</g>
			</g>
			<g>
				<path class="st2" d="M308.2,118.5c0,0,4.7,0.8,11.2,2.3c3.3,0.7,6.3,1.6,6.3,1.6l-10.7,4.5L308.2,118.5z"/>
			</g>
			<g>
				<path class="st2" d="M222.7,118.5c0,0-4.7,0.8-11.2,2.3c-3.3,0.7-6.3,1.6-6.3,1.6l10.7,4.5L222.7,118.5z"/>
			</g>
		</g>
		<g>
			<g>
				<g>
					<g>
						<g>
							<path class="st2" d="M185.1,151.4c-3.5,15.7-5.4,31.7-8.5,47.4c4.9-1.9,7.4-2.8,12.4-4.4c0.5-2.8,0.7-4.3,1.2-7.6
								c3-0.8,4.4-1.2,7.4-2c0.4,2.8,0.5,4.2,0.9,6.6c5-1.4,7.6-2.1,12.6-3c-2.8-12.3-5.2-24.7-7.8-37.1L185.1,151.4L185.1,151.4z
								 M191.3,178.3c0.7-6.2,1.4-12.4,2.2-18.6c0.5,0,0.7,0,1.2-0.1c0.7,5.8,1.4,11.7,2.2,17.5
								C194.6,177.6,193.5,177.9,191.3,178.3z"/>
						</g>
					</g>
					<g>
						<g>
							<path class="st2" d="M290.9,151.4c-8.9,0-17.8,0-26.6,0c0,2.6,0,3.8,0,6.4c2.9,0,4.3,0,7.1,0c0,9.2,0,18.4,0,27.7
								c5,0,7.5,0.1,12.5,0.2c0-9.3,0-18.5,0-27.8c2.8,0,4.2,0,7.1,0C290.9,155.3,290.9,154,290.9,151.4z"/>
						</g>
					</g>
					<g>
						<g>
							<path class="st2" d="M342,151.4h-12.6c-0.1,12.9-0.3,25.8-0.4,38.8c7.8,2.1,15.4,4.6,23.1,7.4c0.1-2.8,0.1-4.4,0.2-7.8
								c-4.4-1.4-6.6-2.1-11-3.3C341.5,174.7,341.7,163,342,151.4z"/>
						</g>
					</g>
					<g>
						<g>
							<path class="st2" d="M214.7,151.4c-0.1,12.2-0.1,24.4-0.2,36.6c5-0.9,7.6-1.2,12.5-1.4c0-4.8,0-7.2,0-11.9
								c3.2-0.1,4.9-0.2,8.1-0.3c3.4-2.1,5.1-3.1,8.5-5.1c0-5.1,0-7.7,0-12.8c-3.4-2-5.1-3-8.5-5
								C235.2,151.4,214.7,151.4,214.7,151.4z M231.6,167.9c-1.8,0-2.7,0.1-4.6,0.1c0-4,0-6,0-10c1.8,0,2.7,0,4.6,0
								C231.7,161.9,231.6,163.9,231.6,167.9z"/>
						</g>
					</g>
					<g>
						<g>
							<path class="st2" d="M247.8,185.7c5-0.1,7.6-0.2,12.6-0.2c0-11.4,0-22.7,0-34.1h-12.6C247.8,162.8,247.8,174.3,247.8,185.7z"
								/>
						</g>
					</g>
				</g>
			</g>
			<g>
				<g>
					<path class="st2" d="M311.8,181.3c-2.9-0.2-4.3-0.3-7.2-0.5c-0.4,2.6-0.6,3.8-1,6c-4.8-0.4-7.3-0.5-12.1-0.8
						c2.7-11.5,4.9-23.2,7.4-34.7c7.1,0,10.7,0,17.9,0c3,12.4,5.3,25.1,8.2,37.5c-4.9-0.6-7.3-0.8-12.2-1.3
						C312.4,185.3,312.2,184,311.8,181.3z M307.2,158.6c-0.7,5.9-1.1,9.2-1.8,15.4c2.2,0.1,3.2,0.2,5.4,0.3c-1-6.3-1.5-9.7-2.4-15.7
						C308,158.6,307.7,158.6,307.2,158.6z"/>
				</g>
			</g>
			<path class="st2" d="M367.8,171.1c0.1-4.7,0.1-7,0.2-11.1c2.1,0.1,3.2,0.2,5.3,0.3c-0.1,2.8-0.1,4.4-0.1,7.5
				c4.9,0.6,7.4,0.9,12.4,1.4c0-4.5,0-6.7,0-10.6l9.2-7.3h-17.7l0,0H364c-3.4,2.3-5.1,3.5-8.5,6c-0.1,5.3-0.2,8.5-0.4,14.7
				c3.4,3.5,5.1,5.4,8.5,9.4c3.7,1.2,5.5,1.8,9.3,3.1c-0.1,5-0.1,7.5-0.2,11.9c-2.2-0.7-3.3-1.1-5.4-1.8c0.1-2.7,0.1-4.1,0.1-7.1
				c-5.1-1.4-7.7-2.2-12.6-3.5c-0.1,3.5-0.1,5.2-0.2,8.4c3.2,3.7,4.8,5.5,8,9.1c5.6,2.2,8.5,3.3,14.4,5.6c3.5-1.1,5.3-1.8,8.9-3.8
				v-19c-3.7-4.6-5.4-6.9-8.9-11C373.3,172.4,371.5,172,367.8,171.1z"/>
			<path class="st2" d="M153.4,151.4L153.4,151.4h-17l8.8,7.3c0,0,0,0,0,0c0,14.9,0,29.9,0,44.8c3.4,2.1,5.1,2.8,8.5,3.9
				c5-2,7.5-3,12.6-5c3.3-3.6,5-5.5,8.4-9.3c0.1-5.1,0.1-8.1,0.2-14.1c-4.9,1.1-7.3,1.7-12.2,2.8c-0.1,5.6-0.1,8.4-0.2,13.4
				c-2.2,0.7-3.2,1.1-5.4,1.8c0.1-12.2,0.2-24.4,0.3-36.6c2.2-0.1,3.3-0.2,5.4-0.3c-0.1,4.1-0.1,6.3-0.1,10.8
				c4.8-0.7,7.3-1,12.2-1.7c0.1-5,0.1-7.4,0.2-11.8c-3.3-2.5-4.9-3.8-8.2-6.1L153.4,151.4L153.4,151.4z"/>
		</g>
	</g>
	<g>
		<g>
			<path class="st2" d="M285.4,204.3c0,0,2.3,1.1,4.6,3c0,0,5-2.1,2.9-9.5C293.1,201.3,290.4,203.9,285.4,204.3z"/>
			<path class="st2" d="M237.8,197.5c0,0,4.1,3.7,5.3,4l-2.6,0.4c0,0,4.3,3.2,7,3l-3.5,2.3C244.1,207.1,238.9,202.9,237.8,197.5z"/>
			<path class="st2" d="M241.2,227.7c0,0-0.5,14,5.4,19.8c0,0-5.6-4.9-7.8-13.2L241.2,227.7z"/>
			<path class="st2" d="M289.8,230.2c0,0-1.6,12.7-7.6,18.4c0,0,6.7-4.1,9.1-12.3L289.8,230.2z"/>
			<path class="st3" d="M293.3,194.7c-2.7-0.6-4.9,2-5.6,2.9c-0.7,0.9-1.2,2.3-4.7,3.6c3.6,0.2,9.4-2,10-2.9
				c0.2,1.6,0.2,4.3-2.9,8.9l2.6,2.1C292.6,209.4,297.6,203.2,293.3,194.7z"/>
			<path class="st2" d="M267.6,246.1c0.6,3.4,7.7,3.1,10.3,2s3.4-4.7,3.4-4.7s-0.3,0.3-1.8,1.2s-3.8,1-3.8,1s3.3-1.4,4.8-3.8
				c1.5-2.4,0.9-4.3,0.9-4.3s-1.3,2.7-3.3,4.2c-1.9,1.5-5.7,2.2-5.7,2.2s4.7-2.5,6.1-4.4c1.3-1.9,1.7-4.1,1.7-4.1s-7.2,4.8-6.2,4.1
				c1-0.7,4.7-5,4.7-5l-3.2-0.6l-2.2,1.5l0.1,0.4c0.2,0.6,0.2,1.3-0.1,1.9l-2.1,4.8c-0.1,0.3-0.3,0.6-0.6,0.9L267.6,246.1z"/>
			<path class="st2" d="M270.3,275c-0.7,0.4-2.4,1-4.7,1c-3.1,0-6.1-0.2-7.7-1.5c-2.5-2.2-3.6-5-3.6-5c0,1.4-0.2,3-1,3.9
				c0,0,4.4,2.5,5.1,6.5c0.5,3.1,12.2,3.6,13-0.7c0.8-3.9,2.5-5.8,4.2-5.9c-0.6-1.4-0.7-3.9-0.7-3.9S272.3,273.9,270.3,275z"/>
			<path class="st3" d="M288.9,226.5c0,0,0.1-6.8-5-8.4c0.1,2-1.1,4.1-1.5,4.8c1.5-0.7-0.9,2.3-1,3.4c-0.2,2.2-2,3.8-5.6,4
				c-0.7-0.1-1.1-0.3-1.3-0.3l4.2,3.7c4.2-0.8,5.4-5.8,5.5-6.1c0-0.3,0.4,0.5,0.7,2c0.1,0.2,0.8,5.5,0.1,9.2
				c2.8-5.3,1.9-12.7,1.9-12.7c-0.2-0.8-0.3-1.3-0.4-1.5C286.2,223.9,288.9,226.5,288.9,226.5z"/>
			<path class="st2" d="M252.3,234.2l-0.2,0c0,0,0.7,0.7,1.5,1.7c1.2,1.3,2.7,2.9,3.2,3.3c0.7,0.5-2.4-1.5-4.5-2.9
				c-1-0.7-1.8-1.2-1.8-1.2s0.1,0.6,0.4,1.4c0.3,0.8,0.7,1.8,1.3,2.7c1.3,1.9,6.1,4.4,6.1,4.4s-3.8-0.7-5.7-2.2
				c-1.9-1.5-3.3-4.2-3.3-4.2s-0.6,1.9,0.9,4.3c1.5,2.4,4.8,3.8,4.8,3.8s-2.4-0.1-3.8-1s-1.8-1.2-1.8-1.2s0.9,3.5,3.4,4.7
				s9.6,1.4,10.3-2l-3-2.9c-0.3-0.2-0.5-0.5-0.6-0.9l-2.1-4.8c-0.3-0.6-0.3-1.3-0.1-1.9l0.1-0.4l-1.3-0.9l-0.9-0.6l-2.8,0.5
				L252.3,234.2z"/>
			<path class="st2" d="M235.5,217.8c-1.7,3.5-1,6.6-6.9,11.8c0.3,0.2,1.2-0.2,1.6-0.2c-2.9,3.3-2.6,8.2-2.4,9.5
				c0.5,0.1,2.1-0.9,2.7-1.1c0.5-0.2-1.1,6.4,2.6,12.1c0.4-0.9,1-0.9,1.2-1.9c0.2,0.1,0.5,0.2,0.8,0.4c3.5,2,9.7,8.5,12.2,12.8
				c0.7-0.3,1.6-0.9,1.6-0.9s0.3,1.8,1.6,4.1c0.8,1.6,3.7,4.3,3.7,4.3c-0.3-2.7-1.8-7.7-1.5-10.3c-6.4-2.6-12.3-9.3-13.5-11
				c0.9,0.4,2.2,0.2,2.6,0.5c-0.1-0.1-2-2-3.9-4.4c-1.9-2.4-4-5.3-4.5-7.7c0,0,4.7-6.1,4.8-11.5c0.1-2.4,0.8-5.4,2-8
				c0.8-1.7,1.9-3.3,3.1-4.4C237.6,213.5,235.5,217.8,235.5,217.8z"/>
			<g>
				<path class="st3" d="M276.4,227.3c0.2,0.3,0.5,0.5,0.9,0.5c0.6,0,1-0.4,1-1c0.8-0.3,1.4-1,1.9-1.5c0.1,0.4,0.1,1.8-1.6,2.9
					c-2.1,1.3-3.7-0.4-3.7-0.4C275.5,227.7,276,227.6,276.4,227.3z"/>
				<path class="st2" d="M278.3,226.8C278.3,226.8,278.3,226.7,278.3,226.8c0-0.4-0.2-0.7-0.4-0.9c0.9-0.9,2.3-0.7,2.3-0.7
					s0,0.1,0,0.1C279.7,225.8,279,226.5,278.3,226.8z"/>
			</g>
			<g>
				<path class="st3" d="M254.4,227.3c-0.2,0.3-0.5,0.5-0.9,0.5c-0.6,0-1-0.4-1-1c-0.8-0.3-1.4-1-1.9-1.5c-0.1,0.4-0.1,1.8,1.6,2.9
					c2.1,1.3,3.7-0.4,3.7-0.4C255.3,227.7,254.8,227.6,254.4,227.3z"/>
				<path class="st2" d="M252.5,226.8C252.5,226.8,252.5,226.7,252.5,226.8c0-0.4,0.2-0.7,0.4-0.9c-0.9-0.9-2.3-0.7-2.3-0.7
					s0,0.1,0,0.1C251.1,225.8,251.8,226.5,252.5,226.8z"/>
			</g>
			<path class="st2" d="M254.2,250.1c0,1.2,0.5,4.2,3.5,6.4c-1-3.1,0.3-6.4,0.3-6.4S255.3,250.4,254.2,250.1z"/>
			<path class="st2" d="M275.1,250.1c-1.1,0.4-3.9,0-3.9,0s1.3,3.3,0.3,6.4C274.5,254.3,275,251.3,275.1,250.1z"/>
			<path class="st2" d="M259.4,250.3c0,0,4.6-0.9,6-0.9c1.6,0,5,0.9,5,0.9s0.8,1.8,0.3,2.8c0,0-0.4-1.4-0.9-1.4c-0.2,0-2.8,0-4.5,0
				c-1.8,0-5.6,0-5.7,0c-0.4,0-0.8,1.4-0.8,1.4C258.7,252.4,258.8,250.4,259.4,250.3z"/>
			<g>
				<path class="st2" d="M256.9,271.8l2.5,1.2c-0.3-0.5-2-4-1.6-6.4C255.9,270.6,256.9,271.8,256.9,271.8z"/>
				<path class="st2" d="M271.9,271.8c0,0,1-1.2-0.9-5.2c0.4,2.5-1.3,5.9-1.6,6.4L271.9,271.8z"/>
				<path class="st3" d="M261.9,256.9l3.4,6.2l-0.4-6.3c0,0,3.7,1.3,4.8,5.6c1.1,4.3,0.9,5.2-3.5,5.6c-7.7,0-7.6-1.9-7.6-1.9
					C258.4,262.3,261.9,256.9,261.9,256.9z"/>
				<g>
					<path class="st2" d="M268.4,272.8c0,0-2.2,0.4-4,0.3c-2.3,0-3.5-0.4-3.9-0.5c-0.1,0-0.2-0.1-0.3-0.3c-0.2-0.4-0.5-1.4-0.1-2.3
						c0,0,0.2,1.2,0.6,1.2c0.1,0,7.5-0.1,7.6-0.1c0.4,0,0.7-1.1,0.7-1.1C269.1,270.8,268.9,272.7,268.4,272.8z"/>
				</g>
			</g>
			<path class="st2" d="M283.9,218.1c-1.5,2.3-2.4,4.9-2.4,4.9c0.2,2.9-0.9,4.5-1.6,5.4c-0.2,0.2-0.3,0.3-0.5,0.4
				c-2.3,1.4-4.7,1.1-4.9,1.1c0,0,2.9,1.6,5.7,0c1.4-0.8,1.4-3.4,1.4-3.4C284.7,224.2,283.9,218.1,283.9,218.1z"/>
			<path class="st3" d="M274,203.8c1.2,1.4,1.7,1.9,2.1,3.2c-5-4.1-14.7-5.6-20.8,1c2.9-7,15-8.5,19-8.7c0,0-9.4-4.1-20.8,1.2
				c-0.9,0.4-1.9,0.9-2.9,1.5c-0.8,0.4-4.9-1.2-6.6-3.1c0,0,0,0,0,0c-2.4-2.4-4.2-4.2-6.7-4.2c-1.3,1.4-2,4.5-1.7,7.3
				c0.2,2.9,1,5.8,2.5,7.1c0.8-0.7,2.6-2,2.6-2s-2.2-2-2.8-5.5c-0.1-0.7-0.2-1.4-0.1-2.2c0-0.4,0.2-1.1,0.2-1.5
				c0.2,0.3,0.9,1,1.2,1.3c1.1,1,2.8,1.8,3.4,2c0,0,0.1,0,0.1,0c0.7,0.2-2.2,0.4-2.2,0.4s1.8,2.5,5.8,3.4c0.1,0-3.2,2-10,11.6
				c0.9-1,1.8-1.9,2.9-2.7c1.3-0.9,4.2-2.1,4.2-2.1c0.8-0.7,1.7-1.3,2.7-1.6c-1.5,1.6-2.4,3.4-3,5.1c-1.7,5.3,0,10.5-0.1,11
				c-0.2,0.6,2.4-2.1,2.4-2.1s-0.4,1.3-0.7,3.4c-0.4,2.1-0.6,5.6,0.9,9.5c0.3,0.8,0.7,1.7,1.1,2.5c-0.2-1-0.3-1.9-0.3-2.8
				c-0.2-2.6,0.4-7.2,0.4-7.3c1.2,1.9,3.3,3.1,5.9,3.8l3.9-3.6c-0.6,0.2-3.2,0.7-4.6-0.6c-0.1,0.4-0.2,0.5-0.2,1.1
				c0,0-2.5-0.7-2.3-3.9c-2.2-3.1-1.2-4,0.1-3.6c-0.6-1.5-2.7-4.2-2.3-9c0-0.5,0.1-1.1,0.2-1.7c0,0,0.1-0.5,0.5-1.2
				c-0.2,0.4-0.4,2.2-0.3,2.7c1,6.2,6.4,10.5,6.3,9.9c-0.1-0.7,0.6-1.4-0.3-2.3c1,0.1,2,1.1,3.2,3.8c0.3,0.7,3.4,3,3.4,3l0,0.1
				l2.3,1.6l-3.8-0.7c-0.2,0-0.5,0-0.7,0.1l-1.6,0.7l2,0.4c0.3,0.1,0.6,0.2,0.8,0.4l2.4,2.4l-3-1.4l-0.9-0.3
				c-0.4-0.1-0.8-0.1-1.1,0.2l-1.4,1l1.6,0c0.4,0,0.8,0.1,1.1,0.4l1.2,1.3l-0.3,1.4c-0.1,0.5-0.1,0.9,0.1,1.4l0.6,1.8
				c0.1,0.3,0.3,0.6,0.7,0.8l4.6,2.4c0.5,0.3,1.1,0.3,1.6,0l4.5-2.4c0.3-0.2,0.5-0.4,0.7-0.8l0.6-1.8c0.1-0.4,0.2-0.9,0.1-1.4
				l-0.3-1.4l1.7-1.4c0.2-0.2,0.5-0.3,0.7-0.3l1.5,0l-1.5-1c-0.3-0.2-0.6-0.2-0.9-0.1l-3.9,1.6l2.5-2.4c0.2-0.2,0.4-0.3,0.7-0.4
				l2-0.4l-1.8-0.8c-0.1-0.1-0.3-0.1-0.4-0.1l-3.9,0.7l2.2-1.6l2.4-0.3l0.2-0.1c0,0,0.1-0.1,0.1-0.1c0.2-0.4-0.1-2.1,0.2-2.3
				c0,0,0,0,0,0.1c0.3,0.1,1.7-3,4.1-4.5c-0.7,0.9-0.7,1.9-0.2,2.4c3.9-1.5,5.6-8.2,5.7-10.2C282.9,213.2,281.3,206.7,274,203.8z
				 M263.2,207.9c0.5-1.2,2.2-2.2,2.2-2.2s1.7,0.8,2.2,2.2c5.8,0.5,8.2,3.6,9.2,5.7c-0.5-0.8-6.1-3.8-11.4-1.7
				c-5.8-2.8-10.9,1.9-10.9,1.9C256.3,207.8,263.4,208.1,263.2,207.9z M265.4,220.2c-2.7-3.8-8.9-2.7-11.1-0.7
				c3.3-5.1,9.7-4.5,9.7-4.5l1.4-1.3c0,0,0.6,0.7,1.2,1.4c0.6-0.5,7.1-0.5,10.4,4C276.5,218.4,269.4,215.8,265.4,220.2z"/>
			<path class="st2" d="M257.4,227.7l2.8,0.5c-0.2-1.6-4-6.2-7.4-7.7c0,0,1.1,2.3,0.4,2.5c-0.7,0.2-3.4-3.4-4-4.4
				c0,0-0.1,1.9,1.6,3.9C252.3,224.3,254.9,223.1,257.4,227.7z"/>
			<path class="st2" d="M273.1,227.9l-2.6,0.3c0.5-1.5,4.5-6.3,7.3-7.5c0,0-1.1,2.3-0.4,2.5c0.7,0.2,3.3-3.3,3.8-4.2
				c0,0,0.3,1.8-1.4,3.8C278.2,224.5,275.7,223.3,273.1,227.9z"/>
			<path class="st2" d="M251.7,229c0,0-0.1-0.1-0.1-0.1c0,0-0.1,0-0.1-0.1c-0.8-0.7-2.3-2.5-2.2-5.9c0,0-0.6-3-2.1-5.2
				c0,0-1.2,6.4,2,8.8c0,0-0.5,3.2,2.3,3.9c0,0,2,0.7,4.8-0.5C255.8,230.1,253.2,230.1,251.7,229z"/>
			<path class="st2" d="M293.8,217.8c1.7,3.5,1,6.6,6.9,11.8c-0.3,0.2-1.2-0.2-1.6-0.2c2.9,3.3,2.6,8.2,2.4,9.5
				c-0.5,0.1-2.1-0.9-2.7-1.1c-0.5-0.2,1.1,6.4-2.6,12.1c-0.4-0.9-1-0.9-1.2-1.9c-0.2,0.1-0.5,0.2-0.8,0.4c-3.5,2-9.7,8.5-12.2,12.8
				c-0.7-0.3-1.6-0.9-1.6-0.9s-0.3,1.8-1.6,4.1c-0.8,1.6-3.7,4.3-3.7,4.3c0.3-2.7,1.8-7.7,1.5-10.3c6.4-2.6,12.3-9.3,13.5-11
				c-0.9,0.4-2.2,0.2-2.6,0.5c0.1-0.1,2-2,3.9-4.4c1.9-2.4,4-5.3,4.5-7.7c0,0-4.7-6.1-4.8-11.5c-0.1-2.4-0.8-5.4-2-8
				c-0.8-1.7-1.9-3.3-3.1-4.4C291.7,213.5,293.8,217.8,293.8,217.8z"/>
		</g>
		<g>
			<g>
				<path class="st2" d="M215.9,210.4c0,0,1.2,3.4,0.9,6.2c-0.2,2.7-2.5,5.5-2.5,5.5s3.8-2.3,4-2.4c0.1,0,0.5-4.8,0.6-4.9
					c0.1-0.1-2.6-4.6-2.6-4.6L215.9,210.4z"/>
				<path class="st3" d="M202.2,232.6l-1.5,0.5l-1.2,1.1c0,0,2.1,0.8,3.4-0.8c0.2-0.3,0.4-0.6,0.5-0.8"/>
				<path class="st2" d="M202.2,232.6l-0.7-0.4l1.9-1.2c0,0,0.5,0.5,0,1.5C203.5,232.6,202.9,232.8,202.2,232.6z"/>
				<path class="st2" d="M191.5,245.8c0.8-0.4,5.2-4.2,4.9-4c-0.3,0.2-5.4,1.9-5.1,1.8c0.3-0.1,4-3.6,4-3.6l-3-0.4l-6,1.8
					c-0.2,0.9,0.7,2.9-1.5,5.4c0.8,1.4,3.6,2.3,3.6,2.3s2.6,0.2,6.7-2.2c0.4-0.8,0.9-1.7,1.7-2.4C196.1,245,190.6,246.3,191.5,245.8
					z"/>
				<path class="st3" d="M214.8,208.2c-2.3,0.7-2.9,3.7-3,4.7c-0.1,1,0.1,2.3-2,4.9c2.8-1.4,6.3-5.7,6.4-6.6c0.8,1.2,3,3,1.7,8.1
					l2.9-0.7C220.7,218.6,221.9,212.8,214.8,208.2z"/>
				<path class="st2" d="M191.3,250.6c0.5,1.1,2.3,3.7,5.9,4.4c-2.2-2.5-2.4-6-2.4-6S192.5,250.5,191.3,250.6z"/>
				<path class="st2" d="M208.3,266.5c-0.8-0.7-2.7-2.6-2.7-5.8c1.7,2.3,4.7,3.1,4.7,3.1S209.5,265.9,208.3,266.5z"/>
				<path class="st3" d="M211,249.7l-1.8,3.7l0.1-4c0,0-1.9,1.2-1.9,5.8c0,2.8,0.8,4.7,3,5.7c2-0.7,3.9-4.7,3.9-4.7
					C211.5,254.3,211,249.7,211,249.7z"/>
				<path class="st3" d="M183.5,242.3l-0.8,1.5l1.7,2.4c1-0.9,1-1.9,1.2-3.9C185.5,242.3,184.9,242.3,183.5,242.3z"/>
				<g>
					<path class="st3" d="M221.4,232.6c-0.2,2.6-0.6,7.5,4.9,11.5c-2.1-2.1-3.9-10.8,0.1-15.3c2-2.3,3.4-9,6.5-12.1
						c0.1-0.1,0.3-0.4,0.3-0.4c-5.5,2.9-9.9,5.9-9.7,5.4c0.7-1.1,3.5-6.5,8-8.7c-1.6,0-11.4,3.3-16.5,8.3c0.1-0.6-0.1-2,0.4-3.1
						c-0.1,0.1-7.9,3.1-12.9,7.5c0-0.5,0.5-1.6,0.7-2c-5.5,1.9-10.4,9-10.4,9s0.3,0.9,0.3,1.3c0,0,0,0-0.1,0
						c-0.2,0.1-0.6,0.4-0.6,0.4c-5.4,3.6-8.6,7.1-8.6,7.1l2.5-0.1l5.9-1.8c0.7-0.2,4.8-1.5,5.4-1.9c1.5,3,11.4,4.7,11.6,4.7
						c-2.7,1.1-5.8,1.2-6.2,1.1l-7,3.5c0,0,7.9-3.3,14.7,0.6c3.1,2,5,4,5.1,6.7l0.4-0.7c-0.3-3.3-1.5-6-7.9-9.3c0,0,4.8-0.1,9.4,1.4
						c-0.9-2.3-0.4-7.1,0.5-9.9c1.6-5,0.1-9.9-2.1-13.7C217.6,223.5,221.7,227.8,221.4,232.6z M202.8,236.4c-4.7-1.1-8.1-0.3-8.6,0
						l6.5-6.5l0.1,2c1.8-2.9,2.2-3.4,5.2-4.5C206.6,229.9,206.5,233.2,202.8,236.4z M214.3,225c-1.1,1.2-2.2,4.2-1.9,5.5
						c-3.1,2.1-3.3,8.4-3.3,8.4c-0.9-2.4-0.6-8.3,0-9.6C209.7,228.2,215.4,223.9,214.3,225z"/>
				</g>
				<g>
					<path class="st2" d="M223.9,249.6c0,0,2-0.3,5.1,1.9c-1-1.2-1.7-6.2-1.7-6.2c-5,2.1-7.4-7.1-7.3-8.1c0,0-1.9,6.3,1.6,12.7
						c0,0.1-2.1-2-6.7-3c0,0,6,6.7,1.3,8.4c0,0,0,0,0,0c2.8,8.1-3.1,10.7-3.1,10.7l0.2-3.7c-0.7,0.8-0.9,3.9-4.6,4.9
						c-0.7,1.7,0.6,3.7,0.6,3.7l0.8-1c0,0,2.8,1.9,3,2.2c1.1-1.1,5.3-4.4,7.6-5.6c0-1.1-0.1-4.8,0.3-7.1c1.2-4.3,4-5.3,5.8-5.1
						C226.6,253.2,226,250.8,223.9,249.6z"/>
				</g>
				<path class="st2" d="M194.2,236.4c0.2-3.4,2.8-7.2,7.4-9.6c-0.8,0.8-1.3,1.5-1.3,2.1c0,0,4.8-5.4,14.1-5.4
					c-9.9,2.9-13.6,8.3-13.6,8.3l-0.1-2L194.2,236.4z"/>
				<path class="st2" d="M194.2,236.4c0,0,2.3-1.6,8.7,0c0-0.1-3.9,0.9-3.9,0.9C198.3,236.7,195.9,236.1,194.2,236.4z"/>
				<path class="st2" d="M216.7,233.1l-4.3-2.6c-1.8,0.8-3.1,3.2-3.3,8.4C209.1,239,211.1,235.1,216.7,233.1z"/>
			</g>
			<path class="st2" d="M225.3,250.9c0,0,5.2,1.7,6.5,4.5c3.7,0.6,11.2,6,12.6,9.3c0,0,0-6.2-10.8-11.8c0,0-5.1-2.5-6.4-7.5
				c0,0-2.6,3.8-4.1,3.4c-0.7-0.2-3.2,3.8,1.1,4.8C224,252.8,226.6,251.8,225.3,250.9z"/>
		</g>
		<g>
			<g>
				<path class="st2" d="M313.4,210.4c0,0-1.2,3.4-0.9,6.2c0.2,2.7,2.5,5.5,2.5,5.5s-3.8-2.3-4-2.4c-0.1,0-0.5-4.8-0.6-4.9
					c-0.1-0.1,2.6-4.6,2.6-4.6L313.4,210.4z"/>
				<path class="st3" d="M327.1,232.6l1.5,0.5l1.2,1.1c0,0-2.1,0.8-3.4-0.8c-0.2-0.3-0.4-0.6-0.5-0.8"/>
				<path class="st2" d="M327.1,232.6l0.7-0.4l-1.9-1.2c0,0-0.5,0.5,0,1.5C325.9,232.6,326.4,232.8,327.1,232.6z"/>
				<path class="st2" d="M337.9,245.8c-0.8-0.4-5.2-4.2-4.9-4c0.3,0.2,5.4,1.9,5.1,1.8c-0.3-0.1-4-3.6-4-3.6l3-0.4l6,1.8
					c0.2,0.9-0.7,2.9,1.5,5.4c-0.8,1.4-3.6,2.3-3.6,2.3s-2.6,0.2-6.7-2.2c-0.4-0.8-0.9-1.7-1.7-2.4
					C333.2,245,338.8,246.3,337.9,245.8z"/>
				<path class="st3" d="M314.5,208.2c2.3,0.7,2.9,3.7,3,4.7c0.1,1-0.1,2.3,2,4.9c-2.8-1.4-6.3-5.7-6.4-6.6c-0.8,1.2-3,3-1.7,8.1
					l-2.9-0.7C308.7,218.6,307.5,212.8,314.5,208.2z"/>
				<path class="st2" d="M338.1,250.6c-0.5,1.1-2.3,3.7-5.9,4.4c2.2-2.5,2.4-6,2.4-6S336.9,250.5,338.1,250.6z"/>
				<path class="st2" d="M321.1,266.5c0.8-0.7,2.7-2.6,2.7-5.8c-1.7,2.3-4.7,3.1-4.7,3.1S319.9,265.9,321.1,266.5z"/>
				<path class="st3" d="M318.4,249.7l1.8,3.7l-0.1-4c0,0,1.9,1.2,1.9,5.8c0,2.8-0.8,4.7-3,5.7c-2-0.7-3.9-4.7-3.9-4.7
					C317.8,254.3,318.4,249.7,318.4,249.7z"/>
				<path class="st3" d="M345.9,242.3l0.8,1.5l-1.7,2.4c-1-0.9-1-1.9-1.2-3.9C343.8,242.3,344.5,242.3,345.9,242.3z"/>
				<g>
					<path class="st3" d="M308,232.6c0.2,2.6,0.6,7.5-4.9,11.5c2.1-2.1,3.9-10.8-0.1-15.3c-2-2.3-3.4-9-6.5-12.1
						c-0.1-0.1-0.3-0.4-0.3-0.4c5.5,2.9,9.9,5.9,9.7,5.4c-0.7-1.1-3.5-6.5-8-8.7c1.6,0,11.4,3.3,16.5,8.3c-0.1-0.6,0.1-2-0.4-3.1
						c0.1,0.1,7.9,3.1,12.9,7.5c0-0.5-0.5-1.6-0.7-2c5.5,1.9,10.4,9,10.4,9s-0.3,0.9-0.3,1.3c0,0,0,0,0.1,0c0.2,0.1,0.6,0.4,0.6,0.4
						c5.4,3.6,8.6,7.1,8.6,7.1l-2.5-0.1l-5.9-1.8c-0.7-0.2-4.8-1.5-5.4-1.9c-1.5,3-11.4,4.7-11.6,4.7c2.7,1.1,5.8,1.2,6.2,1.1l7,3.5
						c0,0-7.9-3.3-14.7,0.6c-3.1,2-5,4-5.1,6.7l-0.4-0.7c0.3-3.3,1.5-6,7.9-9.3c0,0-4.8-0.1-9.4,1.4c0.9-2.3,0.4-7.1-0.5-9.9
						c-1.6-5-0.1-9.9,2.1-13.7C311.8,223.5,307.7,227.8,308,232.6z M326.5,236.4c4.7-1.1,8.1-0.3,8.6,0l-6.5-6.5l-0.1,2
						c-1.8-2.9-2.2-3.4-5.2-4.5C322.8,229.9,322.8,233.2,326.5,236.4z M315,225c1.1,1.2,2.2,4.2,1.9,5.5c3.1,2.1,3.3,8.4,3.3,8.4
						c0.9-2.4,0.6-8.3,0-9.6C319.6,228.2,314,223.9,315,225z"/>
				</g>
				<g>
					<path class="st2" d="M305.5,249.6c0,0-2-0.3-5.1,1.9c1-1.2,1.7-6.2,1.7-6.2c5,2.1,7.4-7.1,7.3-8.1c0,0,1.9,6.3-1.6,12.7
						c0,0.1,2.1-2,6.7-3c0,0-6,6.7-1.3,8.4c0,0,0,0,0,0c-2.8,8.1,3.1,10.7,3.1,10.7l-0.2-3.7c0.7,0.8,0.9,3.9,4.6,4.9
						c0.7,1.7-0.6,3.7-0.6,3.7l-0.8-1c0,0-2.8,1.9-3,2.2c-1.1-1.1-5.3-4.4-7.6-5.6c0-1.1,0.1-4.8-0.3-7.1c-1.2-4.3-4-5.3-5.8-5.1
						C302.8,253.2,303.3,250.8,305.5,249.6z"/>
				</g>
				<path class="st2" d="M335.2,236.4c-0.2-3.4-2.8-7.2-7.4-9.6c0.8,0.8,1.3,1.5,1.3,2.1c0,0-4.8-5.4-14.1-5.4
					c9.9,2.9,13.6,8.3,13.6,8.3l0.1-2L335.2,236.4z"/>
				<path class="st2" d="M335.2,236.4c0,0-2.3-1.6-8.7,0c0-0.1,3.9,0.9,3.9,0.9C331.1,236.7,333.5,236.1,335.2,236.4z"/>
				<path class="st2" d="M312.7,233.1l4.3-2.6c1.8,0.8,3.1,3.2,3.3,8.4C320.3,239,318.3,235.1,312.7,233.1z"/>
			</g>
			<path class="st2" d="M304,250.9c0,0-5.2,1.7-6.5,4.5c-3.7,0.6-11.2,6-12.6,9.3c0,0,0-6.2,10.8-11.8c0,0,5.1-2.5,6.4-7.5
				c0,0,2.6,3.8,4.1,3.4c0.7-0.2,3.2,3.8-1.1,4.8C305.3,252.8,302.7,251.8,304,250.9z"/>
		</g>
	</g>
</g>
</svg>
