<?xml version="1.0" encoding="utf-8"?>
<!-- Generator: Adobe Illustrator 26.0.3, SVG Export Plug-In . SVG Version: 6.00 Build 0)  -->
<svg version="1.0" id="katman_1" xmlns="http://www.w3.org/2000/svg" xmlns:xlink="http://www.w3.org/1999/xlink" x="0px" y="0px"
	 viewBox="0 0 800 600" style="enable-background:new 0 0 800 600;" xml:space="preserve">
<style type="text/css">
	.st0{clip-path:url(#SVGID_00000121977963920847896350000005538182161288399542_);}
	.st1{fill:#FFFFFF;}
	.st2{fill:#0156E1;}
	.st3{fill:#4089F2;}
	.st4{fill:url(#SVGID_00000056396977258992846240000016445979876681696400_);}
	.st5{fill:url(#SVGID_00000005262425701120666920000004019661013554302644_);}
	.st6{fill:url(#SVGID_00000116920373229916346650000007835155760403492533_);}
	.st7{fill:url(#SVGID_00000133519650769867650040000002638948870153825695_);}
	.st8{fill:url(#SVGID_00000155849579559158269060000013670130633595532199_);}
	.st9{fill:url(#SVGID_00000141448701093191256900000013942020987605633154_);}
	.st10{fill:url(#SVGID_00000128445769059106832770000005549510522175945919_);}
	.st11{fill:url(#SVGID_00000116196692679763319810000009380926958997773999_);}
	.st12{fill:url(#SVGID_00000093855431785417929010000016049951889371639950_);}
	.st13{fill:url(#SVGID_00000025426533035664482800000000660086540705655425_);}
	.st14{fill:#F18700;}
	.st15{fill:#E30613;}
	.st16{fill:url(#SVGID_00000074427964394274554310000008612626839119582113_);}
	.st17{fill:url(#SVGID_00000168818281972018602840000017388350381771330472_);}
	.st18{fill:url(#SVGID_00000071542220153304234730000003898531776719157932_);}
	.st19{fill:url(#SVGID_00000174562125185076256010000011907114860546138797_);}
	.st20{fill:url(#SVGID_00000108267245928436351960000005142598504917226152_);}
	.st21{fill:url(#SVGID_00000114051481270771450710000008025913017341843111_);}
	.st22{fill:url(#SVGID_00000009555642959084208400000018437518403358253194_);}
	.st23{fill:url(#SVGID_00000126323015042262757540000001063189996850561723_);}
	.st24{fill:url(#SVGID_00000158025842970517305410000009010840287152078233_);}
	.st25{fill:url(#SVGID_00000080887369530375749780000015025028393842405257_);}
</style>
<g>
	<defs>
		<rect id="SVGID_1_" x="94.7" y="127.6" width="610.3" height="344"/>
	</defs>
	<clipPath id="SVGID_00000179627675693860448990000009966928959964771483_">
		<use xlink:href="#SVGID_1_"  style="overflow:visible;"/>
	</clipPath>
	<g style="clip-path:url(#SVGID_00000179627675693860448990000009966928959964771483_);">
		<path class="st1" d="M694.5,137.8c-72.2,17.4-230,55.9-230,55.9l-5.8,1.4v14.7c0,0,0,6-4.1,10.2c-2.9,2.9-7.4,4.4-13.3,4.5H425
			l-4.9-0.6c-5.8-0.7-5.9-2-6.1-4.1v-0.1v-1.2l-0.1-10.1l-0.3-17.3v-2.7l-0.1-10.7l0.1,0.1l-0.1-17.7l-0.1-7.5l-0.1-0.1
			c1.9-2.7,3-5.9,3-9.1c0-8.7-7.3-15.8-16.2-15.8c-8.9,0-16.2,7.1-16.2,15.8c0,3.3,1,6.5,3,9.1l-0.1,0.1l-0.4,25.2l0.1-0.1
			l-0.1,10.7l-0.1,10.1l-0.1,10.1l-0.1,10.1v2c0,0.1-0.1,0.6-0.1,0.6c-0.3,1.1-0.9,2.3-6,2.9l-4.9,0.6h-16.8
			c-16.3-0.2-17.6-11.4-17.6-14.7v-14.7l-5.8-1.4c0,0-157.8-38.3-229.9-55.9l-10.3-2.8l1.3,10.6c0.4,3.7,2.1,7.9,8.8,13l0.5,7.7
			c0.4,6.3,4,36.4,33.7,48.9l-9.7-2.3l2.5,11.5c0.3,1,5,21.6,27.7,33.3l-5.1-0.6l6,12.2c0.6,1.2,15,29.6,44.6,31.6l0.2,1.5
			c0.3,1.7,3.5,16.6,30.6,20.4c5.4,0.7,17.3,1,18.7,1h21.2c-0.4,1.2-0.8,2.5-1.5,4.7l-1.8,5.3c-0.5,1.5-5.8,16.9-6.1,18.2
			c-1.8,5.3-2.5,7.4-4.4,12.5l-1,2.7c-0.8-0.1-1.6-0.1-2.5-0.1c-5.8,0-10.9,1.6-15.3,4.9c-2.9,2.1-6.9,5.9-9.7,12.2
			c-2.9,6.5-2.3,11.2-0.9,14.5l-5.9,2.2l-1.3,2.6c-0.4,0.7-0.6,1.4-1,2.1c-0.3,0.6-0.6,1.2-0.9,1.8c-0.6,1.2-1.3,2.6-2,3.8L220,414
			l0.5,2.6l0.1,0.5l0.6,3.2l2.8,1.7c4,2.5,8.9,2.9,12.3,2.9c7.3,0,13.3-2,18.6-6c0.1-0.1,0.3-0.2,0.4-0.4c0.3,0.4,0.6,0.7,0.9,1
			c5,5.2,12.7,5.2,15.3,5.2c2.5,0,9.2,0,15.5-4.1l2.1,3.6l5.1-0.2c3.4-0.1,4.9-0.1,7.4-0.1h3.3h3.1l2.3-2.1l2.1-2l0.5-2.3
			c0.5-2.7,0.9-4.3,1.6-7.1c1.5-0.2,3.1-0.5,4.9-1.1c-0.4,2-0.8,3.7-1.1,5.5l-0.6,2.9l1.6,2.6l2.5,3.9l4.4-0.2
			c3.6-0.1,4.4-0.1,10.4-0.1h13.2l2.1-0.1l0.4,0.4l3.5-0.1c5.4-0.1,6-0.1,11.3-0.1c-0.3,13-0.5,23.1-0.8,32.4v0.9l0.1,0.7l0.3,1
			l0.3,0.6c3.1,8.2,21.4,11.8,33.5,11.8h0.1h0.1c7.9-0.2,23.3-2.3,31.2-8.8l2.6-2.2v-3.4c0-0.2-0.3-7.9-0.3-7.9
			c-0.3-7.5-0.5-15-0.8-24.8l2-0.1c3.4-0.1,4.9-0.1,7.6-0.1h2.3l0.3,0.2l2.9-0.1c4.3-0.1,5.8-0.1,10.3-0.1h3.5l2.5-2.8l1.3-1.4
			l0.5,1.2l4.3,3.1l7.1-0.1c1.9,0,3.4-0.1,5.8-0.1l0.5,0.4l2.9-0.1c4.3-0.1,4.6-0.1,9-0.1l3.4-0.1l2.3-2.5l1-1.1
			c0.3,0.2,1.4,1.6,1.4,1.6l1.1,0.7l2.1,1.6l2.6-0.1c4.3-0.1,5-0.1,9.4-0.1l4-0.1l1.4-2.1l1.1,0.9l2.1,1.6l2.6-0.1
			c5.1-0.1,6-0.1,11.4-0.1h3.4l2-2.2l0.3,0.1l1.3,0.5c3.8,1.5,8.3,2.3,12.7,2.3c8.6,0,14.4-2.9,17-8.7c1.4-3.1,2.4-8.1-0.9-15.2
			c-2.4-5.3-5.5-8.6-9.3-11.2l1.8-0.9l-2.5-6.3l-1.6-4.1c-0.5-1.1-0.9-2.3-1.4-3.4l-0.9-2.2l-1.1-1.1l-1.5-1.5l-1.5-0.6
			c-1.6-0.7-5.9-2.5-12-2.5c-3.8,0-6.6,0.7-8.9,1.8l0.1-0.2l-0.3-2.6c-0.1-2.5-0.5-5.9-0.8-8.8l-0.3-2.7c-0.4-3.4-0.8-6.9-1.1-10.3
			c-0.5-5.3-1.5-13.1-2.1-18.1c-0.1-0.9-0.1-1.6-0.3-2.5h9.3c1.4,0,13.2-0.2,18.6-1c27.1-3.8,30.3-18.7,30.6-20.4l0.2-1.4h0.5
			c30.3-1.1,45.4-30.3,46-31.7l6-12.2l-5.1,0.6c22.7-11.7,27.5-32.3,27.7-33.3l2.5-11.5l-9.8,2.3c29.7-12.5,33.3-42.6,33.7-48.9
			l0.5-7.9c6.6-5.2,8.4-9.3,8.8-13l1.3-10.6L694.5,137.8z"/>
		<path class="st2" d="M374.4,423.8c-0.3,14.9-0.5,24.8-0.8,33c0,0.1,0,0.2,0.1,0.4c1,2.6,12.4,7.1,26.3,7.1
			c8.5-0.2,20.9-2.5,26.4-7.1c0-0.1,0-0.2,0-0.4c-0.4-10.4-0.6-19.5-1-33c-8.4-0.2-16.8-0.4-25.4-0.4S382.8,423.6,374.4,423.8z"/>
		<path class="st3" d="M399.5,450.5c-6.6,0-13.2-0.7-19.4-2.1c0,1.7-0.1,3.3-0.1,4.9c3.1,1.5,10.7,3.8,20.1,3.8
			c7.5-0.2,15.7-2,20.2-4.2c0-1.5-0.1-3.1-0.1-4.7C413.4,449.6,406.7,450.5,399.5,450.5z"/>
		
			<linearGradient id="SVGID_00000075885129838661716230000009474891120103016075_" gradientUnits="userSpaceOnUse" x1="466.5912" y1="350.8379" x2="681.4468" y2="350.8379" gradientTransform="matrix(1 0 0 -1 -20.9449 604.3622)">
			<stop  offset="0" style="stop-color:#B2B2B2"/>
			<stop  offset="1" style="stop-color:#EDEDED"/>
		</linearGradient>
		<path style="fill:url(#SVGID_00000075885129838661716230000009474891120103016075_);" d="M446.6,274.5l213.9-51.2
			c0,0-5.3,23.8-34,32.3c-88.1,15-167.2,26.4-180.9,28.2L446.6,274.5z"/>
		
			<linearGradient id="SVGID_00000005958560574687322750000016052411120188880808_" gradientUnits="userSpaceOnUse" x1="468.0977" y1="386.6945" x2="707.7729" y2="386.6945" gradientTransform="matrix(1 0 0 -1 -20.9449 604.3622)">
			<stop  offset="0" style="stop-color:#A3195B"/>
			<stop  offset="6.241160e-02" style="stop-color:#B2374C"/>
			<stop  offset="0.1587" style="stop-color:#C75E38"/>
			<stop  offset="0.2618" style="stop-color:#D88026"/>
			<stop  offset="0.3711" style="stop-color:#E69C18"/>
			<stop  offset="0.4888" style="stop-color:#F1B10E"/>
			<stop  offset="0.619" style="stop-color:#F9C006"/>
			<stop  offset="0.7714" style="stop-color:#FEC901"/>
			<stop  offset="1" style="stop-color:#FFCC00"/>
		</linearGradient>
		<path style="fill:url(#SVGID_00000005958560574687322750000016052411120188880808_);" d="M448,261c13.2-1.8,38.2-8.4,50.9-32.3
			c102.3-31,120.8-36.8,122.7-37.5c2.1-0.6,20.1-5.8,38.6-12.9c11.5-4.4,20.2-8.5,26.6-12c-0.4,5.2-3.8,36.1-36,45
			c-33.7,9.3-191.3,54.3-203.7,57.8L448,261z"/>
		
			<linearGradient id="SVGID_00000036959016273234307800000009048604921994442376_" gradientUnits="userSpaceOnUse" x1="446.5317" y1="384.0506" x2="717.1689" y2="384.0506" gradientTransform="matrix(1 0 0 -1 -20.9449 604.3622)">
			<stop  offset="0" style="stop-color:#A3195B"/>
			<stop  offset="3.606470e-02" style="stop-color:#AB2552"/>
			<stop  offset="0.1527" style="stop-color:#C14639"/>
			<stop  offset="0.2781" style="stop-color:#D36224"/>
			<stop  offset="0.4132" style="stop-color:#E17714"/>
			<stop  offset="0.5626" style="stop-color:#EB8609"/>
			<stop  offset="0.7375" style="stop-color:#F18F02"/>
			<stop  offset="1" style="stop-color:#F39200"/>
		</linearGradient>
		<path style="fill:url(#SVGID_00000036959016273234307800000009048604921994442376_);" d="M466.3,200.8v8.7c0,0,0.6,22.1-24.9,22.4
			c-8.1,0-12.9,0-15.8,0l1.3,64h8.1l4.5-43.5c0,0,38.9,0.2,52.6-31.4c111.9-33.8,126.7-38.7,126.7-38.7s75.6-21.5,77.3-37.5
			C624.1,162.5,466.3,200.8,466.3,200.8z"/>
		
			<linearGradient id="SVGID_00000147180528431223000630000008263801398281839012_" gradientUnits="userSpaceOnUse" x1="465.3338" y1="323.2028" x2="653.3637" y2="323.2028" gradientTransform="matrix(1 0 0 -1 -20.9449 604.3622)">
			<stop  offset="0" style="stop-color:#3AAA35"/>
			<stop  offset="8.386690e-02" style="stop-color:#47AD32"/>
			<stop  offset="0.3425" style="stop-color:#69B629"/>
			<stop  offset="0.5883" style="stop-color:#81BC23"/>
			<stop  offset="0.8138" style="stop-color:#90C01F"/>
			<stop  offset="1" style="stop-color:#95C11E"/>
		</linearGradient>
		<path style="fill:url(#SVGID_00000147180528431223000630000008263801398281839012_);" d="M445.3,287.5l187.2-21.1
			c0,0-13.3,26.5-39.5,27.5c-31,0.5-124.6,1.7-148.5,2.1L445.3,287.5z"/>
		
			<linearGradient id="SVGID_00000017489618378278344800000015137792336747918267_" gradientUnits="userSpaceOnUse" x1="447.4099" y1="295.7728" x2="606.1072" y2="295.7728" gradientTransform="matrix(1 0 0 -1 -20.9449 604.3622)">
			<stop  offset="0" style="stop-color:#006633"/>
			<stop  offset="1" style="stop-color:#3AAA35"/>
		</linearGradient>
		<path style="fill:url(#SVGID_00000017489618378278344800000015137792336747918267_);" d="M543.2,300.8
			c-25.7-0.5-76.7,0.2-116.7,0.1l0.4,15.7h116.5c0,0,12.5-0.2,17.7-1c22.3-3.1,24.2-14.2,24.2-14.2L543.2,300.8z"/>
		
			<linearGradient id="SVGID_00000173120407448182914480000012352009542980875661_" gradientUnits="userSpaceOnUse" x1="374.8269" y1="350.8958" x2="160.0971" y2="350.8958" gradientTransform="matrix(1 0 0 -1 -20.9449 604.3622)">
			<stop  offset="0" style="stop-color:#B2B2B2"/>
			<stop  offset="1" style="stop-color:#EDEDED"/>
		</linearGradient>
		<path style="fill:url(#SVGID_00000173120407448182914480000012352009542980875661_);" d="M353,274.5l-213.9-51.3
			c0,0,5.3,23.8,33.8,32.3c88.2,15.1,167.3,26.4,180.9,28.4L353,274.5z"/>
		
			<linearGradient id="SVGID_00000018211969913739664590000000008322147335877550_" gradientUnits="userSpaceOnUse" x1="373.3296" y1="386.9436" x2="133.6546" y2="386.9436" gradientTransform="matrix(1 0 0 -1 -20.9449 604.3622)">
			<stop  offset="0" style="stop-color:#A3195B"/>
			<stop  offset="6.241160e-02" style="stop-color:#B2374C"/>
			<stop  offset="0.1587" style="stop-color:#C75E38"/>
			<stop  offset="0.2618" style="stop-color:#D88026"/>
			<stop  offset="0.3711" style="stop-color:#E69C18"/>
			<stop  offset="0.4888" style="stop-color:#F1B10E"/>
			<stop  offset="0.619" style="stop-color:#F9C006"/>
			<stop  offset="0.7714" style="stop-color:#FEC901"/>
			<stop  offset="1" style="stop-color:#FFCC00"/>
		</linearGradient>
		<path style="fill:url(#SVGID_00000018211969913739664590000000008322147335877550_);" d="M352.4,268.8
			c-12.4-3.6-170-48.5-203.7-57.8c-32.2-8.8-35.6-39.8-36-45c6.4,3.7,15,7.6,26.6,12c18.6,7.2,36.6,12.5,38.7,13
			c2,0.6,20.6,6.5,122.8,37.5c12.7,23.9,37.7,30.5,50.9,32.3L352.4,268.8z"/>
		
			<linearGradient id="SVGID_00000131343741115752793860000016980821903945948576_" gradientUnits="userSpaceOnUse" x1="395.0159" y1="383.9317" x2="124.3781" y2="383.9317" gradientTransform="matrix(1 0 0 -1 -20.9449 604.3622)">
			<stop  offset="0" style="stop-color:#A3195B"/>
			<stop  offset="3.606470e-02" style="stop-color:#AB2552"/>
			<stop  offset="0.1527" style="stop-color:#C14639"/>
			<stop  offset="0.2781" style="stop-color:#D36224"/>
			<stop  offset="0.4132" style="stop-color:#E17714"/>
			<stop  offset="0.5626" style="stop-color:#EB8609"/>
			<stop  offset="0.7375" style="stop-color:#F18F02"/>
			<stop  offset="1" style="stop-color:#F39200"/>
		</linearGradient>
		<path style="fill:url(#SVGID_00000131343741115752793860000016980821903945948576_);" d="M103.4,144.9c1.9,16,77.3,37.5,77.3,37.5
			s14.8,4.8,126.7,38.7c13.9,31.7,52.6,31.4,52.6,31.4l4.5,43.5h8.1l1.3-64c-2.8,0-7.5,0-15.8,0c-25.6-0.2-24.9-22.4-24.9-22.4v-8.7
			C333.3,200.8,175.5,162.5,103.4,144.9z"/>
		
			<linearGradient id="SVGID_00000039131846293422343290000012411841688932950412_" gradientUnits="userSpaceOnUse" x1="376.0798" y1="323.2644" x2="188.176" y2="323.2644" gradientTransform="matrix(1 0 0 -1 -20.9449 604.3622)">
			<stop  offset="0" style="stop-color:#3AAA35"/>
			<stop  offset="8.386690e-02" style="stop-color:#47AD32"/>
			<stop  offset="0.3425" style="stop-color:#69B629"/>
			<stop  offset="0.5883" style="stop-color:#81BC23"/>
			<stop  offset="0.8138" style="stop-color:#90C01F"/>
			<stop  offset="1" style="stop-color:#95C11E"/>
		</linearGradient>
		<path style="fill:url(#SVGID_00000039131846293422343290000012411841688932950412_);" d="M355.1,295.8
			c-23.9-0.4-117.6-1.5-148.5-2.1c-26.2-0.9-39.4-27.4-39.4-27.4l187.2,21.1L355.1,295.8z"/>
		
			<linearGradient id="SVGID_00000145746332412802865830000008605584552081876402_" gradientUnits="userSpaceOnUse" x1="393.638" y1="295.7719" x2="233.5619" y2="295.7719" gradientTransform="matrix(1 0 0 -1 -20.9449 604.3622)">
			<stop  offset="0" style="stop-color:#006633"/>
			<stop  offset="1" style="stop-color:#3AAA35"/>
		</linearGradient>
		<path style="fill:url(#SVGID_00000145746332412802865830000008605584552081876402_);" d="M372.4,316.6h-118c0,0-12.5-0.2-17.7-1
			c-22.3-3.1-24.2-14.2-24.2-14.2l41.9-0.6c26.1-0.5,78,0.2,118.2,0.1L372.4,316.6z"/>
		<path class="st2" d="M394.3,149.7c-1.8-1.6-2.9-3.8-2.9-6.3c0-4.7,3.9-8.5,8.6-8.5c4.8,0,8.6,3.8,8.6,8.5c0,2.5-1.1,4.7-2.9,6.3
			c-2-1.8-3.9-3.8-5.8-5.6C398.1,146,396.3,147.8,394.3,149.7z M400.1,165.2c1.9,1.8,3.9,3.8,5.9,5.6c0-1.5,0-2.9,0-4.4
			c-2-1.8-3.9-3.7-5.8-5.6c-1.9,1.8-3.9,3.8-5.9,5.6v4.4C396.3,169,398.1,167,400.1,165.2z M394.1,181c2-1.8,4-3.8,6-5.6
			c2,1.8,4,3.8,6,5.6c0-1.4,0-2.7,0-4.1c-2-1.8-4-3.7-5.9-5.6c-2,1.8-3.9,3.8-5.9,5.6C394.1,178.3,394.1,179.7,394.1,181z
			 M400.1,154.6c1.9,1.8,3.9,3.8,5.9,5.6c0-1.5,0-2.9,0-4.4c-2-1.8-3.9-3.8-5.8-5.6c-1.9,1.8-3.9,3.8-5.9,5.6v4.4
			C396.3,158.4,398.1,156.4,400.1,154.6z M421.3,316.6c-0.6-21.5-1.4-63.7-2-85.2c-10-1.2-12.2-5.6-12.8-10.6c0,0,0,0-0.1,0
			c0-1,0-2,0-2.9c-2.1-1.8-4.3-3.7-6.3-5.6c-2.1,1.8-4.3,3.8-6.4,5.6v2.9c0,0.5-0.1,0.9-0.3,1.4c2.3-2,4.4-3.9,6.6-5.9
			c2.1,2,4.4,3.9,6.6,5.9c0,3.6,0.1,7.1,0.1,10.7v0.6c0,3.2-3,5.8-6.8,5.8s-6.8-2.6-6.8-5.8c0-0.2,0-0.5,0-0.6
			c0-3.6,0.1-7.1,0.1-10.7c-0.9,4.3-3.5,8.1-12.5,9.1c-0.8,21.5-1.4,63.7-2.1,85.2h42.5V316.6z M393.9,211.7
			c2.1-1.8,4.3-3.8,6.3-5.6c2.1,1.8,4.1,3.8,6.3,5.6c0-1.4,0-2.7,0-4.1c-2.1-1.8-4.1-3.7-6.3-5.6c-2,1.8-4.1,3.8-6.3,5.6
			L393.9,211.7z M394,191.2c2-1.8,4.1-3.8,6.1-5.6c2,1.8,4,3.8,6,5.6c0-1.4,0-2.7,0-4.1c-2-1.8-4-3.7-6-5.6c-2,1.8-4,3.8-6,5.6
			C394,188.5,394,189.8,394,191.2z M393.9,201.5c2.1-1.8,4.1-3.8,6.1-5.6c2,1.8,4.1,3.8,6.1,5.6c0-1.4,0-2.7,0-4.1
			c-2-1.8-4.1-3.7-6.1-5.6c-2,1.8-4,3.8-6.1,5.6C394,198.7,394,200,393.9,201.5z"/>
		<path class="st14" d="M408.9,269.1c0.9,0,1.6,0,2.5,0.1c0.4,0.5,0.8,0.9,1.1,1.4c-0.9-0.1-1.9-0.1-2.8-0.1
			c-10.4,0-19.3,6.5-22.7,15.6C389.4,276.3,398.3,269.1,408.9,269.1z M408.9,267.5h0.5c-0.5-0.4-1-0.7-1.6-1.1
			c-11.2,0-20.3,7.9-22.2,18.3C388.6,274.7,397.9,267.5,408.9,267.5z"/>
		<path class="st15" d="M404.7,265c-5.3-1.6-11.2-0.4-15.4,3.7c-3.5,3.4-5,8.1-4.5,12.6C387.6,272.6,395.4,266.2,404.7,265z"/>
		<path class="st15" d="M413.8,272.4c-1.3-0.2-2.6-0.4-4-0.4c-10.5,0-19.3,7.1-21.8,16.6c0.4,0.5,0.8,0.9,1.1,1.4
			c6,5.9,15.7,6,21.8,0.1C415.8,285.4,416.8,278.1,413.8,272.4z"/>
		
			<linearGradient id="SVGID_00000039121695585800885180000001384320427528462470_" gradientUnits="userSpaceOnUse" x1="421.0834" y1="186.8241" x2="421.0834" y2="229.8103" gradientTransform="matrix(1 0 0 -1 -20.9449 604.3622)">
			<stop  offset="0" style="stop-color:#2B3087"/>
			<stop  offset="0.3038" style="stop-color:#203A9F"/>
			<stop  offset="0.3503" style="stop-color:#1B3FAA"/>
			<stop  offset="0.4768" style="stop-color:#0F49C2"/>
			<stop  offset="0.6103" style="stop-color:#0750D3"/>
			<stop  offset="0.7543" style="stop-color:#0355DE"/>
			<stop  offset="0.9274" style="stop-color:#0156E1"/>
		</linearGradient>
		<path style="fill:url(#SVGID_00000039121695585800885180000001384320427528462470_);" d="M261.9,385.5c-0.9-1.2-2-2.7-5-2.7
			c-2.1,0-4.3,1.2-5.1,3.3c-0.9,2,0,3.3,1.9,5.2c3.5,3.7,6,6,3.5,12.5c-1.5,3.9-4.1,7.1-6.9,9.2c-4.8,3.7-9.5,4.4-13.8,4.4
			c-3.3,0-6.3-0.6-8.3-1.8c0-0.1-0.1-0.4-0.1-0.5c0.8-1.5,1.6-3.1,2.4-4.5c0.6-1.2,1.3-2.6,1.9-3.8c0.1,0,0.4-0.1,0.5-0.1
			c0.5,0.7,2,2.6,6,2.6c4.1,0,6-3.2,6.3-4.1c0.9-2.1-0.3-3.3-1.8-4.9c-0.5-0.5-1.1-1.1-1.6-1.6c-1.8-2-4.3-4.8-1.1-11.4
			c1.9-4.2,4.6-7.2,7.3-9.2c3.3-2.3,6.8-3.4,10.8-3.4c4.6,0,6.8,1.4,7.5,2v0.4c-0.6,1.5-1.4,2.9-2,4.4c-0.6,1.4-1.1,2.7-1.8,4.1
			C262.1,385.4,262,385.5,261.9,385.5z M299.1,375.3c-3.4,0.1-4.4,0.1-8.8,0.1c-0.1,0.1-0.3,0.2-0.4,0.4c-0.9,2.7-1,3.3-1.8,5.6
			c-2,6.1-4,12.8-6.1,18.9c-1.4,4.2-2.8,8.6-6.8,8.6c-0.8,0-1.9-0.1-2.5-1.4c-0.8-1.6,0-3.8,1.8-9.1c2.6-7.6,5.3-15.4,8-23
			c0-0.1-0.1-0.2-0.1-0.4c-5,0.1-6.1,0.1-10.7,0.1c-0.1,0.1-0.3,0.2-0.4,0.4c-1.1,3.4-2,5.8-3.5,9.9c-2.1,5.6-2.4,6.3-3.8,10.3
			c-0.3,0.9-0.6,1.6-0.9,2.5c-2,5.4-3,8.1-3.1,10.4c-0.5,8.5,8.9,8.5,11.5,8.5c2.5,0,9.3,0,14.5-5.2c3.1-3.2,4-6,6.3-13.4
			c0.3-1,0.6-2,0.9-2.8c3.9-12.9,4.8-15.8,6.1-20.4C299.2,375.6,299.1,375.4,299.1,375.3z M327.6,388.7c-0.5,2.2-1.9,9.6-8.9,13.1
			c-3.5,1.7-6.8,1.7-10.2,1.7c-1.8,7.1-2.3,8.7-3,12.9c-0.1,0.1-0.3,0.2-0.4,0.4c-5.3,0-6.5,0-11.5,0.1c-0.1-0.1-0.1-0.2-0.3-0.4
			c4-13.8,5.9-20.1,9.4-32.9c0.9-3.2,1.4-5.2,2-7.7c0.1-0.1,0.3-0.2,0.4-0.4c2.3,0,2.9,0,9.3-0.1h2.1
			C321,375.3,330.2,375.3,327.6,388.7z M314.6,383.4c-0.4,0-0.5,0-1.3,0c-1,3.8-1.9,7.7-2.8,11.5c1,0,1.9,0,2.8-0.4
			c2.3-1.1,3.3-4.2,3.8-6.3C317.7,385.6,317.4,383.4,314.6,383.4z M350.5,399.3c0.6-3.2,0.8-4.4,1.4-7.6c-0.1-0.1-0.1-0.2-0.3-0.4
			c-2.5,0.1-7,0.2-10.3,0.2c0.5-3.3,0.6-4.1,1.3-7.6h4.3h6.1c0.1-0.1,0.3-0.2,0.4-0.4c0.5-2.9,0.6-4.1,1.4-7.9
			c-0.1-0.1-0.1-0.2-0.3-0.4c-2.6,0-3.6,0-12.3,0.1c-5.9,0-6.5,0-8.8,0c-0.1,0.1-0.3,0.2-0.4,0.4c-1,7-2.4,14.7-3.9,22.1
			c-1.8,9.3-2.8,14.2-3.8,18.5c0.1,0.1,0.1,0.2,0.3,0.4c3.8-0.1,4.6-0.1,10.8-0.1h13.2c0.1-0.1,0.3-0.2,0.4-0.4
			c0.6-3.6,0.8-4.7,1.5-8.5c-0.1-0.1-0.3-0.2-0.3-0.4c-3.5,0.2-9.7,0.4-12.4,0.4c0.4-2.8,0.9-5.6,1.4-8.5h10
			C350.2,399.5,350.4,399.4,350.5,399.3z M386.2,416c-0.1,0.1-0.1,0.2-0.3,0.4c-5.5,0.1-6.9,0.2-12.2,0.5c-0.1-0.1-0.3-0.2-0.4-0.4
			c-0.3-0.6-0.4-1.2-0.5-2c-0.8-2.9-1.5-6-2.1-9c-0.4-1.5-0.6-2.8-1-4.3c-0.6,0-1,0-1.6,0c-0.6,7.2-0.8,9.7-0.9,15
			c-0.1,0.1-0.3,0.2-0.4,0.4c-5.4,0-6,0-11.5,0.1c-0.1-0.1-0.3-0.2-0.4-0.4c0.4-2.8,2.1-16.9,2.5-20.1c0.4-3.7,1.5-14.5,1.9-20.6
			c0.1-0.1,0.1-0.2,0.3-0.4c1.9,0,10.8-0.1,12.9-0.1c3,0,6.1,0.1,8.3,1.5c4.1,2.5,4.3,8.4,4.1,10.9c-0.3,7.1-3.8,9.7-5.5,10.9
			c0.6,2,1.4,3.9,2,5.9C382.6,407.1,384,411.4,386.2,416z M373.8,385.1c-0.4-0.9-0.9-1.6-2.5-1.6c-0.5,0-1.1,0-1.6,0.1
			c-0.3,2.7-0.8,7.2-1,9.9c1.3,0.1,2-0.1,2.3-0.1c2.6-0.9,3.1-3.7,3.1-5.3C374.2,387.3,374.2,386.1,373.8,385.1z M426.8,395.7
			c-4.8,0.2-5.6,0.2-10.5,0.1c-0.1,0.1-0.1,0.2-0.3,0.4c0.1,1.4,0.4,3.2,0.5,7.2v4.2c-0.4,0.1-0.9,0.4-1.9,0.4
			c-5.9,0-6.1-8.4-6.3-11.3c0-3.9,0.5-12.9,8.9-12.9c2.3,0,4.8,0.7,6.9,2.7c0.1-0.1,0.3-0.1,0.4-0.2c0-1.4,0.1-2.8,0.1-4.3
			c0-1.6,0.1-3.3,0.1-4.9c-0.1-0.1-0.1-0.2-0.1-0.4c-3-1.6-6.8-2.2-9.8-2.2c-3.4,0-8.6,0.5-12.9,5.6c-2.8,3.4-5,9-5.3,16.5
			c-0.1,5,0.8,10.1,3.3,13.6c4.5,6.8,11.9,7.1,15.8,7.1c4.3,0,8.4-0.6,12.3-2c0.1-0.1,0.1-0.2,0.3-0.4c-0.3-4.3-0.5-7.4-0.8-11.4
			c-0.3-4.2-0.3-5.9-0.3-7.6C427,395.9,426.8,395.8,426.8,395.7z M446.5,416.5c-1.1-8-2-16-2.9-23.9c-0.9-8.7-1.3-13.6-1.5-16.8
			c-0.1-0.1-0.3-0.2-0.4-0.4c-4.9,0.2-6,0.2-10.7,0.1c-0.1,0.1-0.3,0.2-0.3,0.4c0.5,4.2,0.9,8.4,1.4,15.6c0.6,8.5,1.1,16.8,1.6,25.3
			c0.1,0.1,0.3,0.2,0.4,0.2c5-0.1,6.4-0.2,12-0.1C446.4,416.6,446.4,416.6,446.5,416.5z M484.6,416.2c-0.1,0.1-0.1,0.2-0.3,0.4
			c-5,0-6.1,0.1-11.7,0.2c-0.1-0.1-0.3-0.2-0.4-0.2c-1.4-3.9-2.3-6.3-3.6-9.9c-3.1,0-6.1,0-9.3,0c-0.4,3.3-0.6,6.5-0.8,9.8
			c-0.1,0.1-0.3,0.2-0.3,0.4c-4.6,0-6.3,0-10.5,0.1c-0.1-0.1-0.3-0.2-0.4-0.2c0.8-3.7,0.9-4.7,1.9-11.4c0.5-3.3,1-6.5,1.4-9.8
			c0.5-2.9,0.9-5.9,1.3-8.8c0.3-1.5,1-9.1,1.3-10.8c0.1-0.1,0.1-0.2,0.3-0.2c6.4,0,7.4,0,12.7-0.1c0.1,0.1,0.3,0.2,0.4,0.4
			c0.3,0.7,0.6,1.5,1,2.3c4.1,10.1,4.5,10.8,7.3,16.9c1.5,3.4,3,6.9,4.5,10.3c1,2.3,2.6,6,3.8,8.2
			C483.5,413.8,484.4,415.8,484.6,416.2z M465.7,398.3c-0.8-2.2-1.5-4.4-2.3-6.5c-1.5-4.3-1.8-5.4-2.8-8.6c0,3.1-0.1,4.1-0.4,9.1
			c-0.1,2.1-0.4,4.1-0.5,6.1C461.7,398.4,463.7,398.4,465.7,398.3z M498.9,404.9c3.9,4.5,5.9,6.9,9.9,11.7c0.1,0.1,0.4,0.2,0.5,0.4
			c4.5-0.1,5.3-0.1,9.7-0.1c0.1-0.1,0.1-0.2,0.3-0.4c-1-3.3-2.4-7.4-4.6-15.1c-1.3-4.1-6.4-22-7.5-25.5c-0.1-0.1-0.3-0.2-0.4-0.4
			c-2.6,0-4.1,0.1-8,0.1c-0.1,0.1-0.1,0.2-0.2,0.4c0.6,1.7,2.8,9.2,3.3,10.8c1,3.3,2,6.6,2.9,9.8c-2.6-2.9-5.1-5.8-7.6-8.7
			c-6.1-7.4-7.3-8.7-9.7-12.2c-0.1-0.1-0.4-0.2-0.5-0.2c-4.1,0.1-5.4,0.1-9.5,0.1c-0.1,0.1-0.1,0.2-0.3,0.4
			c0.9,3.7,1.8,7.2,2.5,10.9s3.3,15,4.1,19.4c1,4.7,1.5,7.5,2.1,10.4c0.1,0.1,0.3,0.2,0.4,0.4c4.5-0.1,4.8-0.1,9.3-0.1
			c0.1-0.1,0.3-0.2,0.4-0.4c-1.8-6.4-2-6.8-3.8-13.8c-0.8-2.8-1.6-5.6-2.4-8.5C492.8,397.7,495.8,401.2,498.9,404.9z M542,416.5
			c-2.9-7.2-6-15.8-8.6-23.2c-1.5-4.2-2.5-7-3.3-9.3c2.5,0,3.5,0,7.3,0.1c0.1-0.1,0.1-0.2,0.3-0.4c-1.3-3.7-1.5-4.5-2.6-8
			c-0.1-0.1-0.3-0.2-0.4-0.4c-1.5,0-4,0-5.9,0.1c-2,0-3.9,0-5.9,0c-4.4,0-8.7,0-13,0c-0.1,0.1-0.1,0.2-0.3,0.4c1,3.7,1.4,4.8,2.1,8
			c0.1,0.1,0.3,0.2,0.4,0.4c1,0,2.1,0,3.3-0.1c1.4,0,2.8,0,4.1-0.1c0.5,1.4,8.6,26.7,10.3,32.7c0.1,0.1,0.3,0.2,0.4,0.2
			c5.3-0.1,6.3-0.1,11.7-0.1C541.9,416.6,541.9,416.6,542,416.5z M560.6,385.4c-0.5-1.4-1.1-2.7-1.6-4.1c-0.6-1.5-1.1-2.9-1.6-4.4
			c-0.1-0.1-0.3-0.2-0.4-0.4c-1.3-0.5-4.5-2-9.2-2c-4,0-6.6,1.1-7.9,3.4c-1,2-1.1,5,0.4,9.2c2.5,6.8,7.3,9.5,10.7,11.4
			c1,0.5,2,1.1,3,1.6c2.9,1.6,5,2.8,5.9,4.9c0.4,0.9,1.3,4.1-3,4.1c-4,0-7.1-2-8.1-2.6c-0.1,0-0.3,0.1-0.4,0.1
			c0.4,1.4,0.9,2.6,1.4,3.8c0.5,1.5,1,3.1,1.5,4.5c0.1,0.1,0.4,0.4,0.5,0.5c3,1.2,6.5,1.8,9.8,1.8c4.3,0,8.5-0.7,10.2-4.4
			c1-2.1,0.9-5.3-0.9-9.2c-2.9-6.5-7.3-8.8-14-12.5c-3.5-1.8-5.4-3.2-6.3-5.2c-0.9-2.1,0.3-3.3,2.4-3.3c3,0,5.4,1.5,7.3,2.7
			C560.3,385.5,560.5,385.4,560.6,385.4z"/>
		
			<linearGradient id="SVGID_00000049191825608628240710000013124600395211854012_" gradientUnits="userSpaceOnUse" x1="420.964" y1="236.361" x2="420.964" y2="281.5687" gradientTransform="matrix(1 0 0 -1 -20.9449 604.3622)">
			<stop  offset="0" style="stop-color:#2B3087"/>
			<stop  offset="0.3038" style="stop-color:#203A9F"/>
			<stop  offset="0.3503" style="stop-color:#1B3FAA"/>
			<stop  offset="0.4768" style="stop-color:#0F49C2"/>
			<stop  offset="0.6103" style="stop-color:#0750D3"/>
			<stop  offset="0.7543" style="stop-color:#0355DE"/>
			<stop  offset="0.9274" style="stop-color:#0156E1"/>
		</linearGradient>
		<path style="fill:url(#SVGID_00000049191825608628240710000013124600395211854012_);" d="M295.3,323.8c-0.3,0.9-0.5,1.6-0.9,2.5
			c-1.1,3.2-6,19.3-7.3,22.8c-0.5,1.6-1,3.1-1.5,4.7c-0.3,0.9-0.8,2.3-1.3,4.2c3.9,0,7.8-0.1,11.7-0.4c0.1,0.1,0.1,0.2,0.3,0.4
			c-1.4,3.8-1.8,4.9-3,8.8c-0.1,0.1-0.4,0.2-0.5,0.4c-5.8,0-11.7,0-17.4,0c-2.1,0-3.6,0.1-6.4,0.1c-0.1-0.1-0.1-0.2-0.3-0.4
			c1.8-5.2,2.5-7.2,4.4-12.5c0.9-2.6,5.1-15.4,6.1-18.2c0.6-1.7,1.1-3.4,1.8-5.3c1.1-3.4,1.5-4.5,2.3-7c0.1-0.1,0.3-0.2,0.5-0.4
			c5.4,0,6.9,0,11-0.2C295.2,323.6,295.3,323.7,295.3,323.8z M337.3,323.8c-1,4.9-1.6,7.9-4.4,21.5c-0.3,1-0.4,2-0.6,3.1
			c-1.5,7.7-2.1,10.8-5.1,14.1c-4.9,5.5-12,5.5-14.8,5.5c-2.8,0-12.8,0-13-9c-0.1-2.6,0.6-5.4,2.1-11.1c0.3-0.9,0.5-1.7,0.8-2.6
			c1.1-4.3,1.3-4.9,2.9-10.8c1.3-4.5,1.9-6.9,2.8-10.6c0.1-0.1,0.3-0.2,0.4-0.4c4.9,0,6,0,11.3-0.2c0.1,0.1,0.1,0.2,0.3,0.4
			c-2.1,8.1-4,16.2-6,24.2c-1.4,5.5-1.9,7.9-0.9,9.6c0.6,1.2,1.9,1.5,2.8,1.5c4.3,0,5.3-4.7,6.3-9.1c1.5-6.5,3-13.4,4.5-20
			c0.5-2.5,0.6-3.1,1.3-6c0.1-0.1,0.3-0.2,0.4-0.4c4.5,0,5.6-0.1,9.2-0.2C337.2,323.6,337.3,323.7,337.3,323.8z M365,356.3
			c-0.6,4.2-0.9,5-1.5,9.9c-0.1,0.1-0.3,0.2-0.3,0.4c-2,0.9-5.1,1.5-9.3,1.5c-4,0-10.3-0.4-14.2-5.4c-3.4-4.3-3.6-10.4-2.5-16.6
			c0.8-4.1,2.8-12.4,8.9-18.2c4.9-4.5,9.8-5,13.5-5c1.5,0,5.6,0.1,8.4,1.7c0,0.1,0.1,0.2,0.3,0.4c-0.4,1.8-0.6,3.6-0.9,5.3
			c-0.3,1.6-0.5,3.1-0.8,4.7c-0.1,0.1-0.3,0.1-0.4,0.1c-0.9-0.9-2.6-2.6-5.8-2.6c-3.9,0-6,2.2-7,3.7c-1.5,2-2.9,5-3.5,9.5
			c-0.6,4.7,0,8.6,2,10.7c1.8,1.8,3.9,2.1,5.6,2.1c3,0,4.9-0.9,6.9-2.2C364.8,356.1,364.9,356.1,365,356.3z M382,367.2
			c-5.1-0.1-6.6-0.1-12.3,0.2c-0.1-0.1-0.1-0.2-0.3-0.4c0.5-4.3,1.3-11.2,2-19.2c0.3-3.1,1.4-16.3,1.8-23.8c0.1-0.1,0.3-0.2,0.3-0.4
			c4.9,0,6.3,0,10.9-0.2c0.1,0.1,0.1,0.2,0.3,0.4c0,0.7-0.6,9.5-0.8,10.7c-0.3,2.7-0.4,5.3-0.6,8c2.5-4.4,4.8-8.8,7.1-13.3
			c1.4-2.6,1.5-3.1,2.4-5.3c0.1-0.1,0.3-0.2,0.4-0.4c5-0.1,5.8-0.1,10.4-0.2c0,0.1,0.1,0.2,0.1,0.4c-2.1,3.4-2.9,4.8-4.6,7.9
			c-1.9,3.3-3.9,6.6-6,9.8c1.4,3.3,2.8,6.5,4.3,9.8c1.3,2.8,3.4,7.2,4.6,9.9c0.9,1.7,1.8,3.4,2.8,5.2c0,0.1-0.1,0.2-0.1,0.4
			c-6.6,0.2-8.8,0.2-13.7,0.6c-0.1-0.1-0.3-0.2-0.4-0.4c-0.3-0.5-0.4-1.1-0.6-1.6c-2-5.9-2.3-6.6-3.6-10.3c-1.1-2.8-2.3-5.6-3.3-8.5
			c-0.6,12.4-0.8,15.2-0.8,20.1C382.2,367,382.1,367.1,382,367.2z M416.4,343.4c0.3,2.9,0.4,6,0.6,9c0.4,7.4,0.5,7.7,1,14.5
			c-0.1,0.1-0.3,0.2-0.4,0.4c-4.8,0-5.1,0-9.9,0.2c-0.1-0.1-0.3-0.2-0.4-0.4c0-3.2,0.1-6.1,0-11.1c0-4.7-0.3-16.7-0.3-20.5
			c-0.1-3.8-0.3-7.6-0.4-11.4c0.1-0.1,0.3-0.2,0.4-0.4c4.4,0,5.6,0,10-0.2c0.1,0.1,0.3,0.2,0.5,0.2c1.9,3.7,2.6,5,7.6,12.8
			c2,3.1,4.1,6.1,6.1,9.2c-0.4-3.4-0.6-7-1-10.4c-0.1-1.6-0.9-9.6-1.1-11.3c0.1-0.1,0.3-0.2,0.3-0.4c4-0.1,5.6-0.1,8.4-0.2
			c0.1,0.1,0.3,0.2,0.4,0.4c0.4,3.8,2,22.7,2.4,27c0.8,8.1,1.3,12.5,1.6,16c-0.1,0.1-0.2,0.2-0.4,0.4c-4.6,0-5.5,0-10.3,0.2
			c-0.1-0.1-0.3-0.2-0.5-0.4c-3.3-5.2-4.9-7.6-8-12.3C421.1,350.9,418.7,347.1,416.4,343.4z M471,327.5c6,5.6,8,15,8.6,18.2
			c0.5,2.7,0.9,5.4,0.9,8.1c0,2.9-0.6,5.6-2,8c-3.6,6-10.9,6.1-12.9,6.1c-2,0-9.2-0.1-14.5-6c-2.8-3.1-5.3-8.1-6-16.1
			c-0.4-3.4-1.1-12.7,3.1-18.3c3.4-4.5,8.3-4.9,10.8-4.9C460.8,322.7,466.1,322.9,471,327.5z M464.8,335.9c-0.4-0.9-1.9-4.2-4.8-4.2
			c-0.9,0-1.8,0.5-2.4,1.1c-1,1.2-1.5,3.4-1.3,7.6c0.1,1.5,0.3,3.3,0.5,5.3c0.3,1.7,0.5,3.3,0.9,4.9c0.4,1.8,1.4,5.6,3.6,7.4
			c0.8,0.6,1.8,1,2.6,1s1.8-0.4,2.3-1c1.6-1.6,1.5-5.2,1.4-7.4c-0.1-1.7-0.4-3.3-0.6-5C467.1,344.5,466.1,338.9,464.8,335.9z
			 M504.7,339.4c0.3,2,0.4,3.9,0.6,5.9c0.8,7.2,1.5,14.4,2,21.6c-0.1,0.1-0.3,0.2-0.4,0.4c-1.8-0.1-3.5-0.1-5.3-0.1
			c-2.8,0-4.9,0-8.5,0.2c-0.1-0.1-0.3-0.2-0.5-0.4c-0.3-0.9-0.6-1.6-1-2.3c-1.9-4.5-2.1-5-3.9-9.5c-1.4-3.3-2.8-6.8-4-10.1
			c-1.1-2.8-2.3-5.6-3.4-8.5c-3.3-8.1-3.6-9.1-5-12.5c0.1-0.1,0.1-0.2,0.3-0.4c4.9-0.1,5.8-0.1,10.7-0.5c0.1,0.1,0.3,0.2,0.4,0.4
			c1.4,4.1,3.3,9,5,13.5c1.8,4.7,3.5,9.5,5.4,14.2c0.5,1.5,1.1,2.8,1.6,4.3c-0.1-1.4-0.1-2.7-0.3-4.2c-1.1-12.4-1.3-14.6-2.8-27.5
			c0.1-0.1,0.1-0.2,0.3-0.4c5.5,0,6.6-0.1,11.5-0.2c0.1,0.1,0.3,0.2,0.4,0.4c6,14.1,6.9,16.2,11.7,26.7c0.8,1.7,1.5,3.3,2.3,5
			c-1-5.8-1.4-8.2-2.6-17.7c-1.1-8.2-1.4-9.6-2.3-13.8c0.1-0.1,0.1-0.2,0.3-0.4c4.1-0.1,5-0.1,9.2-0.2c0.1,0.1,0.3,0.2,0.4,0.4
			c0.1,1.1,0.3,2.2,0.4,3.3c0.8,5,1.6,13,2.1,18.1c0.4,3.4,0.8,6.9,1.1,10.3c0.3,3.2,0.8,8.2,1,11.3c-0.1,0.1-0.1,0.2-0.3,0.4
			c-1.9-0.1-3.6-0.1-5.4-0.1c-2.6,0-5,0-8.6,0.2c-0.1-0.1-0.4-0.2-0.5-0.4c-0.8-1.6-3.9-9.5-4.6-11.3c-1.1-2.7-2.3-5.3-3.4-7.9
			C507.1,345.1,505.8,342.3,504.7,339.4z"/>
		
			<linearGradient id="SVGID_00000122714950272114728440000008511080272554103684_" gradientUnits="userSpaceOnUse" x1="371.4638" y1="267.0605" x2="371.4638" y2="237.584" gradientTransform="matrix(1 0 0 -1 -20.9449 604.3622)">
			<stop  offset="0" style="stop-color:#36A9E1"/>
			<stop  offset="0.7804" style="stop-color:#2581C4;stop-opacity:0"/>
		</linearGradient>
		<path style="fill:url(#SVGID_00000122714950272114728440000008511080272554103684_);" d="M351.3,337.4c-3.6,0.2-7.1,0.6-10.7,1
			c-1.1,2.8-1.8,5.6-2.3,8c-1.3,6.9-0.5,12.2,2.3,15.6c3.4,4.3,8.6,4.9,13.3,4.9c3.4,0,6.4-0.5,8.4-1.2c0.5-3.6,0.6-4.9,1-7.2
			c-1.5,0.7-3.3,1.2-5.6,1.2c-1.8,0-4.4-0.2-6.5-2.5c-2.3-2.3-3-6.6-2.3-11.8C349.2,341.7,350.2,339.1,351.3,337.4z"/>
		
			<linearGradient id="SVGID_00000014600446746829516320000008782118700815073690_" gradientUnits="userSpaceOnUse" x1="337.5961" y1="265.2535" x2="337.5961" y2="237.6203" gradientTransform="matrix(1 0 0 -1 -20.9449 604.3622)">
			<stop  offset="0" style="stop-color:#36A9E1"/>
			<stop  offset="0.7804" style="stop-color:#2581C4;stop-opacity:0"/>
		</linearGradient>
		<path style="fill:url(#SVGID_00000014600446746829516320000008782118700815073690_);" d="M313.8,341.7c-3.3,0.5-6.6,1.1-9.8,1.6
			c-0.1,0.7-0.4,1.5-0.6,2.5l-0.8,2.6c-1.6,5.8-2.3,8.4-2.1,10.7c0.3,5.3,4,7.7,11.8,7.7c2.5,0,9.3,0,13.8-5
			c2.8-3.1,3.4-5.9,4.9-13.5l0.6-3.1l1.3-6c-2.5,0.2-5.1,0.6-7.6,1c-0.8,3.4-1.5,6.9-2.4,10.2c-1,4.4-2.1,10.1-7.5,10.1
			c-2.3,0-3.3-1.1-3.8-2.1c-1.3-2.2-0.5-4.9,0.8-10.4C312.9,345.7,313.3,343.6,313.8,341.7z"/>
		
			<linearGradient id="SVGID_00000130612883972794993020000016647948365794721181_" gradientUnits="userSpaceOnUse" x1="540.1086" y1="258.232" x2="540.1086" y2="238.2404" gradientTransform="matrix(1 0 0 -1 -20.9449 604.3622)">
			<stop  offset="0" style="stop-color:#36A9E1"/>
			<stop  offset="0.7804" style="stop-color:#2581C4;stop-opacity:0"/>
		</linearGradient>
		<path style="fill:url(#SVGID_00000130612883972794993020000016647948365794721181_);" d="M522.6,355.3l-2.4,0.7
			c-0.8-1.7-1.5-3.3-2.3-5l-1.1-2.6c-0.1-0.2-0.1-0.4-0.3-0.6c-2.6-0.6-5.3-1.2-7.9-1.7c0.3,0.4,0.4,0.9,0.5,1.2l0.4,0.9
			c1,2.3,2,4.7,3,7c0.8,2,3.6,8.7,4.5,10.8c3.3-0.1,5.5-0.2,8.1-0.2h4.4c-0.1-2.2-0.5-5-0.8-7.5l-0.3-2.8c-0.1-1.6-0.4-3.2-0.5-4.9
			c-2.1-0.6-4.4-1.1-6.5-1.7C522,351,522.2,352.8,522.6,355.3L522.6,355.3z"/>
		
			<linearGradient id="SVGID_00000091015730890835271550000005996781603591720080_" gradientUnits="userSpaceOnUse" x1="303.6345" y1="257.7051" x2="303.6345" y2="238.2449" gradientTransform="matrix(1 0 0 -1 -20.9449 604.3622)">
			<stop  offset="0" style="stop-color:#36A9E1"/>
			<stop  offset="0.7804" style="stop-color:#2581C4;stop-opacity:0"/>
		</linearGradient>
		<path style="fill:url(#SVGID_00000091015730890835271550000005996781603591720080_);" d="M275.5,366h16.9c1-3.1,1.4-4.3,2.4-7.1
			c-3.4,0.2-6.9,0.2-10.3,0.2h-1.6l0.4-1.6c0.5-1.8,0.9-3.2,1.3-4.2c0.3-0.9,0.5-1.6,0.8-2.5c0.3-0.7,0.5-1.5,0.8-2.2
			c0.1-0.5,0.4-1.2,0.6-2.1c-3.5,0.7-6.9,1.5-10.3,2.3c-0.9,2.6-1.6,4.9-2,5.8c-1.6,4.8-2.4,7-3.9,11.3h0.6
			C272.7,366.1,273.9,366,275.5,366z"/>
		
			<linearGradient id="SVGID_00000153677646878387097750000009616987952669417899_" gradientUnits="userSpaceOnUse" x1="407.7394" y1="268.9706" x2="407.7394" y2="238.1987" gradientTransform="matrix(1 0 0 -1 -20.9449 604.3622)">
			<stop  offset="0" style="stop-color:#36A9E1"/>
			<stop  offset="0.7804" style="stop-color:#2581C4;stop-opacity:0"/>
		</linearGradient>
		<path style="fill:url(#SVGID_00000153677646878387097750000009616987952669417899_);" d="M402.9,365.7c-0.6-1.2-1.4-2.6-2-3.8
			c-1.3-2.7-3.4-7.1-4.6-10.1c-1.5-3.3-2.9-6.6-4.3-9.8l-0.3-0.6l0.4-0.5c1.1-1.8,2.3-3.7,3.4-5.5c-2.4,0-4.8,0-7,0.1
			c-1.4,2.6-2.8,5-4.1,7.6l-2.4-0.7l0.5-6.8c-3,0.1-6,0.2-8.9,0.4c-0.4,5.2-0.8,9.9-1,12c-0.5,6.1-1.1,11.7-1.6,15.7
			c-0.1,0.9-0.1,1.7-0.2,2.5c3-0.1,4.8-0.1,6.9-0.1h3.4c0-4.3,0.1-7.6,0.8-19.3l2.4-0.4c1,2.8,2.1,5.6,3.3,8.5
			c0.9,2.5,1.3,3.6,2.1,5.9c0.4,1.1,0.9,2.5,1.5,4.3c0.1,0.2,0.3,0.6,0.4,0.9c0,0.1,0.1,0.2,0.1,0.4c3.4-0.1,5.6-0.2,9.4-0.4
			L402.9,365.7z"/>
		
			<linearGradient id="SVGID_00000106842154653247911200000014948193246085512357_" gradientUnits="userSpaceOnUse" x1="515.6017" y1="262.792" x2="515.6017" y2="238.2476" gradientTransform="matrix(1 0 0 -1 -20.9449 604.3622)">
			<stop  offset="0" style="stop-color:#36A9E1"/>
			<stop  offset="0.7804" style="stop-color:#2581C4;stop-opacity:0"/>
		</linearGradient>
		<path style="fill:url(#SVGID_00000106842154653247911200000014948193246085512357_);" d="M484.9,344.7c1.4,3.3,2.6,6.8,4,10.1
			c0.5,1.2,0.9,2.2,1.3,2.9c0.9,2.1,1.3,3.2,2.6,6.5c0.1,0.4,0.3,0.7,0.5,1.1c0.1,0.2,0.3,0.5,0.3,0.7c3.3-0.1,5.3-0.2,8-0.2h4.3
			c-0.6-7.2-1.4-14.4-2-20.6c0-0.1,0-0.1,0-0.2c-1.6-0.4-3.4-0.6-5-1c0.1,2.1,0.4,4.4,0.6,7.2c0.1,1.4,0.1,2.7,0.2,4.2l-2.4,0.5
			c-0.5-1.5-1.1-2.8-1.6-4.3c-0.6-1.7-1.3-3.4-2-5.2c-0.5-1.2-0.9-2.3-1.4-3.6c-2.9-0.5-5.8-1-8.8-1.5
			C484,342.6,484.4,343.6,484.9,344.7z"/>
		
			<linearGradient id="SVGID_00000158007038196604903190000016662675332869233818_" gradientUnits="userSpaceOnUse" x1="483.3085" y1="267.1284" x2="483.3085" y2="237.5967" gradientTransform="matrix(1 0 0 -1 -20.9449 604.3622)">
			<stop  offset="0" style="stop-color:#36A9E1"/>
			<stop  offset="0.7804" style="stop-color:#2581C4;stop-opacity:0"/>
		</linearGradient>
		<path style="fill:url(#SVGID_00000158007038196604903190000016662675332869233818_);" d="M445.8,337.2c-0.3,2.6-0.3,5.5,0.1,8.6
			c0.6,6.6,2.6,11.9,5.8,15.4c3.4,3.7,8,5.5,13.7,5.5s9.7-1.8,11.9-5.5c1.1-2,1.8-4.4,1.9-7.4c0.1-2.3-0.3-4.8-0.8-7.9
			c-0.4-1.8-0.8-3.7-1.4-5.4c-3.3-0.5-6.5-0.9-9.8-1.2c0.8,2.9,1.3,5.9,1.3,6c0.3,1.8,0.5,3.4,0.6,5.2c0.1,3.1,0.1,6.5-1.8,8.4
			c-0.9,0.9-2,1.2-3.1,1.2s-2.4-0.5-3.4-1.2c-2.4-1.8-3.5-5.3-4.1-8.1c-0.4-1.7-0.6-3.3-0.9-5c-0.3-2-0.5-3.8-0.6-5.4
			c0-0.9,0-1.6,0-2.3C452,337.7,448.9,337.5,445.8,337.2L445.8,337.2z"/>
		
			<linearGradient id="SVGID_00000049186240735051862070000004189184627933076369_" gradientUnits="userSpaceOnUse" x1="445.7202" y1="268.8955" x2="445.7202" y2="238.234" gradientTransform="matrix(1 0 0 -1 -20.9449 604.3622)">
			<stop  offset="0" style="stop-color:#36A9E1"/>
			<stop  offset="0.7804" style="stop-color:#2581C4;stop-opacity:0"/>
		</linearGradient>
		<path style="fill:url(#SVGID_00000049186240735051862070000004189184627933076369_);" d="M408.3,335.5c0,1.8,0.1,5.6,0.1,9.6
			c0,4.2,0.1,8.5,0.1,10.8v10.2c3.6-0.1,4.5-0.1,8.1-0.1l-0.3-2.3c-0.3-3.8-0.4-5.3-0.8-11.2c-0.2-2.9-0.4-6-0.6-9l2.4-0.7
			c2.3,3.7,4.8,7.5,7.1,11.3l1,1.5c2.5,3.8,4,6.3,6.9,10.7c4-0.1,5.1-0.1,8.8-0.1l-0.1-0.9c-0.4-3.3-0.9-7.4-1.5-14.2
			c-0.3-2.1-0.6-7.5-1.1-13c0-0.4-0.1-0.9-0.1-1.2c-2.1-0.1-4.4-0.2-6.5-0.4c0.3,3.1,0.6,6.3,0.9,9.3l-2.3,0.7
			c-2.1-3.1-4.3-6.1-6.3-9.2c-0.3-0.5-0.6-1-0.9-1.4C418.2,335.6,413.3,335.5,408.3,335.5z"/>
	</g>
</g>
</svg>
