<?xml version="1.0" encoding="utf-8"?>
<!-- Generator: Adobe Illustrator 25.4.1, SVG Export Plug-In . SVG Version: 6.00 Build 0)  -->
<svg version="1.0"
	 id="svg2" inkscape:version="0.48.2 r9819" sodipodi:docname="New document 1" xmlns:cc="http://creativecommons.org/ns#" xmlns:dc="http://purl.org/dc/elements/1.1/" xmlns:inkscape="http://www.inkscape.org/namespaces/inkscape" xmlns:rdf="http://www.w3.org/1999/02/22-rdf-syntax-ns#" xmlns:sodipodi="http://sodipodi.sourceforge.net/DTD/sodipodi-0.dtd" xmlns:svg="http://www.w3.org/2000/svg"
	 xmlns="http://www.w3.org/2000/svg" xmlns:xlink="http://www.w3.org/1999/xlink" x="0px" y="0px" viewBox="0 0 426 283"
	 style="enable-background:new 0 0 426 283;" xml:space="preserve">
<style type="text/css">
	.st0{fill:#FFFFFF;}
	.st1{fill-rule:evenodd;clip-rule:evenodd;fill:url(#path3005_00000059271384523128845300000006949014287255222932_);}
	.st2{fill:url(#path3018_00000104674570795589517530000011664288068902586287_);}
	.st3{fill:#F79433;}
	.st4{fill:#00A65D;}
	.st5{fill:url(#path3041_00000020378895497871099090000009298088973227872428_);}
	.st6{fill:url(#path3054_00000002382871936436224520000007593791095948341138_);}
	.st7{fill:url(#path3071_00000129900510962408749650000011446225144921984649_);}
	.st8{fill:url(#path3086_00000088119884251865483760000012700687227488518545_);}
	.st9{fill:url(#path3099_00000036962757753578310490000004212131910164089272_);}
	.st10{fill:url(#path3112_00000018233696957060147950000013012576329617643446_);}
	.st11{fill:none;stroke:#50C8F4;stroke-width:7.979842e-03;stroke-miterlimit:2.4366;}
	.st12{fill:#ED1C24;}
	.st13{fill:url(#path3137_00000016054581754164531430000004985378530946503058_);}
	.st14{fill:#ED1B2F;}
	.st15{fill:url(#path3158_00000051358091953957317520000004694327987354970787_);}
	.st16{fill:url(#path3171_00000087381592655654288730000009872713084781257347_);}
	.st17{fill:url(#path3184_00000141420680444282143860000011460092047335442087_);}
	.st18{fill:url(#path3197_00000072990652412226524070000015262145505279810694_);}
	.st19{fill:none;stroke:#000000;stroke-width:7.979842e-03;stroke-miterlimit:2.4366;}
	.st20{fill:url(#path3206_00000150792616576312135910000013466194207994456755_);}
	.st21{fill:url(#path3233_00000136387621885802448350000006528172752876945538_);}
</style>
<g id="layer1" transform="translate(-92.179865,-344.07435)" inkscape:groupmode="layer" inkscape:label="Layer 1">
	<g id="g2988" transform="matrix(0.60914819,0,0,0.60914819,-119.52167,186.42247)">
		<g id="g2990">
			<path id="path2992" inkscape:connector-curvature="0" class="st0" d="M789.4,502.9c43.8-29.3,68.7-66.6,61.3-99.9
				c-12.6-56.3-111.3-82.2-220.4-57.8C521.1,369.5,442.8,435,455.4,491.3c8.5,38.2,56.7,62.4,121,66.4l-8.5-0.1h-14.3l-8.9,33.1
				l-31.9-31.6l1.7-7.3l-37.5,0L451,645.5h60.9l7.8-32.6l32.9,33.4h44.2c0,0,30.6,1.4,47.9-13.4l-3.6,12.2h57.2l9.9-13.4h22.5
				l3.3,12.9h53.8l8.8-33.4l33.9,33.6l55,0.1l9.1-0.4c16.6-1.3,30.3-14.6,30.3-31.3c0,0,1.6-18.6-14.4-27l11.2,0
				c0,0,11.4-0.3,16.4-7.2c2.5-3.5,4.9-8.5,5-13.9l0.3-5.9l-0.2-6.3h-18l13.3-50.1h-145L789.4,502.9L789.4,502.9z"/>
			
				<linearGradient id="path3005_00000138540524702624568100000009467772963483554217_" gradientUnits="userSpaceOnUse" x1="1868.0514" y1="-155.1331" x2="1603.6234" y2="-393.2251" gradientTransform="matrix(0.6091 0 0 -0.6091 -402.9094 286.4052)">
				<stop  offset="0" style="stop-color:#004081"/>
				<stop  offset="0.1156" style="stop-color:#00488A"/>
				<stop  offset="0.4913" style="stop-color:#0061A5"/>
				<stop  offset="0.7996" style="stop-color:#0070B8"/>
				<stop  offset="1" style="stop-color:#0077C0"/>
			</linearGradient>
			
				<path id="path3005" inkscape:connector-curvature="0" style="fill-rule:evenodd;clip-rule:evenodd;fill:url(#path3005_00000138540524702624568100000009467772963483554217_);" d="
				M520.7,541.9c20.6-2.4,47.3-10.9,74.3-28.3c0,0-17.6,2.7-38.1,2c-20.4-0.7-43.6-4.8-54.5-18.3c10.5,6.2,29.7,8.4,58.3,0
				c-2.5-0.6-14-3-23.1-10.6c-9-7.5-15.7-20.1-8.8-40.6c-0.4,10.1,5.8,19.6,24.7,22c-1-3.3-3.9-10.2-1.6-21.2
				c2.3-10.9,9.9-25.7,29.7-45c-8.6,10.8-13.7,23.2-7.3,32.8c3.1-6.3,7.5-14.8,18.1-25.6c10.4-10.6,26.9-23.3,53.9-38.1
				c-14.4,9.4-28.2,21.7-33.5,34.9c8.9-7.9,19-16.1,34.4-24.3c15.3-8.1,35.8-16.3,65.7-24.3c-18.1,6.4-38.1,16.3-53.8,30
				c11.7-5.8,25.5-11.9,43.4-16.2c17.8-4.3,39.7-6.8,67.5-5.4c-19.1,1.1-42.5,5.9-66.3,17c9-1.6,24.4-3.9,41.8-2.4
				c17.4,1.5,37.1,6.7,54.9,20.4c-14.8-6.8-36.4-10.4-64.2-6.1c2.8,0.8,15.5,4.4,26.7,14c11.3,9.7,21.1,25.7,17.5,51.9
				c-2.4-15.8-13-30.3-36.4-37.1c2.2,3.3,5.3,13.1,4.2,26c-1.1,13.1-6.5,29.5-21.5,45.8c-10.4,11.7-19.2,14.8-19.2,14.8
				s6-6.7,10.7-17.3c4.7-10.5,8.2-24.7,3.3-39.7c-4.6,26.3-27.5,48-49.7,62.7c-22.5,15-44.2,22.8-45.3,21.3c0,0,9.3-6.5,20-16.4
				c10.6-9.8,21.5-19.6,27.3-32.8c-31.9,32.3-81.3,52.3-126.7,54.7C533.1,543.5,523.3,542.1,520.7,541.9L520.7,541.9z"/>
			<path id="path3007" inkscape:connector-curvature="0" class="st0" d="M670.8,433.7c-4.1-6.7-17.6-6.3-30.2,0.7
				c-12.7,7.1-19.8,18.4-15.8,25.2c4.1,6.9,17.8,6.5,30.6-0.8C668.1,451.7,674.9,440.3,670.8,433.7L670.8,433.7z"/>
			
				<radialGradient id="path3018_00000160180060544620229780000006532418167505000380_" cx="1779.6826" cy="-391.1749" r="141.7303" gradientTransform="matrix(0.5596 0 0 -0.5596 -345.3853 233.6935)" gradientUnits="userSpaceOnUse">
				<stop  offset="0" style="stop-color:#FFCC32"/>
				<stop  offset="0.35" style="stop-color:#FFCC32"/>
				<stop  offset="0.74" style="stop-color:#ED1B2F"/>
				<stop  offset="1" style="stop-color:#ED1B2F"/>
			</radialGradient>
			
				<path id="path3018" inkscape:connector-curvature="0" style="fill:url(#path3018_00000160180060544620229780000006532418167505000380_);" d="
				M764.5,422.8c-8.2-14.2-22.8-21.3-39.7-23.5c-16.9-2.2-36.1,0.6-53.7,6.3c12.1-4.8,23.3-8.1,30.5-9.2c20.4-7.6,38.7-9.5,52.7-8.4
				c-19.6-4.3-40.3-3.1-59.6,1.5c-19.4,4.7-37.4,12.8-51.7,22.2c9.2-7,18.4-12.8,25.3-15.9c14.9-10.9,32.2-18,47.2-21.9
				c-24,4.2-44.9,11.9-61.8,21.2c-17,9.4-30,20.4-37.7,31c4.2-7.5,9.6-14.2,14.6-18.5c6.9-11.4,19.8-21.2,32.7-28.4
				c-23.1,10.6-40,22.5-50.9,34c-11,11.6-16,22.8-15.1,31.9c-2.1-6-2-11.9-0.1-16.3c-2.6-9,3.5-19.5,12-28.2
				c-17.9,14.9-27.1,28.4-29.3,39.3c-2.2,11.1,2.7,19.4,13,24.1c-8.7-2.3-14.6-5.7-16.6-9c-12.6-3.9-15.2-12.5-13.1-21.1
				c-16.7,33.2,7.3,47.1,42.9,42.5c-13.3,2.9-24.3,3.8-30.3,2.9c-14.9,5.3-33.3,0.3-39.5-5.7c6.1,13.6,20.7,19.4,38.9,19.3
				c18.2-0.1,39.7-6.2,59.4-16c-13.4,7.8-26.1,13.7-34.6,16.1c-5.6,9-43.8,15.3-58.7,15.3c15.3,3.2,35.8,2.5,53.4-1.5
				c27.5-6.3,53.5-23.2,73.6-42.4c0,0,0.1-0.1,0.1-0.1c0,0.1-0.1,0.1-0.1,0.1c-6.1,9.1-35.6,32-35.6,32c-2.3,9-29.2,21.4-57.4,34.7
				c31.7-7.9,66-22.2,90.5-44.4c12-10.8,18.9-20.2,22.8-27.3c5.4-9.8,5.3-15.7,5.3-15.7s0,0,0,0c1.6,11.6-4.6,23-4.6,23
				c-2.6,28.9-28.8,46.8-28.8,46.8c6-3.4,13.3-8.5,13.3-8.5c22.8-18.7,34.6-35.9,38.4-50c3.7-14-0.5-25.2-9.7-32
				c8.2,4.1,13.9,9.1,15.6,13.5c14.2,8.2,17.2,21.4,14.2,34.6c10.3-21.6,8.7-37,0.4-47c-8.2-9.9-23-14.7-39.6-14.9
				c12-0.8,22.2-0.3,27.8,1.3C742.2,409.7,756.3,415.2,764.5,422.8L764.5,422.8L764.5,422.8z M668.8,464.3L668.8,464.3L668.8,464.3
				L668.8,464.3z M652.9,455.9L652.9,455.9c-12.8,7.1-26.5,7.4-30.5,0.8c-4-6.6,3.1-17.6,15.8-24.6c12.6-6.9,26.1-7.2,30.2-0.7
				C672.5,437.9,665.6,448.9,652.9,455.9z"/>
			<path id="path3020" inkscape:connector-curvature="0" class="st3" d="M768.6,403.4c47.4,12.6,51.2,64.8-12.4,92.5
				c52.8-30.8,39.7-76.2,12.3-92.3L768.6,403.4L768.6,403.4z"/>
			<path id="path3022" inkscape:connector-curvature="0" class="st4" d="M762.2,503.4c74.7-26.4,97.8-132.6,1.1-129
				c55.8-18,83.1,15.2,74.4,54.3c-4.5,20.3-17.4,38.1-33.2,51.3C791.9,490.6,777.1,498.6,762.2,503.4z"/>
			<path id="path3024" inkscape:connector-curvature="0" class="st4" d="M538.6,495.1c-54.4-8.8-47.7-69.4,22.3-91.2
				c-61.6,29.4-55.8,83-22.2,90.9L538.6,495.1L538.6,495.1z"/>
			<path id="path3026" inkscape:connector-curvature="0" class="st3" d="M553.8,393.9c-77.1,18.1-114.7,123-18.2,129.9
				c-83.1,17.1-94.6-65.1-28.1-109.6c9.9-6.6,21-12.2,32.3-16.2C544.4,396.3,549,395,553.8,393.9L553.8,393.9z"/>
			<polygon id="polygon3028" class="st0" points="739.7,505.6 711.6,524.6 711.5,524.4 694.1,506.3 682.3,549.8 694.7,549.8 
				700.5,528.5 708.7,537.3 721.1,529 715.4,549.8 727.9,549.8 			"/>
			
				<linearGradient id="path3041_00000003099789911258699460000000004828086086577047_" gradientUnits="userSpaceOnUse" x1="1904.5071" y1="-430.3955" x2="1904.3099" y2="-392.7166" gradientTransform="matrix(0.6091 0 0 -0.6091 -402.9094 286.4052)">
				<stop  offset="0" style="stop-color:#003B7A"/>
				<stop  offset="0.1838" style="stop-color:#004080"/>
				<stop  offset="0.4834" style="stop-color:#004D90"/>
				<stop  offset="0.8594" style="stop-color:#0062AA"/>
				<stop  offset="1" style="stop-color:#006CB7"/>
			</linearGradient>
			
				<path id="path3041" inkscape:connector-curvature="0" style="fill:url(#path3041_00000003099789911258699460000000004828086086577047_);" d="
				M750,548.6c-5.9,0-10.8-1.6-13.7-4.6c-2.9-2.8-3.8-6.7-2.7-10.9l6-22.1h8.4l-5.5,20.2c-1,3.7-0.4,6.9,1.8,9.1
				c1.7,1.7,4.3,2.6,7.5,2.6c7.2,0,13.5-4.7,15.3-11.3l5.6-20.6h8.4l-5.9,21.7C772.7,541.8,761.9,548.6,750,548.6L750,548.6
				L750,548.6z"/>
			
				<linearGradient id="path3054_00000039824777868448508790000014299067843391399091_" gradientUnits="userSpaceOnUse" x1="2112.2305" y1="-429.192" x2="2112.0371" y2="-392.2547" gradientTransform="matrix(0.6091 0 0 -0.6091 -402.9094 286.4052)">
				<stop  offset="0" style="stop-color:#003B7A"/>
				<stop  offset="0.1838" style="stop-color:#004080"/>
				<stop  offset="0.4834" style="stop-color:#004D90"/>
				<stop  offset="0.8594" style="stop-color:#0062AA"/>
				<stop  offset="1" style="stop-color:#006CB7"/>
			</linearGradient>
			
				<path id="path3054" inkscape:connector-curvature="0" style="fill:url(#path3054_00000039824777868448508790000014299067843391399091_);" d="
				M897.1,547.7l-1.7-7.1h-19.9l-5.5,7.1h-8.7l24-29.4l6.1-7.5H902l-2.6,3.2l0,0.1c-0.7,1-1,2.2-0.8,3.4l0,0.1l7.7,30.1L897.1,547.7
				L897.1,547.7z M879.6,535.3h14.6l-3.4-14.5L879.6,535.3L879.6,535.3z"/>
			<polygon id="polygon3056" class="st0" points="930.4,508.8 917.9,508.8 917.9,508.8 906.9,549.6 919.3,549.6 			"/>
			<path id="path3058" inkscape:connector-curvature="0" class="st0" d="M867.6,521c1.1-4.2-0.4-6.9-1.9-8.4
				c-2.3-2.3-6.1-3.6-10.7-3.6h-26.6l-11.1,40.8h29.1c9.4,0,17.3-5,19.3-12.1c1.1-4.1-0.3-7.5-3.8-9.6
				C864.8,526.4,866.8,523.9,867.6,521z M853.5,536.7c-0.5,2-3.2,3.5-6.2,3.5h-14.9l1.8-6.5h15.7c1.4,0,2.6,0.4,3.2,1
				C853.7,535.4,853.6,536.1,853.5,536.7L853.5,536.7z M855.1,521c-0.4,1.6-2.2,3.1-5.2,3.1h-13.1l1.5-5.5h14c0.8,0,2,0.1,2.5,0.7
				C855.3,519.9,855.2,520.7,855.1,521L855.1,521z"/>
			
				<linearGradient id="path3071_00000139981529954033030650000003133881282943985081_" gradientUnits="userSpaceOnUse" x1="2045.434" y1="-429.2226" x2="2045.2405" y2="-392.2707" gradientTransform="matrix(0.6091 0 0 -0.6091 -402.9094 286.4052)">
				<stop  offset="0" style="stop-color:#003B7A"/>
				<stop  offset="0.1838" style="stop-color:#004080"/>
				<stop  offset="0.4834" style="stop-color:#004D90"/>
				<stop  offset="0.8594" style="stop-color:#0062AA"/>
				<stop  offset="1" style="stop-color:#006CB7"/>
			</linearGradient>
			
				<path id="path3071" inkscape:connector-curvature="0" style="fill:url(#path3071_00000139981529954033030650000003133881282943985081_);" d="
				M819.9,547.8l10-36.9H855c4.1,0,7.4,1.1,9.4,3c1.6,1.6,2.1,3.8,1.4,6.5c-0.6,2.4-2.4,4.5-4.8,6l-2.9,1.7l2.9,1.7
				c2.8,1.6,3.8,4.2,2.9,7.4c-1.7,6.3-8.8,10.7-17.4,10.7H819.9L819.9,547.8z M829.9,542.2h17.4c3.9,0,7.3-2.1,8.1-5
				c0.4-1.5,0.1-2.9-1-3.9c-1-1-2.6-1.5-4.6-1.5h-17.2L829.9,542.2L829.9,542.2z M834.2,526.1h15.7c4.1,0,6.5-2.3,7.1-4.6
				c0.4-1.4,0.1-2.7-0.9-3.6c-0.8-0.9-2.2-1.3-3.9-1.3h-15.5L834.2,526.1z"/>
			<polygon id="polygon3073" class="st0" points="805.4,549.8 817.9,549.8 828.9,509 825,509 801.6,524.6 786.7,509 783.3,509 
				772.3,549.8 784.7,549.8 790.5,528.5 798.8,537.3 811.1,529 			"/>
			
				<linearGradient id="path3086_00000103956622754538478590000006131651169196827043_" gradientUnits="userSpaceOnUse" x1="2166.4893" y1="-437.8975" x2="2166.4893" y2="-401.1196" gradientTransform="matrix(0.6091 -3.167571e-03 -3.167571e-03 -0.6091 -402.2985 287.7523)">
				<stop  offset="0" style="stop-color:#003B7A"/>
				<stop  offset="0.1838" style="stop-color:#004080"/>
				<stop  offset="0.4834" style="stop-color:#004D90"/>
				<stop  offset="0.8594" style="stop-color:#0062AA"/>
				<stop  offset="1" style="stop-color:#006CB7"/>
			</linearGradient>
			
				<path id="path3086" inkscape:connector-curvature="0" style="fill:url(#path3086_00000103956622754538478590000006131651169196827043_);" d="
				M918.5,546.4c0,0,0-0.2,0.1-0.5l9.4-35.1l-8.2,0l-10.3,36.8h0.3l8.3,0l0,0h0h1.2C918.6,547.3,918.5,546.9,918.5,546.4
				L918.5,546.4z"/>
			
				<linearGradient id="path3099_00000080204026219948457810000000915067268382984636_" gradientUnits="userSpaceOnUse" x1="1975.8876" y1="-429.3933" x2="1975.6935" y2="-392.3233" gradientTransform="matrix(0.6091 0 0 -0.6091 -402.9094 286.4052)">
				<stop  offset="0" style="stop-color:#003B7A"/>
				<stop  offset="0.1838" style="stop-color:#004080"/>
				<stop  offset="0.4834" style="stop-color:#004D90"/>
				<stop  offset="0.8594" style="stop-color:#0062AA"/>
				<stop  offset="1" style="stop-color:#006CB7"/>
			</linearGradient>
			
				<path id="path3099" inkscape:connector-curvature="0" style="fill:url(#path3099_00000080204026219948457810000000915067268382984636_);" d="
				M816.8,546.8c0,0,0-0.2,0-0.4l1.3-4.8l8.3-30.5h-0.7l-24.3,16.2L785.9,511h-1l-10,36.9h8.4l6.3-23.3l9.5,10.2l15.3-10.4
				l-6.4,23.6l8.4-0.1l1.1,0C816.8,547.5,816.8,547.2,816.8,546.8L816.8,546.8z"/>
			
				<linearGradient id="path3112_00000096746914983439720290000007049642257128367272_" gradientUnits="userSpaceOnUse" x1="1828.5553" y1="-429.3357" x2="1828.3567" y2="-391.3875" gradientTransform="matrix(0.6091 0 0 -0.6091 -402.9094 286.4052)">
				<stop  offset="0" style="stop-color:#003B7A"/>
				<stop  offset="0.1838" style="stop-color:#004080"/>
				<stop  offset="0.4834" style="stop-color:#004D90"/>
				<stop  offset="0.8594" style="stop-color:#0062AA"/>
				<stop  offset="1" style="stop-color:#006CB7"/>
			</linearGradient>
			
				<path id="path3112" inkscape:connector-curvature="0" style="fill:url(#path3112_00000096746914983439720290000007049642257128367272_);" d="
				M726.7,546.8c0,0,0-0.1,0-0.1l10.2-36.8l-25.5,17.3l-16.3-17l-10.2,37.7h8.4l6.3-23.3l9.5,10.2l15.3-10.4l-6.4,23.5h0.4l0,0h0.1
				h4.8h3h0.1l0,0h1.1C726.7,547.5,726.7,547.2,726.7,546.8L726.7,546.8z"/>
			<path id="path3118" inkscape:connector-curvature="0" class="st12" d="M650.2,623.1l-4.9,18.6h50.8l9.9-13.2h27.5l3.2,12.7h48.9
				l9.4-35.9l36.9,36.3h50.4l9.1-0.4c16.6-1.3,30.3-13.3,30.3-30c0-4.7-1.1-9.1-3-13c0,0-5.2-13.2-25.5-12.3c0,0-8.4-0.1-10.5,0
				c-2,0.1-3.5-0.1-3.5-0.1c0.6,0-0.5,0-0.6-0.6c-0.1-0.4,0.2-0.9,0.6-1.1c0,0,1.8-1.4,10.3-1.4c8.4,0,28.7,0,28.7,0
				s12.1,0.7,17.1-6.2c2.9-4.1,4.4-9.2,4.5-14.6v-5.5l-46.3,0.1c0,0-20.5-0.7-32.2,8.5l1.3-5h-30l-9.5,35.8l-35.6-35.4h-4.4
				l39.8,39.5c0,0,0.9,0.8,1.9,0.5c0.9-0.2,1.2-0.8,1.4-1.6c0.2-0.8,9.3-35.7,9.3-35.7h23l-3.9,14.6c0,0,6.4-18.7,39-18.1
				c9.1,0.2,42.8,0,42.8,0l0,2.3c-0.1,4.9-1.6,9.4-4.2,13.1c0,0-4.2,5-14.5,4.3h-28.4c-10.3,0-13,3.1-13,3.1
				c-0.9,0.7-1.4,1.7-1.4,2.9c0,2,1.9,3.1,3.8,3.2c0,0,8.6,0.8,14.3,0.4c5.7-0.4,16.9,1,21.8,9.8c2.1,3.7,3.1,8,3.1,12.5
				c0,14.9-12.2,26-28.5,27.1l-55.7,0.1l-37.8-36.8c0,0-1-1.6-2.3-1.3c-1.3,0.3-1.4,2.1-1.4,2.1l-9,35.6h-44.3l-3.3-12.8h-31.4
				l-10,13.2h-45.1l8.6-32.6c0,0-10.6,31-55.2,32.9l-46.8,0.2l-37.6-36.5c0,0-0.5-1.2-1.7-0.9c-1.2,0.3-1.5,2.6-1.5,2.6l-8.8,34.3
				h-46l22.3-79.3l26,0l1-3.5h-29.4L456.1,642h52.6l9.3-35.7l36.5,35.9h40.9C595.4,642.2,631,644.6,650.2,623.1"/>
			<path id="path3120" inkscape:connector-curvature="0" class="st12" d="M506.3,562.1l39.4,38.8c0,0,0.7,0.9,1.8,0.6
				c1.2-0.2,1.4-1.8,1.4-1.8l9.5-35.4h57.8c0,0,13-0.9,24.6,3.3c11.6,4.1,22,15.8,19.5,29.8l8.9-33.5h23l-18.5,69l56.1-69.4h28.4
				l-8.2,10.1c0,0-3.4,3-1.5,7.6l13.2,50.7l19.3-71.6h-3.5l-15.7,59.2l-10.1-38.6c0,0-1.4-3.1,1.6-6.2l11.4-14.1h-36.7l-47.4,58.6
				l15.5-58.6h-29.5l-5.6,21.1c0,0-4.5-11.5-19.4-16.8c-13.6-4.8-25.7-3.5-25.7-3.5h-60.3l-9.5,35.5l-35.4-34.8L506.3,562.1
				L506.3,562.1z"/>
			<path id="path3122" inkscape:connector-curvature="0" class="st0" d="M604.2,618c14.5-0.1,27-7.6,29.7-17.9
				c0.8-2.8,1-6.9-2.4-10.2c-3.1-3.1-8.4-4.7-15.4-4.6l-15.1,0l-8.7,32.8L604.2,618L604.2,618z"/>
			<path id="path3124" inkscape:connector-curvature="0" class="st0" d="M652.7,575.3c-5.1-5.1-15.1-11-33.5-10.9l-38.9,0.2
				l-19.6,74.3l40.2-0.1c28.5,0.1,52.9-16,58.4-36.9C662.1,591.6,659.8,582.2,652.7,575.3L652.7,575.3z M637,600.8
				c-3.1,11.8-16.9,20.3-32.8,20.4l-16.1,0l10.5-39.4h17.6c7.8-0.1,13.9,1.9,17.7,5.6C637.3,590.8,638.4,595.6,637,600.8L637,600.8z
				"/>
			
				<linearGradient id="path3137_00000183236284149810631090000010929354126707862192_" gradientUnits="userSpaceOnUse" x1="1450.5945" y1="-577.3597" x2="1450.5945" y2="-504.0666" gradientTransform="matrix(0.6091 -3.167571e-03 -3.167571e-03 -0.6091 -402.2624 288.3383)">
				<stop  offset="0" style="stop-color:#003B7A"/>
				<stop  offset="0.1838" style="stop-color:#004080"/>
				<stop  offset="0.4834" style="stop-color:#004D90"/>
				<stop  offset="0.8594" style="stop-color:#0062AA"/>
				<stop  offset="1" style="stop-color:#006CB7"/>
			</linearGradient>
			
				<path id="path3137" inkscape:connector-curvature="0" style="fill:url(#path3137_00000183236284149810631090000010929354126707862192_);" d="
				M484.1,635.4c-1.5-0.5-1.6-1.4-1.6-2.4c0,0,0-0.5,0.1-0.9l18.6-70h-16l-20.4,73.3H484.1z"/>
			<path id="path3139" inkscape:connector-curvature="0" class="st14" d="M637,600.8c-3.1,11.8-16.9,20.3-32.8,20.4l-16.1,0
				l10.5-39.4h17.6c7.8-0.1,13.9,1.9,17.7,5.6C637.3,590.8,638.4,595.6,637,600.8L637,600.8z"/>
			<path id="path3141" inkscape:connector-curvature="0" class="st0" d="M604.2,618c14.5-0.1,27-7.6,29.7-17.9
				c0.8-2.8,1-6.9-2.4-10.2c-3.1-3.1-8.4-4.7-15.4-4.6l-15.1,0l-8.7,32.8L604.2,618L604.2,618z"/>
			<polygon id="polygon3143" class="st12" points="731.7,608.3 717.5,608.3 728.4,594.9 			"/>
			<path id="path3145" inkscape:connector-curvature="0" class="st14" d="M897.1,610.4c-2-1.8-3.6-1.7-8.6-1.6l-6.7,0
				c-5.8-0.2-10.8-1.1-15.8-3c-3.1-1.2-6.3-3.2-6.4-3.3c-6.8-4.9-7.4-10.9-7.2-14.2c0-0.4,0-1,0.1-1.8l-9.2,34.4
				c2.6-1.9,5.8-3,9.2-3l32.4,0.8c3.1-0.3,11.5,0,12.7-4.5C897.9,613.2,897.8,611,897.1,610.4L897.1,610.4z M885,615.5l-32.4-0.8
				c-1.7,0-3.4,0.2-4.9,0.7l4.4-16.5c1.3,2,3.3,4,6,5.8c8.1,5.4,17.5,6.7,23.7,6.9l6.9,0.1c3.9,0,5.8-0.3,6.1,0.8
				C895.3,614.9,892.2,615.4,885,615.5z"/>
			
				<linearGradient id="path3158_00000083803783238046303190000015111563654236399527_" gradientUnits="userSpaceOnUse" x1="1835.3418" y1="-577.821" x2="1835.3418" y2="-510.1055" gradientTransform="matrix(0.6091 -3.167571e-03 -3.167571e-03 -0.6091 -402.2624 288.3383)">
				<stop  offset="0" style="stop-color:#003B7A"/>
				<stop  offset="0.1838" style="stop-color:#004080"/>
				<stop  offset="0.4834" style="stop-color:#004D90"/>
				<stop  offset="0.8594" style="stop-color:#0062AA"/>
				<stop  offset="1" style="stop-color:#006CB7"/>
			</linearGradient>
			
				<path id="path3158" inkscape:connector-curvature="0" style="fill:url(#path3158_00000083803783238046303190000015111563654236399527_);" d="
				M741.7,634.4l-3.1-12.9l-35.8,0.2l-10,13l-16.6,0.1l43.8-54.2l11.1-13.8l20-0.1L746,573l-0.1,0.1c-1.2,1.8-1.7,3.9-1.5,5.9l0,0.2
				l14.4,55.1L741.7,634.4L741.7,634.4z M710.7,611.3l25.6-0.1l-6-25.2L710.7,611.3z"/>
			
				<linearGradient id="path3171_00000120529870823170208360000006513243584346965658_" gradientUnits="userSpaceOnUse" x1="1660.6056" y1="-577.8333" x2="1660.6056" y2="-510.1052" gradientTransform="matrix(0.6091 -3.167571e-03 -3.167571e-03 -0.6091 -402.2624 288.3383)">
				<stop  offset="0" style="stop-color:#003B7A"/>
				<stop  offset="0.1838" style="stop-color:#004080"/>
				<stop  offset="0.4834" style="stop-color:#004D90"/>
				<stop  offset="0.8594" style="stop-color:#0062AA"/>
				<stop  offset="1" style="stop-color:#006CB7"/>
			</linearGradient>
			
				<path id="path3171" inkscape:connector-curvature="0" style="fill:url(#path3171_00000120529870823170208360000006513243584346965658_);" d="
				M564.8,635.3l18-67.8l36.4-0.2c17.3-0.1,26.5,5.4,31.1,10c6.2,6.1,8.2,14.4,5.8,23.4c-5.2,19.5-28.9,34.3-55.3,34.4L564.8,635.3z
				 M583.7,624.2l20.4-0.1c17.3-0.1,32.5-9.7,36-22.8c1.7-6.4,0.2-12.3-4.1-16.5c-4.4-4.3-11.3-6.6-20-6.5l-20.1,0.1L583.7,624.2
				L583.7,624.2z"/>
			
				<linearGradient id="path3184_00000145016317787088940590000006661913854432281987_" gradientUnits="userSpaceOnUse" x1="1758.637" y1="-577.8281" x2="1758.637" y2="-510.0972" gradientTransform="matrix(0.6091 -3.167571e-03 -3.167571e-03 -0.6091 -402.2624 288.3383)">
				<stop  offset="0" style="stop-color:#003B7A"/>
				<stop  offset="0.1838" style="stop-color:#004080"/>
				<stop  offset="0.4834" style="stop-color:#004D90"/>
				<stop  offset="0.8594" style="stop-color:#0062AA"/>
				<stop  offset="1" style="stop-color:#006CB7"/>
			</linearGradient>
			
				<path id="path3184" inkscape:connector-curvature="0" style="fill:url(#path3184_00000145016317787088940590000006661913854432281987_);" d="
				M670.8,632.4c0-0.1,0.3-2,0.3-2.2c0.1-1.1,0.7-3.3,0.9-4.2l15.7-59.1l-16,0.1l-16.3,61.3l-1.7,6.5l0,0l16-0.1h0.3l0,0l2.4,0
				C670.9,634,670.8,633.4,670.8,632.4z"/>
			
				<linearGradient id="path3197_00000010297426261052813110000006854239354292752304_" gradientUnits="userSpaceOnUse" x1="1986.2799" y1="-579.074" x2="1986.2799" y2="-508.8267" gradientTransform="matrix(0.6091 -3.167571e-03 -3.167571e-03 -0.6091 -402.2624 288.3383)">
				<stop  offset="0" style="stop-color:#003B7A"/>
				<stop  offset="0.1838" style="stop-color:#004080"/>
				<stop  offset="0.4834" style="stop-color:#004D90"/>
				<stop  offset="0.8594" style="stop-color:#0062AA"/>
				<stop  offset="1" style="stop-color:#006CB7"/>
			</linearGradient>
			
				<path id="path3197" inkscape:connector-curvature="0" style="fill:url(#path3197_00000010297426261052813110000006854239354292752304_);" d="
				M837.7,566.2l-7.5,28.1l0,0l0,0.1l-1.6,5.9l-0.1,0.2l-1.3,4.8c-0.6,1.5-1.8,1.3-2.5,1l-4.1-4c0,0-0.1-0.1-0.2-0.1l-0.1-0.1
				l-7.2-7.2l-0.4-0.4l0,0L783,564.7l-18.5,69.6l16.3-0.1l0,0l2.4,0c-1.4-0.7-1.5-1.4-1.5-2.3c0-0.1,0.3-2,0.3-2.2
				c0.2-1.4,1-4.5,1-4.5l5.1-19h0l0.9-3.5l0.8-3l0,0l1.2-4.5c0.6-1.5,1.8-1.3,2.5-1l3.7,3.7l0.1,0.1l3.3,3.3l4.8,4.7h0l28.8,28.7
				h1.4l17.3-64.9c0.3-1.3,0.8-2.5,1.4-3.6L837.7,566.2L837.7,566.2z"/>
			
				<linearGradient id="path3206_00000093858718060178257160000000047124553939302065_" gradientUnits="userSpaceOnUse" x1="2112.8792" y1="-579.7693" x2="2112.8765" y2="-507.8319" gradientTransform="matrix(0.6091 -3.167571e-03 -3.167571e-03 -0.6091 -402.2624 288.3383)">
				<stop  offset="0" style="stop-color:#004081"/>
				<stop  offset="1" style="stop-color:#0077C0"/>
			</linearGradient>
			
				<path id="path3206" inkscape:connector-curvature="0" style="fill:url(#path3206_00000093858718060178257160000000047124553939302065_);" d="
				M911.3,599.2c2.1,3.1,3.6,7.2,3.6,11.6c0,13-11.7,22.7-22.6,23.4l-8.1,0.5c-2.8,0.1-4.9,0.1-5.3,0.1c0,0-3.7,0.1-8-0.1
				c-28.6-1.5-31.2,0.2-31.2,0.2c-0.1-0.9,0.1-2.2,0.2-3c0.1-0.6,0.3-1.4,0.6-2.2c1.9-5.2,6.4-8.7,12.1-8.7l32.3,0.8
				c3.3,0,13.4-0.1,15.9-7.3c1-2.8,0.1-4.8-0.6-5.7c-1.8-2.5-5.4-3.5-11.7-3.5l-6.6-0.1c-4.9-0.2-11.7-1.5-15.9-3.2
				c-2.9-1.2-4.5-2.5-4.5-2.5c-5.3-3.9-6.1-8.6-5.9-11.5c0.1-2.7,0.9-24,34.1-25.1c0,0,3.5-0.2,5.2-0.2l10.6,0.1
				c3.4,0.2,8.8,0.2,12.3,0.3c2.4,0,4.3,0,6.7,0c2.5-0.1,5.4-0.1,8.5-0.7c0,0-0.1,3.5-0.8,5.5c-1.9,5.2-5.4,7.7-11.1,7.7L888,576
				c-3.3,0.1-14,0.4-16,7.2l0,0.1c-0.6,1.9-0.4,3.8,0.7,5.3c1.8,2.5,5.4,3.5,11.7,3.5l11-0.1C895.5,592.1,906.2,591.5,911.3,599.2
				L911.3,599.2z"/>
			<g id="g3208">
				<path id="path3210" inkscape:connector-curvature="0" class="st12" d="M741.3,504.5l0.8-2.8l-30.1,20.4l-18.8-19.6l-13.4,49.4
					h16.5l5.3-19.4l6.9,7.5l9.3-6.3l-4.9,18.2h16.5l2-7.5c0,0,3.3,5.6,11.3,7.4c10.9,2.7,20.4-1.7,22.1-2.4c1.9-0.9,5-2.7,6.8-4.3
					l-1.8,6.8h16.6l5.2-19.4l6.9,7.5l9.3-6.3l-4.9,18.2h42.7c0,0,6.4,0.4,11.9-2.3l4-5c0,0-2.2,2.1-5.2,3.3c-3,1.3-6.2,2.1-10.9,2
					h-39.9l5.7-20.9l-12.3,8.4l-8.2-8.8l-5.8,21.3h-12.5l3.6-13.4c0,0-2,4.7-7.3,8.4c-4,2.8-8.7,4.8-14.2,5.5
					c-2.2,0.3-9.2,0.9-14.9-1.8c-1.7-0.8-7.8-3.9-8.3-11.1l-3.3,12.4h-12.5l5.7-20.8l-12.3,8.4l-8.2-8.8l-5.8,21.3h-12.5l11.8-43.5
					l17.6,18.2L741.3,504.5L741.3,504.5z"/>
				<path id="path3212" inkscape:connector-curvature="0" class="st12" d="M740.6,507l-0.5,2h10.4l-5.8,21.4c0,0-1.6,4.3-0.1,7.2
					c1.6,2.8,5.9,4.5,11.7,2.6c1.2-0.4,6.7-2.5,8.6-8.6c0.2-0.7,3.1-11.6,3.1-11.6l3-11h15.5l15,15.6L825,509h29.8
					c0,0,8.1-0.4,11.7,4.5c3.9,5.8-1.1,11.6-1.1,11.6s-1.5,1.8-3.6,3c0,0,7.5,3.8,2.5,12.8l26.1-32h15.6l-4.9,6c0,0-1.2,1.1-0.7,2.8
					c0.6,1.8,7.3,28.4,7.3,28.4l10.1-37.4h12.5l-11.1,40.8h-23.8l-1.7-7.1h-17.4l-5.5,7.1h-11.2l-1.6,2h13.8l5.5-7.1h14.9l1.7,7.1
					h26.9l12.1-44.8h-16.5l-8.6,31.6l-5.4-21c0,0-0.3-0.7,0.3-1.4c0.6-0.7,7.5-9.1,7.5-9.1h-20.7l-21.6,26.5c0,0-0.2-2.7-2.8-5.3
					c0,0,5.4-4,4.7-11.3c-0.2-1.7-1.6-8.7-12.7-9.8c-0.7-0.1-2.7-0.1-2.7-0.1h-30.1l-22.5,15l-14.4-15h-17.9l-6.3,23.4
					c0,0-1.3,5.9-7.7,8c-1.7,0.5-5.9,1.3-8.3-0.6c-2.4-1.9-1-5.9-1-5.9l6.7-24.9L740.6,507L740.6,507z"/>
				<g id="g3214">
					<path id="path3216" inkscape:connector-curvature="0" class="st12" d="M852.4,518.6h-14.2l-1.5,5.5h13.5c2.6-0.1,4.8-1.6,5-3.6
						C855.4,518.6,852.4,518.6,852.4,518.6L852.4,518.6z M850.5,522.2l-11.1,0l0.4-1.6h12.5c0,0,0.8,0,0.9,0.1
						C853.4,520.8,852.2,522.1,850.5,522.2z"/>
					<path id="path3218" inkscape:connector-curvature="0" class="st12" d="M850.3,533.8l-16.1,0l-1.8,6.5l15.5,0
						c2.8-0.2,5.6-1.8,5.7-4.1C853.7,533.8,850.3,533.8,850.3,533.8L850.3,533.8z M847.8,538.2l-12.8,0l0.7-2.5h14.6
						c0,0,1.3-0.1,1.3,0.5C851.5,536.8,850.2,538.1,847.8,538.2z"/>
				</g>
				<polygon id="polygon3220" class="st12" points="885,532.6 889.4,527.4 890.6,532.6 				"/>
			</g>
			
				<linearGradient id="path3233_00000054945525825853839630000013550679129597691289_" gradientUnits="userSpaceOnUse" x1="1535.7209" y1="-573.2675" x2="1535.3564" y2="-503.6494" gradientTransform="matrix(0.6091 0 0 -0.6091 -402.9094 286.4052)">
				<stop  offset="0" style="stop-color:#003B7A"/>
				<stop  offset="0.1838" style="stop-color:#004080"/>
				<stop  offset="0.4834" style="stop-color:#004D90"/>
				<stop  offset="0.8594" style="stop-color:#0062AA"/>
				<stop  offset="1" style="stop-color:#006CB7"/>
			</linearGradient>
			
				<path id="path3233" inkscape:connector-curvature="0" style="fill:url(#path3233_00000054945525825853839630000013550679129597691289_);" d="
				M560.7,567.7l-7.4,28.1l0,0l0,0.1l-1.6,5.9l-0.1,0.1l-1.3,4.8c-0.6,1.5-1.8,1.3-2.5,1l-4.1-4c0,0-0.1-0.1-0.1-0.1l-0.1-0.1
				l-7.2-7.2l-0.4-0.4l0,0L506,566.1l-18.4,69.3h18.2c-1.1-0.6-1.2-1.3-1.2-2.2c0-0.1,0.3-2,0.3-2.2c0.2-1.4,1-4.5,1-4.5l5.1-19h0
				l0.9-3.4l0.8-3l0,0l1.2-4.5c0.6-1.6,1.8-1.3,2.5-1l3.8,3.7l0.1,0.1l3.3,3.3l4.8,4.7h0l28.2,28h2.2l17.2-64.3
				c0.3-1.3,0.8-2.5,1.4-3.6L560.7,567.7L560.7,567.7z"/>
		</g>
	</g>
</g>
</svg>
